<svg width="363" height="467" viewBox="0 0 363 467" fill="none" xmlns="http://www.w3.org/2000/svg">
<path d="M77.488 466H85.6003M77.488 466L90.4458 445.471M77.488 466L93.0275 455.058M162.668 443.388L164.962 465.775M162.668 443.388L159.191 456.143M162.668 443.388L162.088 438.749M162.668 443.388L164.153 437.968M172.518 407.44L171.406 411.499M172.518 407.44L175.479 376.994M172.518 407.44L145.864 403.382M172.518 407.44L173.677 361.636M182.949 300.177L175.479 376.994M182.949 300.177L217.578 296.712M182.949 300.177L185.266 276.695M182.949 300.177L153.804 303.656M217.578 296.712L221.772 294.959M217.578 296.712L175.126 281.334M217.578 296.712L171.939 295.539M217.578 296.712L242.053 273.506M217.578 296.712L192.22 261.33M217.578 296.712L198.014 228.282M217.578 296.712L278.559 227.122M221.772 294.959L228.726 312.933M221.772 294.959L213.08 271.767M221.772 294.959L259.437 272.926M228.726 312.933L252.483 343.082M228.726 312.933L242.053 273.506M228.726 312.933L288.409 350.084M252.483 343.082L266.39 393.525M252.483 343.082L266.97 361.636M252.483 343.082L271.605 349.46M252.483 343.082L247.848 300.757M252.483 343.082L208.445 259.011M266.39 393.525L265.811 433.531M266.39 393.525L268.128 398.743M266.39 393.525L266.97 361.636M265.811 433.531L247.848 466H273.344M265.811 433.531L273.344 466M265.811 433.531L286.671 466M265.811 433.531L270.446 432.372M265.811 433.531L268.128 398.743M340.56 466L333.027 427.733M340.56 466H320.859M340.56 466L327.233 434.691M333.027 427.733L338.242 348.88M333.027 427.733L316.223 466M333.027 427.733L327.233 434.691M333.027 427.733L327.812 425.994M333.027 427.733L330.041 398.743M333.027 427.733L336.657 341.343M338.242 348.88L330.041 398.743M338.242 348.88L336.657 341.343M338.242 348.88L332.448 345.593M333.607 326.848H339.401M333.607 326.848L336.413 340.183M333.607 326.848L327.812 301.337M333.607 326.848L317.382 328.007M339.401 326.848L344.616 322.789M339.401 326.848L344.616 303.076M339.401 326.848L344.616 279.884M339.401 326.848L325.246 321.63M339.401 326.848L339.981 272.926M344.616 322.789V303.076M344.616 322.789L317.382 328.007M344.616 303.076L362 229.441M344.616 303.076V279.884M362 229.441L353.888 205.09M362 229.441L344.616 279.884M362 229.441L339.981 272.926M362 229.441L344.616 190.595M362 229.441C362 229.441 349.221 226.946 339.981 225.142M353.888 205.09L344.616 190.595M353.888 205.09L338.242 224.803M353.888 205.09L321.438 163.344M344.616 190.595L321.438 163.344M344.616 190.595L339.981 272.926M344.616 190.595L324.915 178.419M344.616 190.595L320.279 229.441M344.616 190.595L339.981 225.142M344.616 190.595L331.289 246.256M321.438 163.344L296.522 159.286M321.438 163.344L338.242 224.803M321.438 163.344L320.859 206.829M321.438 163.344L297.681 178.419M321.438 163.344L324.915 178.419M296.522 159.286L261.754 146.53M296.522 159.286L324.915 178.419M296.522 159.286L297.681 178.419M296.522 159.286L304.055 168.562M296.522 159.286L239.735 194.653M296.522 159.286L230.464 162.764M261.754 146.53L195.117 165.663M261.754 146.53L250.745 173.781M261.754 146.53L304.055 168.562M261.754 146.53L230.464 162.764M261.754 146.53L183.528 178.999M195.117 165.663L147.602 136.673M195.117 165.663L250.165 173.781L327.233 203.93M195.117 165.663L189.323 168.562M195.117 165.663L153.976 167.983M195.117 165.663L183.528 178.999M195.117 165.663L136.592 133.195M147.602 136.673L109.937 73.4751M147.602 136.673L168.369 205.09M147.602 136.673L152.238 177.839M147.602 136.673L189.323 168.562M147.602 136.673L136.592 133.195M109.937 73.4751L69.3756 52.6022M109.937 73.4751L87.9181 77.5337M109.937 73.4751L136.592 133.195M109.937 73.4751L152.238 177.839M109.937 73.4751L67.6372 57.8205M69.3756 52.6022L67.0578 30.5698M69.3756 52.6022L67.6372 57.8205M69.3756 52.6022H55.4687M69.3756 52.6022L53.7303 55.5012M67.0578 30.5698L55.4687 52.6022M67.0578 30.5698L67.6372 57.8205M55.4687 52.6022H54.3098M55.4687 52.6022L67.6372 57.8205M55.4687 52.6022L53.7303 55.5012M54.3098 52.6022L5.63563 1M54.3098 52.6022L87.9181 77.5337M54.3098 52.6022L36.3467 34.6284M54.3098 52.6022L43.3002 79.2731M54.3098 52.6022L38.6645 53.182M5.63563 1L28.8138 67.6771M5.63563 1L53.7303 55.5012M5.63563 1L38.6645 53.182M28.8138 67.6771L17.8042 82.1721M28.8138 67.6771L38.6645 53.182M28.8138 67.6771L29.3933 69.4165M17.8042 82.1721L35.7673 133.774M17.8042 82.1721L23.0193 90.2893M17.8042 82.1721L29.3933 69.4165M17.8042 82.1721L1.17147 138.413M17.8042 82.1721L43.3002 79.2731M1 138.993L6.21509 162.185M1 138.993L35.7673 133.774M1 138.993L1.17147 138.413M1 138.993L23.0193 90.2893M6.21509 162.185L16.5614 141.296M6.21509 162.185L25.3371 161.886M6.21509 162.185L25.3371 160.445M6.21509 162.185L17.9293 152.018M43.3002 161.605L43.8796 140.732M43.3002 161.605L25.3371 161.886M43.3002 161.605L29.9727 141.892M43.3002 161.605L34.6083 151.309M43.3002 161.605L25.3371 160.445M43.8796 140.732L60.6838 137.253M43.8796 140.732L29.9727 141.892M43.8796 140.732L16.5614 141.296M43.8796 140.732L34.6083 151.309M60.6838 137.253L76.9085 189.435M60.6838 137.253L66.4783 136.094M60.6838 137.253L43.3002 79.2731M76.9085 189.435L68.2167 271.187M76.9085 189.435L75.991 243.357M76.9085 189.435L85.6003 202.771M76.9085 189.435L80.2383 187.116M68.2167 271.187L78.6469 316.411M68.2167 271.187L89.6565 351.2M68.2167 271.187L96.61 272.347M68.2167 271.187L87.3387 298.438M68.2167 271.187L109.823 339.024M68.2167 271.187L100.666 228.282M68.2167 271.187L75.991 244.516M78.6469 316.411L102.73 400.753M78.6469 316.411L89.6565 351.2M78.6469 316.411L106.229 344.822M78.6469 316.411L87.2056 298.713M102.984 401.642L108.199 406.281M102.984 401.642L102.857 401.198M102.984 401.642L92.1886 441.069M102.984 401.642L105.881 438.17M91.3949 443.968L90.4458 445.471M91.3949 443.968L93.1332 454.984M91.3949 443.968L98.3483 444.547M91.3949 443.968L101.246 437.59M91.3949 443.968L92.1886 441.069M85.6003 466L85.7372 465.42M85.6003 466H113.994M90.4458 445.471L85.7372 465.42M93.1332 454.984L93.0275 455.058M93.1332 454.984L105.302 446.287M93.1332 455.564L93.0275 455.058M93.1332 455.564L85.7372 465.42M93.1332 455.564L113.844 465.925M93.0275 455.058L98.3483 444.547M113.994 466L105.302 446.287M113.994 466L113.844 465.925M113.994 466H116.311M105.302 446.287L107.04 445.127M105.302 446.287L104.143 445.127M118.629 457.303L113.844 465.925M118.629 457.303L120.947 459.042M118.629 457.303L107.04 445.127M118.629 457.303L127.204 439.916M120.947 459.042L116.311 466M120.947 459.042L127.321 466M120.947 459.042L127.321 449.766M116.311 466H123.844M127.321 466H123.844M127.321 466V460.782M127.321 466H145.864M107.04 445.127H104.143M107.04 445.127L105.881 438.17M107.04 445.127L109.358 438.749L109.199 438.723M107.04 445.127L113.414 438.749M107.04 445.127L127.204 439.916M104.143 445.127L98.3483 444.547M104.143 445.127L101.246 437.59M98.3483 444.547L101.246 437.59M101.246 437.59L105.881 438.17M101.246 437.59L108.199 406.281M105.881 438.17L109.199 438.723M113.414 438.749L109.199 438.723M113.414 438.749L127.204 439.916M113.414 438.749L123.265 428.893M109.199 438.723L136.013 377.87M127.204 439.916L127.321 449.766M127.204 439.916L108.199 406.281M127.204 439.916L136.013 377.87M127.204 439.916L123.265 428.893M127.204 439.916L130.798 378.45M127.321 449.766V454.984M123.844 466L127.321 460.782M123.844 466L127.321 454.984M127.321 460.782V454.984M127.321 454.984L130.798 445.127M130.798 445.127L127.263 449.766M130.798 445.127L133.695 449.766M130.798 445.127L151.079 443.968M130.798 445.127L141.807 436.43M130.798 445.127L134.274 431.212M133.695 449.766L127.263 460.782M133.695 449.766L145.864 466M133.695 449.766L141.807 436.43M145.864 466L149.34 452.085M145.864 466H156.294M149.34 452.085L156.294 466M149.34 452.085L141.807 436.43M149.34 452.085L151.079 443.968M156.294 466H164.986L164.962 465.775M156.294 466L158.032 454.404M156.294 466L159.191 456.143M158.032 454.404L158.267 454.756M158.032 454.404L151.079 443.968M159.191 456.143L164.962 465.775M159.191 456.143L158.267 454.756M158.267 454.756L162.088 438.749M162.088 438.749L164.052 438.006M162.088 438.749V437.59M162.088 438.749L151.079 443.968M164.153 437.968L164.052 438.006M164.153 437.968L171.406 411.499M164.153 437.968L175.479 376.994M162.088 437.59L164.052 438.006M162.088 437.59L163.247 433.531M162.088 437.59L141.807 436.43M162.088 437.59L145.864 403.382M164.052 438.006L163.247 433.531M163.247 433.531L171.406 411.499M163.247 433.531L153.261 377.722M175.479 376.994L153.261 377.722M175.479 376.994L153.804 303.656M175.479 376.994L175.126 281.334M153.261 377.722L153.804 303.656M153.261 377.722L141.807 436.43M153.261 377.722L146.032 402.802M153.261 377.722L140.207 349.75M153.804 303.656L175.126 281.334M153.804 303.656L123.265 312.353M153.804 303.656L127.43 292.35M153.804 303.656L119.788 309.307M153.804 303.656L171.939 295.539M175.126 281.334L192.22 261.33M175.126 281.334L185.266 276.695M108.199 406.281V372.072M108.199 406.281L130.798 378.45M108.199 406.281L92.1886 441.069M108.199 372.072L102.73 400.753M108.199 372.072L130.798 378.45M108.199 372.072L89.6565 351.2M108.199 372.072L109.823 339.024M102.73 400.753L102.857 401.198M102.73 400.753L89.6565 351.2M136.013 377.87L123.265 428.893M136.013 377.87L130.798 378.45M136.013 377.87L102.857 401.198M136.013 377.87L123.265 312.353M136.013 377.87L106.229 344.822M127.031 285.972L127.43 292.35M127.031 285.972L119.788 309.307M127.031 285.972L93.7127 283.943M127.031 285.972L76.3291 244.516M127.031 285.972L127.9 249.155M127.031 285.972L155.714 337.864M127.031 285.972L159.77 259.011M127.031 285.972L140.207 349.75M127.031 285.972L130.218 251.474M130.798 378.45L109.823 339.024M130.798 378.45L127.43 292.35M130.798 378.45L123.265 312.353M102.857 401.198L106.446 345.045M123.265 312.353L106.461 344.822L106.446 345.045M123.265 312.353L87.2056 298.713M89.6565 351.2L106.229 344.822M89.6565 351.2L109.937 339.603M87.3387 298.438L93.7127 283.943M87.3387 298.438L76.3291 244.516M87.3387 298.438L87.2056 298.713M93.7127 283.943L76.3291 244.516M93.7127 283.943L119.788 309.307M127.43 292.35L123.09 312.353L119.788 309.307M127.43 292.35L109.937 339.603M127.43 292.35L171.939 295.539M127.43 292.35L96.61 272.347M127.43 292.35L155.714 337.864M127.43 292.35L140.207 349.75M109.937 339.603L109.823 339.024M96.61 272.347L109.823 339.024M96.61 272.347L100.666 228.282M96.61 272.347L127.9 249.155M106.446 345.045L106.229 344.822M106.229 344.822L87.2056 298.713M141.807 436.43L134.274 431.212M141.807 436.43L151.079 443.968M141.807 436.43L145.864 403.382M151.079 443.968L145.864 403.382M134.274 431.212L145.864 403.382M145.864 403.382L173.677 361.636M145.864 403.382L146.032 402.802M173.677 361.636L156.294 337.864M173.677 361.636L185.266 276.695M171.939 295.539L242.053 273.506M171.939 295.539L213.08 271.767M171.939 295.539L130.218 251.474M119.788 309.307L140.207 349.75M100.666 228.282L195.117 206.829M100.666 228.282L127.9 249.155M100.666 228.282L94.2921 177.259M100.666 228.282L153.976 167.983M100.666 228.282L183.528 178.999M127.9 249.155L130.218 247.995M127.9 249.155L130.218 251.474M127.9 249.155L213.08 271.767M130.218 247.995V251.474M130.218 247.995L131.957 231.761M130.218 247.995L206.151 205.09M213.08 271.767L242.053 273.506M213.08 271.767L210.552 264.809M213.08 271.767L206.127 204.51M242.053 273.506L280.297 293.799M242.053 273.506L288.409 350.084M242.053 273.506L300.578 255.532M242.053 273.506L259.437 272.926M242.053 273.506L210.552 264.809M242.053 273.506L280.297 275.246M146.032 402.802L156.294 337.864M146.032 402.802L140.207 349.75M156.294 337.864L140.207 349.75M156.294 337.864L185.266 276.695M185.266 276.695L192.22 261.33M185.266 276.695L159.77 259.011M185.266 276.695L197.862 228.862M192.22 261.33L198.014 228.282M198.014 228.282L239.781 198.132M198.014 228.282L195.117 206.829M198.014 228.282L197.862 228.862M198.014 228.282L168.462 205.09M155.714 337.864L159.77 259.011M159.77 259.011L131.377 231.893M159.77 259.011L197.862 228.862M159.77 259.011L168.369 205.67M273.344 466H286.671M273.344 466L291.307 425.994M273.344 466L270.446 432.372M286.671 466V428.313M286.671 466H288.989M291.307 425.994L286.671 428.313M291.307 425.994L268.128 398.743M291.307 425.994L294.783 466M291.307 425.994L295.363 377.291M270.446 432.372L286.671 428.313M270.446 432.372L268.128 398.743M286.671 428.313L294.783 466M286.671 428.313L295.363 377.291M286.671 428.313L266.97 361.636M286.671 428.313L288.409 350.084M268.128 398.743L295.363 377.291M268.128 398.743L271.605 349.46M268.128 398.743L297.101 345.401M268.128 398.743L266.97 361.636M294.783 466H288.989M294.783 466H316.223M288.989 466L310.429 433.531M310.429 433.531L316.223 466M310.429 433.531L320.859 466M310.429 433.531L311.008 421.935M310.429 433.531L327.233 434.691M316.223 466H320.859M316.223 466L311.008 421.935M320.859 466L327.233 434.691M311.008 421.935L327.812 425.994M311.008 421.935L309.849 361.636M311.008 421.935L326.653 363.375M311.008 421.935L306.952 346.561M327.233 434.691L327.812 425.994M327.233 434.691L309.849 361.636M327.812 425.994L330.041 398.743M309.849 361.636L330.041 398.743M309.849 361.636L306.952 346.561M309.849 361.636L331.868 345.981M309.849 361.636L282.035 316.991M326.653 363.375L330.041 398.743M326.653 363.375L336.657 341.343M326.653 363.375L306.952 346.561M330.041 398.743L331.868 345.981M336.657 341.343L336.413 340.183M282.035 316.991L306.952 346.561M282.035 316.991L332.448 345.593M282.035 316.991L271.605 349.46M282.035 316.991L285.709 304.815M282.035 316.991L283.194 316.411M282.035 316.991L274.502 271.187M306.952 346.561L336.413 340.183M306.952 346.561L280.297 275.246M306.952 346.561L298.839 295.539M336.413 340.183L298.839 295.539M331.868 345.981L332.448 345.593M332.448 345.593L327.812 301.337M332.448 345.593L323.756 314.672M327.812 301.337L327.981 300.757M327.812 301.337L323.756 314.672M327.812 301.337L298.839 295.539M327.812 301.337L339.981 225.142M317.382 328.007L310.429 322.209M317.382 328.007L344.616 279.884M317.382 328.007V318.731M317.382 328.007L329.551 269.448C329.551 269.448 334.848 242.238 338.242 224.803M317.382 328.007L322.597 281.044M310.429 322.209L320.859 206.829M310.429 322.209L317.382 318.731M310.429 322.209L322.597 281.044M320.859 206.829L327.233 203.93M320.859 206.829L331.289 246.256M320.859 206.829L317.382 318.731M320.859 206.829L322.597 281.044M320.859 206.829L278.559 227.122M320.859 206.829L297.681 178.419M320.859 206.829L338.242 224.803M327.233 203.93L348.093 231.761M327.233 203.93L326.414 230.021M327.233 203.93L301.157 254.373M327.233 203.93L324.915 178.419M327.233 203.93L304.055 168.562M348.093 231.761L310.429 251.474M348.093 231.761L327.981 300.757M348.093 231.761L326.414 230.021M348.093 231.761L324.915 178.419M310.429 251.474L320.279 229.441M310.429 251.474L300.578 255.532M310.429 251.474L280.297 275.246M310.429 251.474L327.981 300.757M310.429 251.474L298.839 295.539M310.429 251.474L290.727 238.138M320.279 229.441L331.289 246.256M320.279 229.441L326.414 230.021M320.279 229.441L297.681 178.419M320.279 229.441L290.148 238.138M320.279 229.441L324.915 178.419M331.289 246.256L325.246 321.63M331.289 246.256L317.382 318.731M331.289 246.256L322.597 281.044M344.616 279.884C344.616 279.884 340.732 246.313 338.242 224.803M317.382 318.731L325.246 321.63M338.242 224.803C338.804 224.913 339.385 225.026 339.981 225.142M338.242 224.803L322.597 281.044M339.981 272.926L325.246 321.63M325.246 321.63L327.981 300.757M298.839 295.539L280.297 275.246M280.297 275.246L300.578 255.532M280.297 275.246L274.502 271.187M280.297 275.246V293.799M280.297 275.246L259.437 272.926M297.101 345.401L295.363 377.291M297.101 345.401L271.605 349.46M297.101 345.401L288.409 350.084M297.101 345.401L280.297 293.799M297.101 345.401L285.709 304.815M295.363 377.291L288.409 350.084M266.97 361.636L288.409 350.084M271.605 349.46L247.848 300.757M288.409 350.084L283.194 316.411M300.578 255.532L280.297 293.799M300.578 255.532L285.709 304.815M300.578 255.532L290.727 238.138M280.297 293.799L285.709 304.815M280.297 293.799L283.194 316.411M285.709 304.815L247.848 300.757M285.709 304.815L290.148 238.138M247.848 300.757L290.727 238.138M247.848 300.757L208.445 259.011M247.848 300.757L239.781 198.132M283.194 316.411L323.756 314.672M323.756 314.672L326.414 230.021M323.756 314.672L301.157 254.373M301.157 254.373L278.559 227.122M301.157 254.373L274.502 271.187M274.502 271.187L278.559 227.122M274.502 271.187L259.437 272.926M278.559 227.122L250.745 173.781M278.559 227.122L259.437 272.926M278.559 227.122L239.735 194.653M278.559 227.122L197.435 228.282M208.445 259.011L239.735 194.653M208.445 259.011L210.552 264.809M208.445 259.011L206.151 205.09M290.148 238.138L297.681 178.419M290.148 238.138L239.735 197.552M290.148 238.138L239.735 194.653M297.681 178.419L206.127 204.51M324.915 178.419L304.055 168.562M304.055 168.562L250.745 173.781M250.745 173.781L239.735 197.552M250.745 173.781L189.323 168.562M189.323 168.562L183.528 178.999M189.323 168.562L239.735 197.552M189.323 168.562L195.117 206.829M183.528 178.999L206.127 204.51M183.528 178.999L230.464 162.764M183.528 178.999L153.976 167.983M183.528 178.999L168.369 205.09M206.127 204.51L230.464 162.764M206.127 204.51L210.552 264.809M206.127 204.51L195.117 206.829M206.127 204.51L206.151 205.09M230.464 162.764L239.735 194.653M239.735 194.653V197.552M239.735 197.552L239.781 198.132M153.976 167.983L94.2921 177.259M153.976 167.983L136.592 133.195M131.957 231.761L131.377 231.893M131.957 231.761L168.369 205.67M131.957 231.761L122.106 189.59M75.991 244.516L76.3291 243.357L85.3354 203.93M75.991 244.516L131.377 231.893M131.377 231.893L85.6003 202.771M168.462 205.09L168.369 205.67M168.462 205.09L152.238 177.839M85.6003 202.771L80.2383 187.116M85.6003 202.771V103.045M85.6003 202.771L85.3354 203.93M43.3002 79.2731L80.2383 187.116M43.3002 79.2731L94.2921 177.259M43.3002 79.2731L38.6645 53.182M43.3002 79.2731L36.3467 34.6284M43.3002 79.2731L60.6838 134.354M43.3002 79.2731L35.7673 133.774M43.3002 79.2731L87.9181 77.5337M80.2383 187.116L60.6838 134.354M80.2383 187.116L94.2921 177.259M60.6838 134.354L85.6003 103.045M60.6838 134.354L35.7673 133.774M60.6838 134.354L66.4783 136.094M85.6003 103.045L66.4783 136.094M85.6003 103.045L56.0482 82.7519M85.6003 103.045L152.238 177.839M66.4783 136.094L56.0482 82.7519M66.4783 136.094L16.5614 141.296M66.4783 136.094L29.6435 141.852M66.4783 136.094L35.7673 133.774M56.0482 82.7519L67.6372 57.8205M56.0482 82.7519L23.0193 90.2893M56.0482 82.7519L29.3933 69.4165M56.0482 82.7519L16.6453 141.312L16.5614 141.296M56.0482 82.7519L53.7303 55.5012M94.2921 177.259L75.991 243.936M94.2921 177.259L136.592 133.195M94.2921 177.259L87.9181 77.5337M152.238 177.839L122.106 189.59M152.238 177.839L67.6372 57.8205M85.3354 203.93L122.106 189.59M168.369 205.09L122.106 189.59M122.106 189.59L67.6372 57.8205M136.592 133.195L87.9181 77.5337M67.6372 57.8205L53.7303 55.5012M53.7303 55.5012L38.6645 53.182M53.7303 55.5012L29.3933 69.4165M38.6645 53.182L36.3467 34.6284M38.6645 53.182L29.3933 69.4165M35.7673 133.774L1.17147 138.413M35.7673 133.774L29.9727 141.892M23.0193 90.2893L29.3933 69.4165M23.0193 90.2893L16.5614 141.296M1.17147 138.413L16.5614 141.296M16.5614 141.296L25.3371 161.886M1 138.413L29.6435 141.852M29.9727 141.892L29.6435 141.852M29.9727 141.892L25.3371 160.445M29.6435 141.852L17.9293 152.018M25.3371 161.886L34.6083 151.309M25.3371 160.445L17.9293 152.018" stroke="white" stroke-width="1.5"/>
</svg>
