<?xml version="1.0" standalone="no"?>
<!DOCTYPE svg PUBLIC "-//W3C//DTD SVG 1.1//EN" "http://www.w3.org/Graphics/SVG/1.1/DTD/svg11.dtd" >
<svg xmlns="http://www.w3.org/2000/svg" xmlns:xlink="http://www.w3.org/1999/xlink" version="1.1">
<metadata>
Created by FontForge 20190801 at Thu Feb  7 16:44:35 2002
 By www-data
Copyright (c) 1994, 2001 Adobe Systems Incorporated.  All Rights Reserved.
</metadata>
<defs>
<font id="MotterCorpusStdRegular" horiz-adv-x="748" >
  <font-face 
    font-family="MotterCorpusStdRegular"
    font-weight="400"
    font-stretch="normal"
    units-per-em="1000"
    panose-1="0 0 5 0 0 0 0 0 0 0"
    ascent="786"
    descent="-214"
    x-height="634"
    cap-height="786"
    bbox="-153 -250 1567 1034"
    underline-thickness="50"
    underline-position="-100"
    unicode-range="U+0020-FB02"
  />
<missing-glyph horiz-adv-x="500" 
d="M0 0v700h500v-700h-500zM250 395l170 255h-340zM280 350l170 -255v510zM80 50h340l-170 255zM50 605v-510l170 255z" />
    <glyph glyph-name="fi" unicode="fi" horiz-adv-x="824" 
d="M636 799h1q133 0 133 -67q0 -66 -134 -66q-27 0 -46.5 2t-41.5 8t-34 20t-12 36q0 67 134 67zM772 461v-294q0 -33 1.5 -51t3.5 -24t8 -15q17 -27 17 -43q0 -14 -9 -27.5t-32 -13.5q-8 0 -54.5 3.5t-79.5 3.5q-30 0 -79 -3.5t-62 -3.5q-16 0 -26 8.5t-12.5 16.5t-2.5 16
q0 14 18 43q8 14 10.5 29.5t2.5 60.5v294q0 29 -3 35t-24 17q-46 23 -77 23q-28 0 -43 -13.5t-15 -32.5q0 -43 56 -43q6 0 20 2t20 2q13 0 21 -10t8 -24q0 -10 -3.5 -39t-3.5 -40q0 -18 3.5 -52t3.5 -37q0 -16 -11.5 -26t-27.5 -10q-6 0 -17 1t-16 1q-15 0 -22.5 -6.5
t-9 -15t-1.5 -24.5q0 -31 2 -52q2 -29 15 -46q13 -18 13 -37q0 -41 -40 -41q-9 0 -55.5 3.5t-72.5 3.5q-23 0 -68 -3.5t-66 -3.5q-19 0 -29.5 11.5t-10.5 30.5q0 16 17 42q8 13 10.5 27t2.5 63v98q0 47 -5 167q0 3 -2.5 46.5t-2.5 55.5q0 128 64 192.5t167 64.5
q23 0 43.5 -3.5t32.5 -6.5t14 -3q4 0 14.5 6.5t20.5 6.5q46 0 53 -29l7 -46q6 -46 10 -55q10 -26 58 -33q40 -6 101 -6q41 0 83 6.5t53 6.5q39 0 39 -38q0 -17 -18 -46q-5 -9 -7 -15t-3.5 -23t-1.5 -52z" />
    <glyph glyph-name="fl" unicode="fl" horiz-adv-x="846" 
d="M334 170v-1q0 -4 0.5 -20t0.5 -22q0 -29 12 -50q17 -27 17 -43q0 -8 -2.5 -16.5t-12 -16.5t-25.5 -8q-4 0 -50.5 3.5t-78.5 3.5q-23 0 -69 -3.5t-64 -3.5q-40 0 -40 42q0 15 17 42q8 14 10.5 29.5t2.5 60.5v98q0 75 -5 167q-5 62 -5 103q0 121 61.5 188.5t171.5 67.5
q42 0 70 -6q19 -4 20 -4q7 0 16 6q10 5 22 5q18 0 33 -10t16 -30q1 -15 2.5 -38t1.5 -29q1 -24 16 -72.5t15 -55.5q0 -11 -9 -22t-30 -11q-10 0 -31.5 5.5t-38.5 5.5q-18 0 -32.5 -10.5t-14.5 -33.5q0 -22 16.5 -33t40.5 -11q5 0 20 2t18 2q36 0 36 -33q0 -3 -3.5 -30.5
t-3.5 -49.5q0 -24 3.5 -56t3.5 -33q0 -17 -11.5 -26.5t-28.5 -9.5q-8 0 -24 1.5t-24 1.5q-40 0 -40 -46zM794 729v-562q0 -53 1.5 -65t10.5 -25q18 -27 18 -43q0 -14 -9 -27.5t-32 -13.5q-6 0 -51 3.5t-76 3.5q-23 0 -69 -3.5t-65 -3.5q-16 0 -26 8.5t-12.5 16.5t-2.5 16
q0 14 18 43q8 13 10 28t2 62v445q0 48 -2 61.5t-10 27.5q-18 30 -18 43q0 42 44 42q21 0 63 -3.5t63 -3.5q22 0 62.5 3.5t46.5 3.5q34 0 34 -57z" />
    <glyph glyph-name=".notdef" horiz-adv-x="500" 
d="M0 0v700h500v-700h-500zM250 395l170 255h-340zM280 350l170 -255v510zM80 50h340l-170 255zM50 605v-510l170 255z" />
    <glyph glyph-name=".null" horiz-adv-x="0" 
 />
    <glyph glyph-name="nonmarkingreturn" horiz-adv-x="333" 
 />
    <glyph glyph-name="space" unicode=" " horiz-adv-x="374" 
 />
    <glyph glyph-name="exclam" unicode="!" horiz-adv-x="499" 
d="M426 718l-48 -428q-5 -32 -26 -32q-4 0 -38.5 7t-64.5 7q-32 0 -65.5 -7t-41.5 -7q-15 0 -19 7.5t-6 24.5l-45 422q-1 9 -1 29q0 22 12 35t35 13q5 0 47.5 -4t78.5 -4q40 0 84 4t55 4q18 0 29 -9.5t13.5 -18.5t2.5 -16q0 -4 -1 -14t-1 -13zM249 221h1q20 0 38 -2.5
t50.5 -11.5t52.5 -34.5t20 -65.5q0 -36 -16.5 -60.5t-44 -35.5t-52 -15t-51.5 -4q-26 0 -50.5 4.5t-51.5 15t-43.5 35t-16.5 59.5q0 36 18.5 61t48 35.5t52.5 14.5t45 4z" />
    <glyph glyph-name="quotedbl" unicode="&#x22;" 
d="M164 477l-15 262q-1 21 0 25q7 22 33 22q3 0 24 -1.5t47 -1.5t47.5 1.5t24.5 1.5q36 0 33 -47l-16 -262q-1 -15 -2 -22t-7 -13.5t-17 -6.5l-18 2q-19 2 -45 2q-18 0 -37.5 -2t-24.5 -2q-11 0 -17 6.5t-7.5 14t-2.5 21.5zM405 477l-15 262q-1 21 0 25q7 22 33 22
q3 0 24 -1.5t47 -1.5t47.5 1.5t24.5 1.5q36 0 33 -47l-16 -262q-1 -15 -2 -22t-7 -13.5t-17 -6.5l-19 2q-18 2 -44 2q-18 0 -37.5 -2t-24.5 -2q-11 0 -17 6.5t-7.5 14t-2.5 21.5z" />
    <glyph glyph-name="numbersign" unicode="#" horiz-adv-x="849" 
d="M756 628h45q32 0 32 -25q0 -7 -17 -61q-10 -31 -11 -62q-1 -29 -9 -37t-26 -8h-52q-40 0 -44 -22l-4 -24q-2 -8 -2 -17q0 -15 32 -15h44q31 0 31 -26q0 -4 -2.5 -12t-7 -22.5t-8.5 -27.5q-8 -28 -11 -71q-1 -11 -3 -16.5t-11.5 -11.5t-26.5 -6h-47q-13 0 -19.5 -1
t-13.5 -9t-11 -25l-20 -93q-10 -41 -40 -41q-7 0 -31 2.5t-42 2.5q-12 0 -34.5 -2.5t-32.5 -2.5q-9 0 -17 7.5t-8 18.5q0 3 2 15l21 97q1 7 1 14q0 17 -26 17h-25q-33 0 -38 -23l-25 -113q-8 -33 -38 -33q-8 0 -30 2.5t-34 2.5q-18 0 -41.5 -2.5t-31.5 -2.5q-25 0 -25 30
q0 9 2 17l18 87q3 12 3 17q0 18 -28 18h-45q-33 0 -33 23q0 5 2.5 13t7 22t8.5 28q8 32 13 75q1 11 3.5 17t11.5 10.5t26 4.5h51q31 0 36 24l6 26q7 28 -27 28h-42q-34 0 -34 26q0 7 6 25q13 39 23 108q3 22 11 28t32 6h43q24 0 31.5 7t12.5 32l16 69q11 47 45 47
q9 0 29 -1.5t30 -1.5t32 1.5t33 1.5q32 0 32 -27q0 -16 -2 -20l-15 -77l-1 -16q0 -5 1 -7.5t7 -5t19 -2.5h32q13 0 19.5 6t10.5 25l18 77q4 16 7 24t13.5 15.5t26.5 7.5q12 0 35 -1.5t32 -1.5q10 0 28.5 1.5t26.5 1.5q15 0 25.5 -7.5t10.5 -18.5q0 -4 -2 -12t-2 -9l-14 -69
q-3 -12 -3 -23q0 -5 1 -7.5t8 -5.5t20 -3zM393 347h45q32 0 37 26l8 35q3 9 3 20q0 18 -29 18h-45q-32 0 -37 -26l-7 -36q0 -1 -1.5 -7.5t-1.5 -9.5q0 -20 28 -20z" />
    <glyph glyph-name="dollar" unicode="$" horiz-adv-x="703" 
d="M432 31v-37q0 -11 -0.5 -16.5t-6 -11t-15.5 -5.5q-5 0 -28 2t-27 2q-6 0 -35.5 -2t-33.5 -2q-11 0 -16.5 6t-6 11.5t-0.5 15.5v37q0 16 -8 20.5t-46 12.5q-8 2 -19 4.5t-18 4.5t-10 2q-9 0 -21 -8q-13 -9 -25 -9q-7 0 -16 2.5t-20 13t-11 28.5q0 63 -12 119q0 2 -3.5 15
t-6 24t-2.5 15q0 11 10 22t24 11q12 0 50 -19q75 -36 131 -36q16 0 26 7t12.5 13.5t2.5 13.5q0 18 -13.5 25.5t-63.5 21.5q-34 10 -56.5 19.5t-50.5 29.5t-42.5 53t-14.5 79q0 22 5.5 46.5t20.5 59t51 62.5t89 42q26 6 31.5 11t5.5 23v30q0 11 1 16.5t7 11.5t19 6
q5 0 32 -1.5t31 -1.5q5 0 28 1.5t26 1.5q17 0 21 -8.5t4 -25.5v-30q0 -18 8 -23t33 -8q11 -2 29.5 -6.5t21.5 -4.5q5 0 16.5 6.5t21.5 6.5q15 0 29 -10t13 -31q-1 -44 9 -96q0 -2 7.5 -31.5t7.5 -35.5q0 -11 -10.5 -20t-28.5 -9q-15 0 -50 15q-52 22 -94 22
q-22 0 -36.5 -9.5t-14.5 -25.5t13.5 -22.5t72.5 -22.5q41 -11 67.5 -21.5t54.5 -30.5t42 -52.5t14 -76.5q0 -58 -20 -102t-50 -67t-57.5 -34.5t-50.5 -12.5q-32 -2 -40 -7t-8 -19z" />
    <glyph glyph-name="percent" unicode="%" horiz-adv-x="1111" 
d="M236 795h1q119 0 170 -65t51 -191q0 -120 -53.5 -188.5t-168.5 -68.5q-114 0 -168 68.5t-54 188.5q0 256 222 256zM236 650h-1q-41 0 -41 -114q0 -113 42 -113t42 114q0 47 -6.5 73t-15 33t-20.5 7zM875 493h1q119 0 170 -65t51 -191q0 -120 -53.5 -188.5t-168.5 -68.5
q-114 0 -168 68.5t-54 188.5q0 256 222 256zM875 348h-1q-41 0 -41 -114q0 -113 42 -113t42 114q0 47 -6.5 73t-15 33t-20.5 7zM816 761v-1q0 -10 -4 -18l-322 -714q-15 -33 -34 -33q-4 0 -28 1t-31 1q-8 0 -35.5 -1t-34.5 -1q-25 0 -25 21q0 14 13 44l307 686
q11 25 20.5 32t24.5 7q12 0 36 -1.5t30 -1.5q9 0 31 1.5t27 1.5q25 0 25 -24z" />
    <glyph glyph-name="ampersand" unicode="&#x26;" horiz-adv-x="893" 
d="M22 272v1q0 89 46 149t118 85q33 12 33 21q0 4 -16 28q-42 64 -42 102q0 60 45 94q25 19 48.5 23t77.5 4h259q55 0 55 -35q0 -1 -3 -22.5t-3 -48.5q0 -6 1.5 -36.5t1.5 -35.5q0 -23 -11.5 -32.5t-38.5 -9.5h-40q-11 0 -18 -8t-7 -18q0 -12 8 -25l66 -93q10 -15 14 -15
q12 0 16 54q1 16 7 48q4 24 27 24q5 0 41.5 -3t42.5 -3q8 0 49 3t43 3q31 0 31 -43q0 -80 -27.5 -153.5t-57.5 -113.5q-18 -25 -18 -26q0 -7 31 -49t53 -53q28 -14 35 -21.5t7 -23.5q0 -46 -38 -46q-20 0 -60 2q-42 2 -61 2q-18 0 -58 -4t-49 -4q-20 0 -32 24q-13 23 -20 23
q-4 0 -13 -5t-18.5 -11t-11.5 -7q-76 -38 -172 -38q-86 0 -153.5 25t-107.5 67t-60 93t-20 108zM381 203h1q27 0 44 6.5t17 15.5q0 3 -10 15l-71 93q-14 18 -24 18q-12 0 -29 -16.5t-17 -45.5q0 -32 23 -59t66 -27z" />
    <glyph glyph-name="quotesingle" unicode="'" horiz-adv-x="499" 
d="M160 477l-15 262q-1 21 0 25q7 22 33 22q3 0 24 -1.5t47 -1.5t47.5 1.5t24.5 1.5q36 0 33 -47l-16 -262q-1 -15 -2 -22t-7 -13.5t-17 -6.5l-18 2q-19 2 -45 2q-18 0 -37.5 -2t-24.5 -2q-11 0 -17 6.5t-7.5 14t-2.5 21.5z" />
    <glyph glyph-name="parenleft" unicode="(" horiz-adv-x="519" 
d="M94 288v1q0 236 120 466q20 38 32.5 52.5t28.5 14.5q7 0 48 -2t59 -2q13 0 38 2t34 2q18 0 28 -10t11 -16.5t1 -11.5q0 -15 -25 -61q-5 -10 -8 -15q-101 -185 -101 -393q0 -120 31 -225.5t75 -178.5q24 -40 24 -60q0 -43 -40 -43q-5 0 -27 2t-38 2q-22 0 -59.5 -2
t-48.5 -2q-22 0 -46 35q-68 100 -102.5 218t-34.5 227z" />
    <glyph glyph-name="parenright" unicode=")" horiz-adv-x="519" 
d="M425 342v-1q0 -236 -120 -466q-20 -38 -32.5 -52.5t-28.5 -14.5q-7 0 -48 2t-59 2q-13 0 -38 -2t-34 -2q-18 0 -28 10t-11 16.5t-1 11.5q0 15 25 61q5 10 8 15q101 185 101 393q0 120 -31 225.5t-75 178.5q-24 40 -24 60q0 43 40 43q5 0 27 -2t38 -2q22 0 59.5 2t48.5 2
q22 0 46 -35q68 -100 102.5 -218t34.5 -227z" />
    <glyph glyph-name="asterisk" unicode="*" 
d="M167 595v1q0 4 3.5 14.5l7.5 22.5t5 14q1 3 4.5 22t7.5 35t7 20q9 15 29 15q11 0 18 -6t31 -34l2 -2q2 -2 4.5 -5t6 -6.5t7.5 -7t7.5 -6.5t7 -5t6.5 -2q5 0 5 7q0 9 -21 51t-21 49q0 8 7 19t20 11q1 0 24.5 -2t38.5 -2q18 0 39.5 2t23.5 2q13 0 20 -10.5t7 -19.5
q0 -6 -21 -48.5t-21 -51.5q0 -7 5 -7q14 0 41 34q23 28 30.5 34t18.5 6q21 0 28.5 -13.5t12.5 -48.5q4 -29 14 -53q9 -22 9 -30q0 -11 -10.5 -20t-20.5 -9q-4 0 -39.5 8t-42.5 8q-18 0 -18 -7q0 -12 55 -36q16 -7 21 -10t12 -8t9 -10t2 -13q0 -9 -7.5 -16.5t-34.5 -25.5
q-5 -4 -28.5 -22.5t-25.5 -19.5q-13 -10 -22 -10q-13 0 -24 11.5t-13 25.5q-7 54 -11 67q-3 11 -8 11q-7 0 -10.5 -11.5t-7.5 -41.5q-3 -20 -5 -30t-11 -21t-24 -11q-12 0 -45 29q-17 14 -58 40q-15 10 -15 25q0 14 8 21t36 20q55 27 55 35t-19 8q-10 0 -41.5 -8t-37.5 -8
q-11 0 -22 9t-11 21z" />
    <glyph glyph-name="plus" unicode="+" 
d="M462 643v-120q0 -37 30 -37h141q38 0 38 -30q0 -5 -2 -29.5t-2 -28.5q0 -5 1.5 -31t1.5 -30q0 -29 -37 -29h-141q-30 0 -30 -37v-120q0 -18 -1 -26.5t-7 -16t-19 -7.5q-4 0 -23.5 1.5t-37.5 1.5q-19 0 -38.5 -1.5t-22.5 -1.5q-13 0 -19 8t-7 16.5t-1 25.5v120
q0 37 -30 37h-140q-38 0 -38 29q0 8 2 26.5t2 33.5q0 5 -2 30.5t-2 29.5q0 29 38 29h140q30 0 30 37v120q0 18 1 26.5t7.5 16t19.5 7.5q3 0 22 -1.5t38 -1.5q9 0 30.5 1.5t31.5 1.5q12 0 18 -8t7 -16.5t1 -25.5z" />
    <glyph glyph-name="comma" unicode="," horiz-adv-x="393" 
d="M195 219h1q82 0 122 -44t40 -114q0 -79 -61 -176q-17 -26 -24.5 -33t-20.5 -7q-5 0 -30.5 1.5t-29.5 1.5q-5 0 -26.5 -1.5t-25.5 -1.5q-18 0 -26 11.5t-8 23.5q0 21 24 40q30 26 30 45q0 16 -9 21t-46 13q-31 7 -50.5 31.5t-19.5 61.5q0 51 40 89t120 38z" />
    <glyph glyph-name="hyphen" unicode="-" horiz-adv-x="439" 
d="M79 434h282q42 0 42 -37q0 -6 -2.5 -39.5t-2.5 -38.5q0 -6 2.5 -39.5t2.5 -39.5q0 -32 -42 -32h-282q-43 0 -43 35q0 11 2.5 37.5t2.5 36.5q0 14 -2.5 44.5t-2.5 41.5q0 31 43 31z" />
    <glyph glyph-name="period" unicode="." horiz-adv-x="393" 
d="M198 221h1q12 0 22 -0.5t31.5 -3.5t38 -10.5t33.5 -19t26.5 -32.5t9.5 -48q0 -35 -16.5 -59.5t-43.5 -35.5t-52 -15.5t-52 -4.5t-51.5 4.5t-51.5 15.5t-43 35t-16 59q0 36 18 61t47.5 35.5t52.5 14.5t46 4z" />
    <glyph glyph-name="slash" unicode="/" horiz-adv-x="549" 
d="M28 -11v1q0 7 6 25l274 751q11 31 24.5 41t34.5 10q5 0 30 -1t29 -1q5 0 31.5 1t30.5 1q33 0 33 -30q0 -12 -5 -24l-276 -765q-13 -38 -43 -38q-6 0 -35.5 1t-34.5 1t-32.5 -1t-32.5 -1q-34 0 -34 29z" />
    <glyph glyph-name="zero" unicode="0" 
d="M374 801h1q186 0 271.5 -108.5t85.5 -302.5q0 -412 -358 -412q-190 0 -274 107t-84 304q0 412 358 412zM372 578h-1q-35 0 -48 -47t-13 -140q0 -95 15 -137.5t50 -42.5q19 0 31.5 11t22 54t9.5 120q0 102 -14 142t-52 40z" />
    <glyph glyph-name="one" unicode="1" 
d="M541 740v-573q0 -33 1.5 -51t3.5 -24t8 -15q17 -27 17 -42q0 -16 -9.5 -29t-30.5 -13q-4 0 -52.5 3.5t-77.5 3.5q-24 0 -70.5 -3.5t-66.5 -3.5q-17 0 -27 9t-12 17t-2 16q0 16 17 42q9 13 11 28t2 62v279q0 45 -30 45q-4 0 -21 -1.5t-20 -1.5q-41 0 -41 41q0 6 2 36t2 35
q0 7 -2 40.5t-2 38.5q0 42 51 42q54 0 76 2q79 8 193 75q27 16 44 16q25 0 30.5 -14t5.5 -60z" />
    <glyph glyph-name="two" unicode="2" 
d="M177 789h1q13 0 27 -7.5t21 -7.5q4 0 54 13.5t97 13.5q132 0 218.5 -76t86.5 -207q0 -70 -31 -129.5t-92 -82.5q-21 -8 -52.5 -17.5t-54 -16.5t-30.5 -12q-19 -12 -19 -23q0 -7 10 -9t41 -2q102 0 133 2q14 1 27 2l19.5 1.5t11.5 0.5q18 0 29.5 -9.5t11.5 -25.5
q0 -7 -11 -39.5t-15 -52.5q-14 -75 -19 -87q-11 -31 -49 -31q-6 0 -90 7q-96 6 -250 6q-31 0 -103 -3q-50 -4 -61 -4q-24 0 -37.5 16.5t-13.5 41.5q0 20 11 89t23 112q29 100 85 156t171 83q40 9 53 16t13 25q0 37 -54 37q-67 0 -136 -37q-49 -26 -66 -26q-16 0 -27.5 10
t-11.5 26q0 7 9 36.5t11 41.5q11 57 15 117q2 31 15 42q12 10 29 10z" />
    <glyph glyph-name="three" unicode="3" 
d="M159 796h1q12 0 30 -10q13 -8 24 -8q14 0 67 12q48 11 104 11q125 0 205 -57t80 -178q0 -113 -83 -153q-13 -7 -13 -14q0 -2 1.5 -4t4.5 -3.5t6 -2.5t8 -3t9 -4q36 -16 61 -57t25 -95q0 -61 -30 -112t-78 -82q-52 -33 -108 -45.5t-150 -12.5q-82 0 -149.5 13t-84.5 27
q-12 10 -14 31q-1 13 -3.5 49t-5.5 56q-2 8 -8 30.5t-6 30.5q0 13 10 23.5t24 10.5q2 0 78 -19.5t131 -19.5q95 0 95 50q0 52 -88 52q-29 0 -67.5 -6t-42.5 -6q-32 0 -32 35q0 14 1 41t1 40q0 8 -1 23t-1 22q0 13 9 23.5t27 10.5q11 0 44.5 -5.5t55.5 -5.5q80 0 80 42
q0 46 -76 46q-64 0 -130 -22q-53 -18 -62 -18q-13 0 -23 9t-10 23q0 10 19 86q10 45 14 82q4 31 10 43q11 21 41 21z" />
    <glyph glyph-name="four" unicode="4" 
d="M622 733v-307q0 -17 1 -25t8 -15.5t22 -7.5q2 0 18.5 1.5t18.5 1.5q15 0 27 -9t12 -30q0 -6 -2 -39.5t-2 -38.5q0 -6 2 -37.5t2 -36.5q0 -40 -42 -40q-3 0 -19 1.5t-19 1.5q-27 0 -27 -28v-18q0 -10 11 -54q2 -8 2 -17q0 -21 -12.5 -32t-27.5 -11q-3 0 -17 1.5t-38.5 3.5
t-54.5 2q-39 0 -71.5 -3.5t-40.5 -3.5q-46 0 -46 47q0 9 8 33q5 14 5 30v21q0 22 -8.5 26t-57.5 4h-179q-16 0 -25 1t-21.5 4t-18.5 12t-6 24q0 2 1 32t1 48q0 36 -4 63l-3 26q0 14 27 55q19 29 113.5 163t126.5 176q21 28 49 28q19 0 66.5 -3.5t71.5 -3.5q17 0 52 3.5
t53 3.5q16 0 25.5 -5t13 -14.5t4.5 -16t1 -17.5zM365 407v94q0 30 -13 30q-10 0 -22 -17l-70 -101q-12 -17 -12 -26q0 -18 36 -18h46q20 0 27.5 7t7.5 31z" />
    <glyph glyph-name="five" unicode="5" 
d="M372 519v-7q0 -15 11.5 -24.5t31.5 -9.5q9 0 33 1.5t35 1.5q92 0 153.5 -59t61.5 -165q0 -74 -28.5 -129.5t-79 -87.5t-110.5 -47t-131 -15q-55 0 -136 8t-106 19q-23 11 -26 34q-2 18 -2 29q0 46 -15 102q-4 16 -4 30q0 6 2 13.5t11 15t24 7.5q12 0 79 -10
q70 -11 121 -11q100 0 100 51q0 52 -106 52q-47 0 -101 -10q-52 -10 -67 -10q-14 0 -27.5 10t-13.5 30q0 5 2.5 35t2.5 43q0 12 1.5 60t1.5 78q0 84 -2 108.5t-9 42.5q-8 20 -8 31q0 26 17 38.5t35 12.5q3 0 29 -2q24 -2 46 -2h298q31 0 53 9q24 8 31 8q20 0 30.5 -12
t12 -25t2.5 -41q2 -47 19 -117q7 -28 7 -36q0 -13 -9 -25.5t-25 -12.5q-3 0 -58 11q-84 15 -111 15h-14q-62 0 -62 -38z" />
    <glyph glyph-name="six" unicode="6" 
d="M40 370v1q0 91 19 166.5t60 136t112 94t167 33.5q33 0 94 -7q11 -2 23.5 -4t19 -3t8.5 -1q12 0 30 9q10 5 25 5q22 0 32.5 -10t12.5 -39q4 -56 16 -112q12 -51 12 -60q0 -16 -9.5 -26t-25.5 -10t-53 12q-76 24 -125 24q-34 0 -58 -7t-35.5 -18t-16.5 -20.5t-5 -18.5
q0 -11 6.5 -18t16.5 -7q4 0 42 8t69 8q40 0 79.5 -12t77.5 -38t61.5 -75t23.5 -114q0 -144 -89 -216.5t-236 -72.5q-174 0 -264 106t-90 286zM404 339h-1q-30 0 -49.5 -17.5t-19.5 -47.5t20 -47t51 -17q23 0 38 8.5t21 21t8 20.5t2 15q0 25 -17 44.5t-53 19.5z" />
    <glyph glyph-name="seven" unicode="7" 
d="M374 548h-81q-69 0 -101 -25q-34 -27 -44 -33t-25 -6q-37 0 -37 32q0 8 6 31t13.5 48.5t8.5 29.5q7 28 18 125q1 10 2.5 15.5t6 16t14.5 16t25 5.5q3 0 9 -1t18.5 -2.5t24.5 -3.5q70 -7 151 -7h219q17 0 27 -1.5t21.5 -11.5t11.5 -30q0 -4 -1.5 -21t-3 -48t-1.5 -69
q0 -43 3 -82t3 -43q0 -19 -9 -28.5t-61 -43.5q-46 -29 -69 -76q-31 -64 -31 -170q0 -51 6 -86q3 -20 3 -40q0 -21 -13.5 -33.5t-37.5 -12.5q-2 0 -39.5 3.5t-82.5 3.5t-94.5 -3.5t-56.5 -3.5q-40 0 -40 42q0 67 35 182q63 209 193 288q29 18 29 29q0 14 -20 14z" />
    <glyph glyph-name="eight" unicode="8" 
d="M382 801h1q153 0 240 -70q84 -67 84 -173q0 -98 -79 -150q-10 -7 -10 -13q0 -9 13 -14q31 -13 60.5 -54.5t29.5 -104.5q0 -53 -23.5 -98.5t-59.5 -74.5q-91 -71 -256 -71q-139 0 -225 45q-65 33 -97 91t-32 117q0 110 98 158q14 7 14 16q0 6 -9 12q-81 50 -81 137
q0 104 78 173q49 43 107 58.5t147 15.5zM379 577h-1q-7 0 -14.5 -1t-21.5 -5t-23 -16t-9 -30q0 -30 22 -42t47 -12q29 0 48 13.5t19 41.5q0 51 -67 51zM378 325h-1q-39 0 -56.5 -18t-17.5 -41q0 -24 18.5 -39.5t54.5 -15.5q70 0 70 56q0 24 -16.5 41t-51.5 17z" />
    <glyph glyph-name="nine" unicode="9" 
d="M348 801h1q186 0 273 -106t87 -288q0 -429 -381 -429q-52 0 -114.5 9t-95.5 19q-33 11 -42.5 24t-9.5 39q0 64 -7 99q-7 42 -7 51q0 16 11.5 26.5t25.5 10.5q9 0 79 -24q52 -18 132 -18q127 0 127 57q0 27 -26 27q-8 0 -59 -8q-16 -3 -43 -3q-119 0 -194.5 59t-75.5 177
q0 52 18 100t54.5 88.5t100 65t146.5 24.5zM350 581h-1q-37 0 -52.5 -19.5t-15.5 -43.5q0 -26 18 -45.5t54 -19.5q32 0 50 18t18 49q0 29 -20.5 45t-50.5 16z" />
    <glyph glyph-name="colon" unicode=":" horiz-adv-x="393" 
d="M198 221h1q12 0 22 -0.5t31.5 -3.5t38 -10.5t33.5 -19t26.5 -32.5t9.5 -48q0 -35 -16.5 -59.5t-43.5 -35.5t-52 -15.5t-52 -4.5t-51.5 4.5t-51.5 15.5t-43 35t-16 59q0 36 18 61t47.5 35.5t52.5 14.5t46 4zM198 635h1q12 0 22 -0.5t31.5 -3.5t38 -10.5t33.5 -19t26.5 -32
t9.5 -47.5q0 -36 -16.5 -60.5t-44 -35.5t-52 -15t-51.5 -4q-26 0 -50 4t-51.5 15t-44 35.5t-16.5 59.5q0 34 16.5 58.5t43.5 35.5t52 15.5t52 4.5z" />
    <glyph glyph-name="semicolon" unicode=";" horiz-adv-x="393" 
d="M200 635h1q12 0 22 -0.5t31.5 -3.5t38 -10.5t33.5 -19t26.5 -32t9.5 -47.5q0 -36 -16.5 -60.5t-43.5 -35.5t-51.5 -15t-52.5 -4q-26 0 -50.5 4.5t-51.5 15t-43.5 35t-16.5 59.5q0 34 16.5 58.5t43.5 35.5t52 15.5t52 4.5zM195 218h1q83 0 122 -45t39 -113q0 -80 -61 -176
q-16 -25 -24 -32.5t-21 -7.5q-5 0 -30.5 1.5t-29.5 1.5t-26 -1.5t-26 -1.5q-18 0 -26 11.5t-8 23.5q0 21 24 40q30 26 30 45q0 16 -9 21t-46 13q-31 7 -50.5 32t-19.5 62q0 50 40.5 88t120.5 38z" />
    <glyph glyph-name="less" unicode="&#x3c;" horiz-adv-x="585" 
d="M546 794v-254l-237 -144l235 -145l2 -252l-507 292v212z" />
    <glyph glyph-name="equal" unicode="=" 
d="M633 338h-517q-38 0 -38 29q0 7 2 26t2 33q0 5 -2 31t-2 30q0 28 38 28h517q38 0 38 -30q0 -5 -2 -30t-2 -29t2 -30t2 -30q0 -28 -38 -28zM633 110h-517q-38 0 -38 29q0 8 2 26.5t2 33.5q0 5 -2 30.5t-2 29.5q0 29 38 29h517q38 0 38 -30q0 -5 -2 -30t-2 -29
q0 -5 2 -30.5t2 -29.5q0 -29 -38 -29z" />
    <glyph glyph-name="greater" unicode="&#x3e;" horiz-adv-x="585" 
d="M39 794l507 -292v-212l-507 -291v254l237 144l-236 145z" />
    <glyph glyph-name="question" unicode="?" horiz-adv-x="592" 
d="M412 319v-1q0 -2 1.5 -17t1.5 -18q0 -11 -8.5 -19.5t-19.5 -8.5q-1 0 -44.5 8t-69.5 8q-29 0 -66 -8t-47 -8q-20 0 -26 16.5t-6 62.5q0 81 21.5 115.5t78.5 62.5q31 17 31 33q0 15 -14 24.5t-33 9.5q-38 0 -83 -26q-29 -16 -43 -16q-20 0 -34 11.5t-14 24.5q0 11 15 58
q13 40 19 116q3 21 8 30q11 18 38 18q11 0 25 -6t18 -6q10 0 40 8q36 9 85 9q170 0 241 -87q49 -60 49 -144q0 -67 -27 -104.5t-89 -76.5q-27 -17 -37.5 -30t-10.5 -39zM274 221h1q12 0 22 -0.5t31.5 -3.5t38 -10.5t33.5 -19t26.5 -32.5t9.5 -48q0 -36 -16.5 -60.5
t-44 -35.5t-52 -15t-51.5 -4q-26 0 -50.5 4.5t-51.5 15.5t-43.5 35t-16.5 59q0 36 18 60.5t46.5 35.5t52 15t47.5 4z" />
    <glyph glyph-name="at" unicode="@" horiz-adv-x="813" 
d="M804 436v-1q0 -103 -67 -166t-153 -63q-65 0 -103.5 33t-38.5 78q0 26 7 61l7 33q1 5 2.5 12t2.5 12t1 8q0 18 -42 18q-28 0 -45 -23.5t-17 -54.5q0 -49 37 -67q13 -7 18.5 -10.5t10.5 -13.5t5 -27q0 -28 -14 -43t-37 -15q-56 0 -104.5 50t-48.5 125q0 20 4.5 41.5
t18.5 48.5t36.5 48t62.5 35.5t91 14.5q78 0 145 -30q26 -11 26 -33q0 -10 -4 -30l-28 -114q-5 -23 -5 -28q0 -19 30 -19q32 0 52 34t20 79q0 76 -71 140t-184 64q-120 0 -193 -73.5t-73 -174.5q0 -41 15 -82t45.5 -78.5t84 -60.5t121.5 -23q87 0 177 38q30 13 37 13
q20 0 35 -20t15 -43q0 -36 -44 -59q-36 -19 -97 -34t-127 -15q-173 0 -283 105t-110 259q0 150 108 259t294 109q90 0 163.5 -27.5t120 -73t71.5 -101.5t25 -115z" />
    <glyph glyph-name="A" unicode="A" horiz-adv-x="883" 
d="M464 149h-114q-52 0 -57 -30q-2 -12 -2 -16q0 -10 18 -40q7 -11 7 -28t-10 -29.5t-25 -12.5q-6 0 -42.5 3.5t-66.5 3.5q-43 0 -88.5 -3.5t-50.5 -3.5q-18 0 -28 10t-12 17.5t-2 14.5q0 12 4.5 20t23.5 32q12 14 31 93q0 3 0.5 4.5t1 4.5t1.5 5q37 156 109.5 361
t114.5 226q10 5 23 5q5 0 22.5 -2t53 -3.5t84.5 -1.5q42 0 88.5 3.5t51.5 3.5q11 0 19 -3t21.5 -21t28.5 -52q86 -196 179 -565q12 -46 31 -73q15 -21 15 -38q0 -41 -39 -41q-7 0 -60.5 3.5t-106.5 3.5t-94 -3.5t-44 -3.5q-19 0 -30 11t-12.5 19.5t-1.5 14.5q0 15 11 30
q15 21 15 37t-6 25.5t-18 13t-20.5 4.5t-23.5 1zM389 353h53q40 0 40 29q0 42 -39 147q-14 35 -27 35q-9 0 -16 -11t-18 -38q-39 -96 -39 -134q0 -13 8 -19.5t16 -7.5t22 -1z" />
    <glyph glyph-name="B" unicode="B" horiz-adv-x="818" 
d="M797 227v-1q0 -29 -8 -61.5t-40 -74.5t-83 -66q-75 -35 -235 -35q-19 0 -119 6q-19 1 -47 2t-46 2t-26 1q-3 0 -63 -3q-42 -4 -58 -4q-22 0 -31 13.5t-9 27.5t18 43q8 14 10.5 29.5t2.5 60.5v445q0 49 -2 62t-11 27q-18 28 -18 43q0 42 44 42q18 0 61 -3.5t73 -3.5
q39 0 130.5 3.5t135.5 3.5q153 0 228.5 -67.5t75.5 -162.5q0 -58 -27 -96t-62 -52q-9 -3 -9 -10q0 -4 7 -8q55 -28 81.5 -66t26.5 -97zM358 558v-57q0 -26 8.5 -32t52.5 -6q35 0 57 17t22 51q0 65 -88 65q-25 0 -36.5 -5t-13.5 -11.5t-2 -21.5zM358 298v-63q0 -25 9.5 -31.5
t58.5 -6.5q36 0 58 17.5t22 52.5q0 69 -100 69q-31 0 -39.5 -7.5t-8.5 -30.5z" />
    <glyph glyph-name="C" unicode="C" horiz-adv-x="803" 
d="M688 410h-121q-27 0 -41.5 2.5t-21.5 12.5t-8 18.5t-1 30.5q0 70 -65 70q-27 0 -45.5 -13t-27 -34.5t-11.5 -40.5t-3 -40q0 -83 45.5 -113t135.5 -30q48 0 133 15t89 15q14 0 25 -9.5t11 -25.5q0 -9 -6.5 -34.5t-15 -53.5t-9.5 -33q-1 -3 -9 -50.5t-12 -55.5
q-10 -24 -67.5 -39t-107.5 -19.5t-86 -4.5q-211 0 -325 98q-122 105 -122 312q0 215 130 318q118 95 290 95q122 0 236 -45q46 -19 62 -35t16 -39q0 -2 -2 -36t-2 -54q0 -28 5 -76t5 -62q0 -21 -11 -31t-23.5 -11.5t-39.5 -1.5z" />
    <glyph glyph-name="D" unicode="D" horiz-adv-x="832" 
d="M811 396v-1q0 -91 -26.5 -162.5t-68.5 -115.5t-98.5 -73t-112 -40t-114.5 -11q-27 0 -91 3.5t-97 3.5q-11 0 -67 -3.5t-63 -3.5q-17 0 -27 9t-12 17t-2 16q0 13 18 42q8 14 10.5 29.5t2.5 60.5v445q-1 53 -3 64.5t-10 24.5q-18 28 -18 43q0 42 44 42q22 0 65.5 -3.5
t65.5 -3.5q29 0 86 3.5t85 3.5q201 0 312 -95q62 -53 91.5 -133t29.5 -162zM361 491v-198q0 -12 0.5 -17.5t4.5 -11t13 -7t25 -1.5q33 0 56 15.5t32.5 40.5t13 44.5t3.5 39.5q0 141 -107 141q-26 0 -33.5 -8.5t-7.5 -37.5z" />
    <glyph glyph-name="E" unicode="E" horiz-adv-x="742" 
d="M358 284v-35q0 -27 26 -30q19 -3 111 -3q19 0 38 1.5t34.5 3.5t29 4.5t24 5.5l17.5 5t13 4l6 2q29 12 40 12q14 0 24 -9t10 -23t-10 -38q-9 -23 -20 -73t-14 -73q-2 -15 -8 -26q-11 -19 -39 -19q-14 0 -56.5 1.5t-135.5 3.5t-229 2q-48 0 -96.5 -3.5t-49.5 -3.5
q-23 0 -32 14t-9 28q0 13 18 42q8 14 10.5 29.5t2.5 60.5v445q0 27 -0.5 41t-2.5 23.5t-3.5 12.5t-6.5 12q-18 30 -18 43q0 42 44 42q6 0 31 -2t74.5 -3.5t117.5 -1.5q116 0 191 1.5t104 3.5t34 2q27 0 35.5 -13.5t17.5 -62.5q8 -41 16 -68q14 -47 14 -52q0 -13 -10.5 -20.5
t-24.5 -7.5l-64 14q-63 13 -152 13h-79q-23 -3 -23 -34v-33q0 -20 12 -24.5t46 -4.5h76q52 0 76 9q33 13 47 13q35 0 35 -39q0 -7 -2 -41.5t-2 -40.5q0 -4 2 -29t2 -30q0 -12 -8.5 -24.5t-27.5 -12.5q-10 0 -49 14q-20 8 -73 8h-85q-29 0 -39 -6.5t-10 -29.5z" />
    <glyph glyph-name="F" unicode="F" horiz-adv-x="698" 
d="M371 153v-18q0 -38 13 -58q17 -27 17 -43q0 -15 -9 -28t-30 -13q-4 0 -52.5 3.5t-89.5 3.5q-54 0 -98 -3.5t-50 -3.5q-21 0 -30.5 13t-9.5 28q0 14 18 43q8 14 10.5 29.5t2.5 60.5v445q0 50 -2 62t-11 27q-18 29 -18 43q0 42 45 42q4 0 27 -1.5t91 -3.5t178 -2
q69 0 148 3.5t88 3.5q41 0 46 -38q16 -92 33 -146q16 -53 16 -63q0 -13 -10.5 -24t-26.5 -11q-11 0 -31.5 7.5t-65 15t-113.5 7.5h-57q-42 0 -42 -37v-29q0 -25 9.5 -32t40.5 -7h75q36 0 82 17q29 11 42 11q33 0 33 -35q0 -12 -1.5 -42t-1.5 -52q0 -38 1.5 -75t1.5 -45
q0 -41 -36 -41q-13 0 -43 14q-27 12 -78 12h-60q-26 0 -39 -8t-13 -32z" />
    <glyph glyph-name="G" unicode="G" horiz-adv-x="849" 
d="M540 444h218q19 0 29 -1.5t18.5 -10.5t8.5 -27q0 -8 -1.5 -51.5t-1.5 -50.5q0 -83 4 -135q0 -4 2 -19.5t3.5 -29.5t1.5 -18q0 -33 -48 -57q-133 -66 -303 -66q-210 0 -329.5 104.5t-119.5 312.5q0 246 176 347q102 59 258 59q67 0 173 -23q28 -6 33 -6q8 0 20 12.5
t31 12.5q18 0 29 -4.5t15.5 -15.5t6 -19t2.5 -26q0 -62 43 -168q7 -28 7 -29q0 -13 -10.5 -25t-24.5 -12q-11 0 -53.5 13.5t-50.5 15.5q-119 25 -173 25q-171 0 -171 -165q0 -67 30.5 -109t95.5 -42q89 0 89 75q0 28 -10 38.5t-43 24.5q-19 8 -19 32q0 18 9.5 26.5t20 10
t34.5 1.5z" />
    <glyph glyph-name="H" unicode="H" horiz-adv-x="847" 
d="M358 210v-43q0 -33 1.5 -51t3.5 -24t8 -15q17 -27 17 -43q0 -15 -9 -28t-31 -13q-4 0 -48 3.5t-89 3.5t-88 -3.5t-49 -3.5q-23 0 -32 13t-9 28q0 16 17 43q8 14 10.5 29.5t2.5 60.5v445q0 27 -0.5 41t-2.5 23.5t-3.5 12.5t-6.5 12q-17 27 -17 43q0 42 44 42q16 0 62 -3.5
t69 -3.5q30 0 75 3.5t64 3.5q16 0 26 -8.5t12.5 -17t2.5 -16.5q0 -18 -17 -43q-8 -12 -10.5 -26t-2.5 -63v-38q0 -41 6.5 -52t39.5 -11h37q34 0 41 12.5t7 53.5v35q0 48 -2.5 62.5t-10.5 26.5q-17 28 -17 45q0 18 11.5 29t29.5 11q11 0 53.5 -3.5t82.5 -3.5q24 0 71 3.5
t67 3.5q21 0 30 -14t9 -26q0 -18 -17 -45q-8 -14 -10 -27t-2 -62v-445q0 -49 2.5 -63t10.5 -27q17 -27 17 -43q0 -15 -9 -28t-32 -13q-5 0 -24 1.5t-53.5 3.5t-75.5 2q-36 0 -63 -2t-41.5 -3.5t-18.5 -1.5q-17 0 -27.5 12t-10.5 30q0 15 17 42q11 17 12 37q1 18 1 53l-1 42
q-1 44 -7 56.5t-36 12.5h-41q-32 0 -39 -14t-7 -54z" />
    <glyph glyph-name="I" unicode="I" horiz-adv-x="441" 
d="M409 34v-1q0 -14 -9.5 -27t-31.5 -13q-5 0 -21 1.5t-47.5 3.5t-74.5 2q-60 0 -104.5 -3.5t-46.5 -3.5q-17 0 -27.5 9t-12.5 17t-2 16q0 13 18 42q8 14 10.5 29.5t2.5 60.5v445q0 27 -0.5 41t-2.5 23.5t-3.5 12.5t-6.5 12q-18 29 -18 43q0 42 45 42q12 0 58 -3.5t80 -3.5
q52 0 97.5 3.5t55.5 3.5q17 0 27 -9t12 -17t2 -16q0 -14 -18 -43q-6 -9 -8 -15t-3.5 -23.5t-1.5 -50.5v-445q0 -49 2.5 -64t10.5 -26q18 -26 18 -43z" />
    <glyph glyph-name="J" unicode="J" horiz-adv-x="505" 
d="M114 745v1q0 40 44 40q17 0 64.5 -3.5t78.5 -3.5q29 0 79.5 3.5t68.5 3.5q16 0 26 -9t12.5 -17t2.5 -16q0 -14 -18 -43q-13 -21 -13 -81v-90q0 -64 5 -187q3 -60 3 -94q0 -170 -116 -231q-64 -34 -168 -34q-83 0 -135 21.5t-52 60.5q0 13 2.5 42.5t2.5 44.5q0 17 -2.5 47
t-2.5 39q0 19 12 29t27 10q16 0 35.5 -18.5t39.5 -18.5q40 0 40 50q0 17 -4 49q-3 24 -3 36q1 34 1 102v134q0 50 -2 62.5t-11 26.5q-17 25 -17 44z" />
    <glyph glyph-name="K" unicode="K" horiz-adv-x="861" 
d="M358 227v-84q0 -45 13 -66q17 -27 17 -43q0 -14 -9 -27.5t-32 -13.5q-3 0 -49 3.5t-88 3.5q-44 0 -85.5 -3.5t-50.5 -3.5q-42 0 -42 42q0 13 18 42q8 14 10.5 29.5t2.5 60.5v445q0 27 -0.5 41t-2.5 23.5t-3.5 12.5t-6.5 12q-18 29 -18 43q0 42 45 42q15 0 61 -3.5
t69 -3.5q44 0 86.5 3.5t53.5 3.5q17 0 27 -9.5t12 -17.5t2 -15q0 -18 -17 -43q-9 -13 -11 -28.5t-2 -60.5v-46q0 -15 0.5 -21.5t2 -14t5 -10t10.5 -2.5q20 0 50 35q25 28 44 71.5t19 68.5q0 5 -9 32q-3 9 -3 20q0 17 11.5 29t32.5 12q22 0 76 -4t81 -4q20 0 60.5 4t60.5 4
q21 0 33.5 -12t12.5 -31q0 -14 -16 -35q-13 -16 -35 -81q-15 -44 -41.5 -90.5t-51.5 -75.5q-33 -37 -33 -46q0 -13 33 -48q43 -47 75 -119.5t42 -118.5q5 -25 9.5 -34t16.5 -22q18 -18 18 -41q0 -16 -9 -27.5t-27 -11.5q-2 0 -50.5 3.5t-105.5 3.5q-45 0 -93.5 -3.5
t-50.5 -3.5q-41 0 -41 42q0 10 5 24.5t5 28.5q0 51 -47 123q-42 63 -68 63q-14 0 -18 -10.5t-4 -36.5z" />
    <glyph glyph-name="L" unicode="L" horiz-adv-x="569" 
d="M32 744v1q0 41 45 41q13 0 61.5 -3.5t80.5 -3.5q34 0 86 3.5t63 3.5q22 0 31.5 -13.5t9.5 -28.5q0 -14 -18 -43q-13 -21 -13 -85v-311q0 -44 7 -54t43 -10q42 0 67 14.5t41 14.5q18 0 28 -11t10 -24q0 -7 -4.5 -23.5t-11.5 -39.5t-9 -31q-12 -42 -18 -84q-5 -35 -10 -43
q-11 -21 -40 -21q-3 0 -23.5 1.5t-78 3.5t-150.5 2q-60 0 -105 -3.5t-50 -3.5q-42 0 -42 42q0 13 18 42q8 14 10.5 29.5t2.5 60.5v445q0 50 -2 62t-11 27q-18 29 -18 43z" />
    <glyph glyph-name="M" unicode="M" horiz-adv-x="1016" 
d="M328 34v-1q0 -40 -44 -40q-16 0 -49 3.5t-50 3.5q-34 0 -71 -3.5t-42 -3.5q-18 0 -29 12t-11 30q0 13 18 42q5 9 7.5 15.5t4 24t1.5 50.5v445q0 48 -2 61t-11 28q-18 30 -18 43q0 9 3 17.5t14 16.5t29 8q27 0 80.5 -3.5t80.5 -3.5q22 0 61.5 3.5t45.5 3.5q36 0 62 -57
q47 -100 83 -179q14 -30 29 -30q12 0 25 30q58 128 86 192q20 44 54 44q15 0 58 -3.5t63 -3.5q23 0 68.5 3.5t67.5 3.5q20 0 30.5 -12.5t10.5 -28.5q0 -15 -18 -43q-8 -13 -10 -27.5t-2 -62.5v-445q0 -50 2 -62.5t11 -27.5q17 -27 17 -42q0 -18 -11 -30t-30 -12
q-4 0 -51 3.5t-93 3.5q-44 0 -85.5 -3.5t-42.5 -3.5q-21 0 -30.5 14t-9.5 31q0 14 17 42q5 9 7.5 15.5t4 24t1.5 50.5v108q0 26 1 46t1 22q0 11 -10 11q-13 0 -29 -35l-91 -200q-20 -46 -55 -46q-32 0 -53 46l-93 211q-9 20 -22 20q-15 0 -15 -13q0 -1 1 -7.5t1.5 -20.5
t0.5 -35v-110q0 -33 1.5 -51t3.5 -24t8 -15q18 -29 18 -43z" />
    <glyph glyph-name="N" unicode="N" horiz-adv-x="895" 
d="M331 30v-1q0 -13 -10.5 -24.5t-32.5 -11.5q-9 0 -53.5 3.5t-67.5 3.5q-15 0 -49.5 -3.5t-45.5 -3.5q-18 0 -29 10.5t-11 27.5q0 16 18 45q13 21 13 91v445q0 48 -2 62t-11 28q-18 30 -18 47q0 37 39 37q19 0 76 -3.5t85 -3.5q31 0 69 3.5t41 3.5q9 0 16.5 -3.5t15.5 -14
t9.5 -13t9.5 -14.5l162 -270q16 -27 28 -27q11 0 11 13q0 3 -1.5 19.5t-1.5 18.5v117q0 70 -12 90q-18 28 -18 47q0 16 11 26.5t27 10.5q6 0 46.5 -3.5t68.5 -3.5q20 0 58 3.5t51 3.5q17 0 28.5 -10.5t11.5 -27.5t-18 -46q-12 -20 -12 -90v-445q0 -50 2 -63.5t10 -27.5
q18 -28 18 -46q0 -14 -10 -25.5t-33 -11.5q-22 0 -66 3.5t-67 3.5q-49 0 -90.5 -3.5t-44.5 -3.5q-28 0 -57 49l-156 264q-16 27 -29 27q-11 0 -11 -13q0 -2 0.5 -19.5t0.5 -42.5v-91q0 -48 2.5 -63t10.5 -28q18 -29 18 -46z" />
    <glyph glyph-name="O" unicode="O" horiz-adv-x="874" 
d="M431 801h1q201 0 312 -113q108 -108 108 -294q0 -138 -56 -233.5t-148 -139t-213 -43.5q-106 0 -187.5 34t-129.5 92t-72 129t-24 152q0 96 34 183t102 144q108 89 273 89zM437 552h-1q-82 0 -82 -158t82 -158q84 0 84 158t-83 158z" />
    <glyph glyph-name="P" unicode="P" horiz-adv-x="799" 
d="M378 146v-20q0 -23 13 -49q18 -27 18 -42q0 -42 -41 -42q-4 0 -51 3.5t-94 3.5q-44 0 -95 -3.5t-54 -3.5q-42 0 -42 42q0 13 18 42q8 14 10.5 29.5t2.5 60.5v445q-1 53 -3 64.5t-10 24.5q-18 29 -18 42q0 43 45 43q17 0 61 -3.5t70 -3.5q34 0 105.5 3.5t111.5 3.5
q103 0 177 -25t114 -69t58 -94.5t18 -111.5q0 -131 -81 -220t-237 -89q-44 2 -67 2q-18 0 -23.5 -7.5t-5.5 -25.5zM355 529v-107q0 -8 1 -13t10 -10t27 -5q105 0 105 89q0 83 -100 83q-29 0 -36 -7t-7 -30z" />
    <glyph glyph-name="Q" unicode="Q" horiz-adv-x="874" 
d="M443 801h1q154 0 261 -78q146 -107 146 -333q0 -210 -130 -321q-27 -23 -27 -41q0 -12 8.5 -21.5t21.5 -9.5q11 0 34 14q16 10 36 10q25 0 49 -17t24 -60q0 -41 -32.5 -74t-103.5 -33q-69 0 -107.5 30t-55.5 99q-6 23 -24 23q-2 0 -6.5 -1t-12 -2t-15.5 -2q-34 -6 -77 -6
q-193 0 -302 112t-109 293q0 193 108 305q109 113 313 113zM436 552h-1q-81 0 -81 -158t82 -158q83 0 83 158t-83 158z" />
    <glyph glyph-name="R" unicode="R" horiz-adv-x="839" 
d="M361 222v-75q2 -37 3.5 -47t9.5 -23q17 -27 17 -43q0 -8 -2.5 -16.5t-12 -16.5t-25.5 -8q-2 0 -51 3.5t-89 3.5q-27 0 -72.5 -3.5t-64.5 -3.5q-24 0 -33 14t-9 28q0 13 18 42q8 14 10.5 29.5t2.5 60.5v445q0 48 -2 61.5t-11 27.5q-18 29 -18 43q0 42 45 42q11 0 56 -3.5
t79 -3.5q31 0 91.5 3.5t91.5 3.5q151 0 229 -26q79 -26 127.5 -92.5t48.5 -156.5q0 -115 -80 -181q-25 -21 -25 -25q0 -5 23 -30q48 -51 86 -153q10 -27 29 -55q11 -17 11 -33q0 -41 -57 -41q-8 0 -62.5 3.5t-81.5 3.5q-43 0 -78 -3.5t-37 -3.5q-13 0 -25 9t-12 30q0 4 2 22
t2 22q0 21 -25 67t-53 76q-23 25 -38 25q-18 0 -18 -22zM361 533v-87q0 -18 7 -26.5t14 -10t21 -1.5q102 0 102 79q0 81 -94 81q-30 0 -40 -6.5t-10 -28.5z" />
    <glyph glyph-name="S" unicode="S" horiz-adv-x="703" 
d="M31 533v1q0 90 46.5 151.5t117 88t159.5 26.5q36 0 83.5 -7t81 -14.5t37.5 -7.5q6 0 19 6t24 6q20 0 35.5 -11.5t15.5 -28.5q0 -1 -1.5 -19t-1.5 -30q0 -32 13.5 -86t13.5 -55q0 -9 -7.5 -20.5t-23.5 -11.5q-8 0 -78.5 24.5t-115.5 24.5q-53 0 -53 -45q0 -22 16 -36.5
t61 -24.5l44 -11t43.5 -13.5t43.5 -19.5t36.5 -27t32 -37t19.5 -49t8 -63q0 -54 -18.5 -99t-50 -75.5t-74.5 -51.5t-90.5 -30.5t-98.5 -9.5q-24 0 -56.5 3.5t-62 8.5t-55.5 10.5t-42 9.5l-17 3q-7 0 -23.5 -9t-31.5 -9q-33 0 -41 18t-8 59q0 66 -22 137q-6 27 -6 33
q0 14 10.5 25t23.5 11q12 0 20 -4q9 -4 28 -14t26 -13t22 -10.5t21 -10t18.5 -8t18.5 -7t16 -4.5t17 -4t15.5 -2t17.5 -1q23 0 37.5 12t14.5 34q0 24 -19.5 38.5t-65.5 26.5q-59 16 -99 40t-67 70.5t-27 111.5z" />
    <glyph glyph-name="T" unicode="T" horiz-adv-x="618" 
d="M470 481v-314q2 -53 3.5 -65t9.5 -25q18 -29 18 -43t-9 -27.5t-32 -13.5q-1 0 -41 3.5t-102 3.5q-60 0 -104.5 -3.5t-46.5 -3.5q-24 0 -33 13.5t-9 28.5q0 13 18 42q8 14 10.5 29.5t2.5 60.5v314q0 13 -0.5 19.5t-4 14.5t-12 11t-22.5 3q-25 0 -50 -16.5t-36 -16.5
q-17 0 -29 11.5t-12 25.5q0 11 6 29q19 61 31 171q3 29 15.5 41t40.5 12q8 0 88.5 -4t154.5 -4q92 0 155 4t72 4q18 0 27.5 -3.5t15.5 -17t8 -25t6 -42.5q8 -68 17 -114q1 -2 5.5 -25t4.5 -28q0 -17 -11 -27.5t-26 -10.5q-9 0 -40 15t-58 15q-20 0 -25.5 -9t-5.5 -33z" />
    <glyph glyph-name="U" unicode="U" horiz-adv-x="790" 
d="M22 744v1q0 41 45 41q12 0 57 -3.5t86 -3.5q49 0 97 3.5t60 3.5q16 0 26 -8.5t12.5 -17t2.5 -16.5q0 -15 -18 -43q-6 -9 -8 -15t-3.5 -23.5t-1.5 -50.5v-273q0 -3 -1 -23t-1 -23q0 -27 16 -42t43 -15q66 0 66 48q0 4 -1.5 23.5t-1.5 22.5v282q0 49 -2.5 63t-10.5 26
q-17 28 -17 43q0 42 44 42q16 0 57 -3.5t53 -3.5q21 0 60.5 3.5t51.5 3.5q23 0 32 -13.5t9 -28.5q0 -18 -17 -43q-13 -19 -13 -65v-64q0 -87 2 -114q8 -120 8 -179q0 -164 -101 -236q-91 -65 -240 -65q-182 0 -280 82q-85 71 -85 213q0 18 4 82q2 41 2 144q0 99 -3 164
q-1 25 -18 49q-11 16 -11 32z" />
    <glyph glyph-name="V" unicode="V" horiz-adv-x="775" 
d="M-16 741v1q0 19 12.5 31.5t31.5 12.5q7 0 65 -3.5t121 -3.5q27 0 118 7q20 0 32 -11.5t12 -31.5q0 -17 -10 -37q-11 -22 -11 -40q0 -32 13.5 -100.5t26.5 -113.5q11 -38 17.5 -50.5t15.5 -12.5q14 0 29 63q13 51 23 125t10 92q0 16 -14 39q-10 17 -10 35q0 17 11 30
t29 13q4 0 48.5 -3.5t83.5 -3.5q19 0 57 3.5t53 3.5q43 0 43 -44q0 -14 -19 -39q-14 -18 -19.5 -37.5t-22.5 -106.5q-11 -55 -50 -193.5t-70 -213.5q-52 -126 -76 -146q-15 -13 -36 -13q-4 0 -39.5 3.5t-64.5 3.5q-31 0 -71 -3.5t-45 -3.5q-14 0 -22.5 4.5t-28 34.5
t-46.5 91q-39 89 -88.5 262t-61.5 237q-6 36 -11.5 48t-20.5 33t-15 38z" />
    <glyph glyph-name="W" unicode="W" horiz-adv-x="1185" 
d="M1201 747v-1q0 -15 -4.5 -24.5t-22.5 -34.5t-32 -122q-6 -43 -41.5 -170.5t-74.5 -226.5q-39 -98 -72 -147q-18 -27 -38 -27q-16 0 -52.5 3t-55.5 3q-26 0 -57.5 -3t-41.5 -3q-12 0 -20 4t-21 24.5t-27 61.5q-3 8 -13 40.5t-19 61t-10 30.5q-3 4 -9 4q-4 0 -6 -3t-6 -16
q-1 -4 -2 -7q-28 -94 -57 -150q-15 -30 -26 -40t-27 -10q-7 0 -39.5 3t-55.5 3q-17 0 -49.5 -3t-48.5 -3q-13 0 -20.5 3.5t-22.5 26t-36 70.5q-90 200 -155 498q-12 55 -18 73t-18 34q-19 25 -19 47q0 40 40 40q9 0 72.5 -3.5t95.5 -3.5t78 3.5t63 3.5q15 0 28 -9.5
t13 -28.5q0 -12 -3 -22q-18 -42 -18 -62q0 -86 42 -237q6 -24 11.5 -35t9 -13t10.5 -2q6 0 10 3t13 24.5t20 63.5q29 109 29 192q0 25 -12 45q-14 22 -14 40q0 19 10 30t26 11q11 0 57 -3.5t77 -3.5q24 0 59 3.5t48 3.5q37 0 37 -43q0 -14 -14 -44q-7 -15 -7 -36
q0 -29 12 -105t32 -142q6 -18 12 -27.5t9 -10.5t8 -1q18 0 31 51q13 47 22.5 101.5t13 85.5t3.5 42q0 21 -12 47q-12 25 -12 38q0 20 9.5 32t26.5 12q9 0 52 -3.5t77 -3.5q26 0 66 3.5t49 3.5q17 0 27 -10.5t10 -28.5z" />
    <glyph glyph-name="X" unicode="X" horiz-adv-x="822" 
d="M-2 745v1q0 20 12.5 30t28.5 10q20 0 77.5 -3.5t87.5 -3.5q27 0 80.5 3.5t80.5 3.5q22 0 32 -11.5t10 -26.5q0 -10 -7 -26q-9 -22 -9 -30q0 -29 24 -85t46 -56q15 0 25 24q5 8 17.5 48.5t12.5 62.5q0 10 -13 38q-3 7 -3 21q0 16 8.5 28.5t23.5 12.5q10 0 60 -3.5t76 -3.5
q21 0 58 3.5t44 3.5q16 0 27 -11t11 -27t-17 -38q-10 -13 -19 -54q-33 -145 -107 -225q-16 -17 -16 -26q0 -10 20 -30q28 -28 58.5 -85t45.5 -110q20 -77 31 -91q3 -4 10 -12.5t10 -13t6 -12.5t3 -16q0 -42 -42 -42q-6 0 -28.5 1.5t-62 3.5t-85.5 2q-55 0 -91 -2t-52 -3.5
t-22 -1.5q-19 0 -29.5 11.5t-10.5 28.5q0 4 8 32q5 17 5 26q0 42 -39 120q-14 30 -32 30q-9 0 -16 -7t-16 -30q-7 -19 -16.5 -56.5t-9.5 -52.5q0 -9 14 -46q2 -7 2 -19q0 -37 -34 -37q-4 0 -41 3.5t-73 3.5q-51 0 -91 -3.5t-42 -3.5q-21 0 -30.5 12.5t-9.5 27.5
q0 9 4.5 18.5t6 11.5t13.5 15q17 20 30 79q26 122 104 206q26 29 26 36q0 9 -20 29q-33 33 -65 93.5t-45 113.5q-12 52 -28 71q-17 24 -17 39z" />
    <glyph glyph-name="Y" unicode="Y" horiz-adv-x="790" 
d="M574 34v-1q0 -7 -2.5 -15t-12.5 -16.5t-26 -8.5q-2 0 -49 3.5t-91 3.5q-50 0 -95.5 -3.5t-52.5 -3.5q-22 0 -31.5 13t-9.5 28q0 17 17 43q8 13 10.5 27t2.5 63v40q0 27 -9.5 42t-62.5 69q-101 105 -148 347q-4 21 -9 30q-21 33 -21 49q0 18 11 30t32 12q7 0 56.5 -3.5
t108.5 -3.5q51 0 95.5 3.5t54.5 3.5q18 0 30.5 -10.5t12.5 -30.5q0 -16 -13 -39q-12 -24 -12 -43q0 -47 23 -115.5t44 -68.5t45 69t24 117q0 10 -2 19t-4 13.5t-6.5 12.5t-5.5 10q-4 8 -4 20q0 20 13 33t28 13q3 0 51 -3.5t108 -3.5q31 0 64.5 3.5t35.5 3.5q12 0 22.5 -9
t10.5 -30q0 -17 -17 -41q-9 -12 -19 -54q-7 -31 -23 -80.5t-55.5 -132t-83.5 -127.5q-27 -28 -55 -59q-11 -13 -11 -37v-49q2 -53 3.5 -65t9.5 -25q18 -27 18 -43z" />
    <glyph glyph-name="Z" unicode="Z" horiz-adv-x="657" 
d="M623 753v-1q0 -12 -6 -40t-30 -96.5t-62 -147.5q-62 -130 -64 -134q-9 -19 -9 -36q0 -33 46 -33q37 0 65 18.5t45 18.5q16 0 25.5 -8t10.5 -13t1 -9q0 -13 -31 -97q-7 -19 -19 -61q-13 -44 -17 -63q-6 -33 -17 -45.5t-39 -12.5q-4 0 -91.5 3.5t-142.5 3.5
q-72 0 -123.5 -2t-76.5 -3.5t-32 -1.5q-40 0 -40 37q0 52 84 237q43 94 83 162q31 52 31 73q0 30 -45 30q-30 0 -48 -18q-19 -19 -41 -19q-8 0 -16 2t-16 11t-8 24q0 7 10.5 38.5t23 68t14.5 45.5q1 3 8 35.5t9 38.5q10 28 50 28q6 0 79 -3.5t155 -3.5q59 0 123.5 3.5
t71.5 3.5q39 0 39 -33z" />
    <glyph glyph-name="bracketleft" unicode="[" horiz-adv-x="497" 
d="M347 615v-609q0 -21 1.5 -31.5t9 -20t23.5 -9.5q3 0 16 1.5t15 1.5q17 0 26.5 -7.5t9.5 -19.5q0 -3 -1.5 -16t-1.5 -15q0 -4 1.5 -24.5t1.5 -23.5q0 -33 -33 -33q-6 0 -26 1.5t-58.5 2.5t-88.5 1q-34 0 -65.5 -2.5t-39.5 -2.5q-40 0 -40 45q0 8 3.5 46.5t3.5 45.5v741
q0 8 -3.5 47.5t-3.5 45.5q0 43 40 43q7 0 43.5 -2.5t66.5 -2.5q38 0 98 2.5t71 2.5q32 0 32 -32q0 -4 -1.5 -25t-1.5 -24q0 -2 1.5 -15t1.5 -16q0 -11 -9.5 -19t-25.5 -8q-3 0 -16 1.5t-15 1.5q-24 0 -29.5 -14.5t-5.5 -57.5z" />
    <glyph glyph-name="backslash" unicode="\" horiz-adv-x="549" 
d="M247 766l274 -751q7 -20 7 -27q0 -5 -1.5 -10t-10 -11.5t-22.5 -6.5q-5 0 -33 1t-32 1q-6 0 -36 -1t-35 -1q-29 0 -42 38l-277 765q-4 12 -4 25q0 12 8 20.5t24 8.5q5 0 31.5 -1t30.5 -1q5 0 31 1t30 1q12 0 19 -1.5t18 -13.5t20 -36z" />
    <glyph glyph-name="bracketright" unicode="]" horiz-adv-x="497" 
d="M149 17v623q0 47 -34 47q-3 0 -16 -1.5t-15 -1.5q-17 0 -26.5 7.5t-9.5 19.5q0 3 1.5 16t1.5 15q0 4 -1.5 24.5t-1.5 23.5q0 33 33 33q6 0 26 -1.5t57 -2.5t85 -1q37 0 70 2.5t40 2.5q40 0 40 -45q0 -8 -3.5 -46.5t-3.5 -45.5v-741q0 -8 3.5 -47.5t3.5 -45.5
q0 -43 -40 -43q-7 0 -43.5 2.5t-66.5 2.5q-38 0 -98 -2.5t-71 -2.5q-32 0 -32 32q0 4 1.5 25t1.5 24q0 2 -1.5 15t-1.5 16q0 11 9.5 19t25.5 8q3 0 16 -1.5t15 -1.5q24 0 29.5 15t5.5 57z" />
    <glyph glyph-name="asciicircum" unicode="^" horiz-adv-x="599" 
d="M228 383h-222l153 403h281l152 -403h-221l-71 231z" />
    <glyph glyph-name="underscore" unicode="_" horiz-adv-x="598" 
d="M6 -50h585v-147h-585v147z" />
    <glyph glyph-name="grave" unicode="`" horiz-adv-x="500" 
d="M297 827l39 -78q12 -24 12 -30q0 -12 -19 -12q-9 0 -26.5 1t-25.5 1q-9 0 -27 -1t-25 -1q-15 0 -23.5 6t-28.5 29q-3 4 -9 11q-38 43 -42 59q-1 5 -1 11q0 33 33 33q4 0 26 -1.5t26 -1.5q21 0 38.5 2.5t22.5 2.5t8 -1t9 -8.5t13 -21.5z" />
    <glyph glyph-name="a" unicode="a" horiz-adv-x="728" 
d="M147 645h1q18 0 30 -7t19 -7q3 0 13 1.5t21.5 4t12.5 2.5q57 10 147 10q163 0 236 -78q33 -35 41 -73.5t8 -111.5v-219q0 -49 2.5 -63.5t10.5 -26.5q17 -27 17 -43q0 -14 -9 -27.5t-32 -13.5q-10 0 -51 3.5t-62 3.5q-15 0 -53 -3.5t-43 -3.5q-29 0 -35 34q-4 25 -11 25
q-6 0 -17 -9q-30 -23 -45 -33t-43 -18t-64 -8q-59 0 -103.5 18.5t-68.5 49.5t-35.5 64t-11.5 67q0 188 310 190q45 2 52 4q15 4 15 24q0 42 -84 42q-75 0 -147 -21q-51 -15 -61 -15q-16 0 -26.5 10.5t-10.5 21.5q0 4 2 12l4.5 18t3.5 15q12 49 21 116q1 13 3.5 21t13 16
t29.5 8zM395 225v10q0 7 -1.5 11.5t-8 8.5t-18.5 4q-90 0 -90 -55q0 -25 18 -37t39 -12q34 0 47.5 22.5t13.5 47.5z" />
    <glyph glyph-name="b" unicode="b" horiz-adv-x="759" 
d="M52 54v558q0 50 -2 62t-11 27q-17 27 -17 43q0 42 44 42q21 0 65.5 -3.5t64.5 -3.5q27 0 65.5 3.5t42.5 3.5q32 0 32 -37q0 -17 -1.5 -49.5t-1.5 -48.5q0 -27 14 -27q2 0 34.5 9.5t70.5 9.5q133 0 212 -92t79 -227q0 -164 -90.5 -255t-256.5 -91q-106 0 -169 30
q-54 26 -65 26q-18 0 -31 -22q-13 -23 -35 -23q-16 0 -25.5 6t-13 17.5t-4.5 19.5t-1 22zM334 326v-50q0 -77 52 -77q60 0 60 110q0 117 -63 117q-14 0 -24 -6t-14.5 -13.5t-7 -23t-3 -26t-0.5 -31.5z" />
    <glyph glyph-name="c" unicode="c" horiz-adv-x="608" 
d="M16 309v1q0 149 85.5 244t230.5 95q37 0 91 -10q51 -11 52 -11q7 0 19 7q10 7 24 7q19 0 29 -9.5t11.5 -19t2.5 -26.5q2 -47 16 -114l15 -69q0 -13 -10.5 -21.5t-23.5 -8.5q-8 0 -57 8.5t-81 8.5q-39 0 -68 -16t-29 -51q0 -68 103 -68q38 0 86.5 14.5t55.5 14.5
q13 0 23.5 -11t10.5 -25q0 -4 -3 -16t-7 -25.5t-5 -15.5q-11 -44 -21 -140q-2 -21 -9.5 -31.5t-26.5 -17.5q-64 -25 -153 -25q-94 0 -165.5 27t-113 74t-62 105t-20.5 125z" />
    <glyph glyph-name="d" unicode="d" horiz-adv-x="761" 
d="M709 736v-569q0 -50 2 -63t11 -27q18 -29 18 -43q0 -7 -2.5 -15t-12.5 -17t-26 -9q-7 0 -50 3.5t-66 3.5q-28 0 -57.5 -3.5t-32.5 -3.5q-32 0 -36 35q-3 28 -14 28q-5 0 -23 -18q-17 -17 -27 -25t-39.5 -19.5t-67.5 -11.5q-64 0 -118.5 28t-87.5 76q-64 92 -64 229
q0 141 66 230q33 46 88 72t120 26q44 0 90 -12l31 -9q17 0 17 24q0 35 -13 55q-17 28 -17 43q0 42 44 42q19 0 62.5 -3.5t61.5 -3.5q20 0 59 3.5t49 3.5q24 0 29.5 -12t5.5 -38zM427 291v53q0 82 -51 82q-64 0 -64 -114q0 -110 64 -110q51 0 51 89z" />
    <glyph glyph-name="e" unicode="e" horiz-adv-x="709" 
d="M644 259h-301q-13 0 -18.5 -0.5t-9 -3.5t-3.5 -9q0 -25 25.5 -39.5t49 -17.5t49.5 -3q66 0 142 15q60 12 61 12q14 0 21.5 -8.5t7.5 -17.5q0 -7 -16 -59q-2 -7 -19 -91q-3 -16 -13 -24.5t-36 -14.5q-83 -20 -192 -20q-173 0 -274.5 82t-101.5 252q0 71 19.5 130t60 106.5
t109 74t159.5 26.5q158 0 243.5 -83t85.5 -241q0 -39 -10.5 -52.5t-38.5 -13.5zM336 370h61q24 0 32 5t8 17q0 30 -17.5 48t-47.5 18q-29 0 -47.5 -19t-18.5 -48q0 -11 6 -16t24 -5z" />
    <glyph glyph-name="f" unicode="f" horiz-adv-x="482" 
d="M334 170v-1q0 -40 2 -55q3 -24 11 -37q2 -3 6 -10l6 -10.5t3.5 -9.5t1.5 -13q0 -8 -2.5 -16.5t-12 -16.5t-25.5 -8q-7 0 -54.5 3.5t-73.5 3.5q-23 0 -68 -3.5t-66 -3.5q-40 0 -40 42q0 15 17 42q8 14 10.5 29.5t2.5 60.5v98q0 29 -5 167q0 6 -2.5 48t-2.5 55
q0 121 61.5 188.5t171.5 67.5q25 0 46 -2.5t32.5 -5t12.5 -2.5q6 0 14 6q12 5 23 5q18 0 33 -10t16 -30q0 -7 1 -22t1 -19t0.5 -14.5t1 -13.5t1.5 -11t2.5 -13.5t3 -13t4.5 -16.5q1 -3 6.5 -20t9.5 -32t4 -20q0 -11 -9 -22t-30 -11q-7 0 -30.5 5.5t-39.5 5.5
q-18 0 -32.5 -10.5t-14.5 -33.5q0 -20 15 -31t24.5 -12t17.5 -1q3 0 19.5 2t18.5 2q36 0 36 -33q0 -3 -3.5 -30.5t-3.5 -49.5q0 -24 3.5 -56t3.5 -33q0 -17 -11.5 -26.5t-28.5 -9.5q-4 0 -24 1.5t-24 1.5q-40 0 -40 -46z" />
    <glyph glyph-name="g" unicode="g" horiz-adv-x="705" 
d="M11 390v1q0 57 18.5 102t49 74t74.5 48t91.5 26.5t102.5 7.5q57 0 108 -11q11 -2 24 -5t20.5 -4.5t11.5 -1.5q9 0 15 7.5t6 16.5q0 10 -16.5 29.5t-16.5 39.5q0 25 20.5 47.5t68.5 22.5q52 0 75.5 -30.5t23.5 -71.5q0 -59 -39 -98q-22 -20 -22 -28q0 -6 15 -26
t30.5 -56.5t15.5 -82.5q0 -85 -46 -138q-11 -13 -11 -21t14 -23q45 -50 45 -127q0 -106 -88 -176q-46 -37 -104.5 -55.5t-155.5 -18.5q-151 0 -272 42q-52 21 -52 46q0 14 24 68q16 35 28 81q10 37 35 37q8 0 64 -16q86 -24 157 -24q91 0 91 46q0 12 -8.5 21.5t-23.5 9.5
q-9 0 -28.5 -2t-28.5 -2q-65 0 -119.5 12.5t-100 40t-71 76.5t-25.5 116zM348 452h-1q-27 0 -48 -16t-21 -43q0 -28 20 -43t49 -15t49.5 16t20.5 45q0 27 -21 41.5t-48 14.5z" />
    <glyph glyph-name="h" unicode="h" horiz-adv-x="752" 
d="M424 92v239v6q0 23 -1 35.5t-11 25.5t-30 13q-14 0 -23 -5.5t-14 -12.5t-7.5 -19.5t-3 -21.5t-0.5 -24v-161q0 -33 1.5 -51t3.5 -24t8 -15q17 -29 17 -43q0 -15 -9 -28t-31 -13q-6 0 -52 3.5t-76 3.5q-24 0 -69.5 -3.5t-64.5 -3.5q-40 0 -40 42q0 15 17 42
q8 14 10.5 29.5t2.5 60.5v445q0 50 -2 62t-11 27q-17 27 -17 43q0 42 44 42q24 0 66.5 -3.5t61.5 -3.5q23 0 60 3.5t49 3.5q21 0 29.5 -12t8.5 -23q0 -3 -3.5 -36t-3.5 -41v-51q0 -33 14 -33q3 0 9.5 3.5t18 11t21.5 12.5q50 26 101 26q107 0 157.5 -63.5t50.5 -176.5v-236
q0 -50 2 -62.5t11 -27.5q17 -27 17 -43q0 -8 -2.5 -16t-12 -16.5t-25.5 -8.5q-10 0 -57 3.5t-70 3.5q-17 0 -50 -3.5t-50 -3.5q-22 0 -32 12t-11.5 28.5t-1.5 58.5z" />
    <glyph glyph-name="i" unicode="i" horiz-adv-x="400" 
d="M201 835h1q24 0 46.5 -2.5t50.5 -9.5t45.5 -24t17.5 -42q0 -24 -13 -40t-37.5 -23.5t-50.5 -10.5t-60 -3q-162 0 -162 77q0 24 16.5 40.5t43.5 24t51 10.5t51 3zM52 167v293q0 48 -2 62.5t-11 27.5q-17 28 -17 42q0 42 41 42q18 0 64 -6t81 -6q30 0 72.5 6t55.5 6
q42 0 42 -41q0 -17 -17 -43q-8 -12 -10.5 -26.5t-2.5 -63.5v-293q0 -33 1.5 -51t3.5 -24t8 -15q17 -29 17 -43q0 -41 -40 -41q-6 0 -52.5 3.5t-81.5 3.5q-46 0 -90 -3.5t-51 -3.5q-17 0 -27 9t-12 17t-2 16q0 16 17 42q9 13 11 28t2 62z" />
    <glyph glyph-name="j" unicode="j" horiz-adv-x="419" 
d="M226 835h1q24 0 46.5 -2.5t51 -9.5t45.5 -24t17 -42q0 -77 -161 -77q-76 0 -119 16.5t-43 60.5q0 24 16.5 40.5t43.5 24t51 10.5t51 3zM46 593v1q0 6 2 13.5t12 17t28 9.5q13 0 56.5 -6t87.5 -6q28 0 72.5 6t55.5 6q43 0 43 -41q0 -16 -17 -43q-9 -14 -11 -29t-2 -61
v-184q0 -66 0.5 -126.5t0.5 -74.5q0 -110 -53.5 -173.5t-168.5 -63.5q-53 0 -101 15t-48 45q0 12 3 54.5t3 59.5q0 8 -3 31t-3 28q0 11 8.5 22.5t26.5 11.5q13 0 34.5 -16t37.5 -16t27 12t11 28q0 18 -9.5 27.5t-40.5 28.5q-16 10 -21 31.5t-5 64.5q0 23 2.5 67t2.5 73v55
q0 46 -2.5 61t-10.5 29q-18 30 -18 43z" />
    <glyph glyph-name="k" unicode="k" horiz-adv-x="772" 
d="M343 751v-1q0 -11 -4.5 -56.5t-4.5 -79.5v-131q0 -19 1.5 -28t3.5 -10.5t6 -1.5q15 0 35 23q41 49 41 78q0 5 -4 24t-4 23q0 17 11.5 30t36.5 13q13 0 58.5 -3.5t71.5 -3.5q27 0 70.5 3.5t54.5 3.5q22 0 30.5 -13t8.5 -27q0 -10 -18 -42q-3 -6 -15.5 -36.5t-14.5 -34.5
q-36 -73 -92 -129q-8 -8 -8 -15t31 -34q69 -60 104 -185q12 -44 25 -58q10 -11 10 -29q0 -38 -38 -38q-7 0 -47 3.5t-86 3.5q-43 0 -84.5 -3.5t-50.5 -3.5q-37 0 -37 41q0 10 4 22.5t4 20.5q0 28 -35.5 79t-57.5 51q-6 0 -9 -2t-4.5 -8.5t-1.5 -12v-19.5q0 -7 0.5 -22
t0.5 -20q0 -27 12 -46q17 -29 17 -43q0 -15 -9 -28t-31 -13q-7 0 -51.5 3.5t-76.5 3.5q-30 0 -74.5 -3.5t-58.5 -3.5q-41 0 -41 42q0 15 17 42q8 14 10.5 29.5t2.5 60.5v445q0 49 -2 62t-11 27q-17 27 -17 43q0 42 44 42q21 0 63 -3.5t62 -3.5q30 0 72.5 3.5t49.5 3.5
q30 0 30 -35z" />
    <glyph glyph-name="l" unicode="l" horiz-adv-x="386" 
d="M52 167v445q0 49 -2 62t-11 27q-17 27 -17 43q0 42 44 42q21 0 62.5 -3.5t62.5 -3.5q29 0 68.5 3.5t41.5 3.5q33 0 33 -57v-562q0 -33 1.5 -51t3.5 -24t8 -15q17 -29 17 -43q0 -15 -9 -28t-31 -13q-6 0 -50 3.5t-78 3.5q-25 0 -73 -3.5t-60 -3.5q-41 0 -41 42q0 15 17 42
q8 14 10.5 29.5t2.5 60.5z" />
    <glyph glyph-name="m" unicode="m" horiz-adv-x="1124" 
d="M424 92v237q0 19 -1 29.5t-5.5 26.5t-16 23.5t-29.5 7.5q-19 0 -30 -10t-11 -26q0 -4 1.5 -30t1.5 -56v-127q0 -49 2.5 -63.5t10.5 -26.5q17 -27 17 -43q0 -15 -9 -28t-31 -13q-9 0 -52.5 3.5t-75.5 3.5q-26 0 -70.5 -3.5t-61.5 -3.5q-42 0 -42 42q0 15 17 42
q8 14 10.5 29.5t2.5 60.5v293q0 47 -2 61.5t-11 28.5q-17 26 -17 42q0 42 41 42q11 0 54.5 -3.5t66.5 -3.5q16 0 42 3.5t34 3.5q30 0 35 -37q1 -28 12 -28q7 0 25 18q62 62 161 62q46 0 80 -12.5t45.5 -22.5t25.5 -26q21 -24 26 -24q3 0 21 19q38 40 76.5 53t85.5 13
q67 0 113 -23t69.5 -66t33 -92t9.5 -114v-187q0 -51 2 -63.5t11 -26.5q17 -27 17 -43q0 -15 -9 -28t-32 -13q-10 0 -56.5 3.5t-69.5 3.5q-16 0 -51 -3.5t-48 -3.5q-32 0 -39 20t-7 79v228q0 22 -1 34t-5.5 29t-16 25t-30.5 8q-15 0 -28.5 -9t-13.5 -28q0 -4 2.5 -29t2.5 -33
v-150q0 -51 2 -63t11 -27q17 -27 17 -43q0 -14 -9 -27.5t-32 -13.5q-2 0 -49 3.5t-77 3.5q-17 0 -53 -3.5t-47 -3.5q-22 0 -32 12t-11.5 28.5t-1.5 58.5z" />
    <glyph glyph-name="n" unicode="n" horiz-adv-x="753" 
d="M424 92v232q0 20 -0.5 30t-3 24.5t-7.5 21t-14.5 11.5t-23.5 5q-44 0 -44 -40q0 -3 1.5 -14t1.5 -16v-179q0 -33 1.5 -51t3.5 -24t8 -15q17 -29 17 -43q0 -15 -9 -28t-31 -13q-6 0 -50 3.5t-78 3.5q-25 0 -73 -3.5t-60 -3.5q-41 0 -41 42q0 15 17 42q8 14 10.5 29.5
t2.5 60.5v293q0 47 -2 61.5t-11 28.5q-17 28 -17 42q0 42 41 42q17 0 52 -3.5t52 -3.5q20 0 53.5 3.5t37.5 3.5q32 0 37 -41q2 -24 11 -24q8 0 31 23q57 57 146 57q112 0 175 -75q48 -57 48 -177v-230q0 -48 2 -62t11 -28q17 -27 17 -43q0 -8 -2.5 -16t-12 -16.5t-25.5 -8.5
q-5 0 -51 3.5t-76 3.5q-17 0 -51 -3.5t-49 -3.5q-22 0 -32 12t-11.5 28.5t-1.5 58.5z" />
    <glyph glyph-name="o" unicode="o" horiz-adv-x="750" 
d="M375 652h1q165 0 261.5 -88.5t96.5 -248.5q0 -166 -96.5 -253t-262.5 -87q-165 0 -262 88t-97 251t97 250.5t262 87.5zM374 435h-1q-24 0 -39 -23.5t-18.5 -47.5t-3.5 -49q0 -113 64 -113q62 0 62 117q0 116 -64 116z" />
    <glyph glyph-name="p" unicode="p" horiz-adv-x="768" 
d="M365 -127v-1q0 -7 -2 -14.5t-11.5 -16.5t-26.5 -9q-13 0 -59 3.5t-69 3.5t-67 -3.5t-67 -3.5q-41 0 -41 42q0 15 17 42q8 14 10.5 29.5t2.5 61.5v453q0 47 -2 61.5t-11 28.5q-17 26 -17 42q0 42 41 42q19 0 58 -3.5t58 -3.5q20 0 50 3.5t34 3.5q14 0 23 -8t10 -24v-5
q5 -22 12 -23q4 0 8.5 3.5t14.5 13t15 14.5q43 38 122 38q127 0 205 -92.5t78 -233.5q0 -145 -83.5 -240t-223.5 -95q-40 0 -71 9q-27 8 -29 8q-8 0 -8 -14q0 -50 12 -69q17 -26 17 -43zM334 341v-59q0 -16 1 -26.5t5.5 -25.5t16.5 -23t30 -8q25 0 40 21.5t18.5 43.5t3.5 47
t-4 48t-19.5 45t-39.5 22t-36 -15.5t-14 -30.5t-2 -39z" />
    <glyph glyph-name="q" unicode="q" horiz-adv-x="760" 
d="M294 643h1q80 0 127 -50q19 -20 24 -20q7 0 9.5 4t7.5 22q1 2 1 3q8 32 29 32q6 0 36.5 -3.5t49.5 -3.5q11 0 63 3.5t56 3.5q40 0 40 -41q0 -15 -17 -43q-8 -14 -10.5 -30t-2.5 -61v-453q0 -33 1.5 -51t3.5 -24t8 -15q17 -27 17 -43q0 -8 -2.5 -16.5t-12 -16.5t-25.5 -8
q-13 0 -58.5 3.5t-68.5 3.5q-12 0 -69.5 -3.5t-64.5 -3.5q-17 0 -27 9t-12 16.5t-2 15.5q0 17 17 43q13 20 13 67q0 17 -10 17q-1 0 -5.5 -1.5t-12 -3.5t-15.5 -4q-40 -9 -81 -9q-135 0 -210.5 96t-75.5 235q0 156 81 243t197 87zM426 281v62q0 18 -1 28.5t-5 25t-14.5 22
t-27.5 7.5q-36 0 -51 -33.5t-15 -74.5t15 -80t50 -39q49 0 49 82z" />
    <glyph glyph-name="r" unicode="r" horiz-adv-x="490" 
d="M422 635h1q15 0 24.5 -1.5t20.5 -12t11 -30.5q0 -5 -3 -44t-3 -80q0 -11 1 -23.5t2.5 -27.5t2.5 -23q0 -12 -8 -23t-25 -11q-4 0 -25 2.5t-25 2.5q-24 0 -40.5 -16t-16.5 -40q0 -6 4.5 -32t4.5 -57v-52q0 -33 1.5 -51t3.5 -24t8 -15q17 -27 17 -43q0 -8 -2.5 -16
t-12 -16.5t-25.5 -8.5q-7 0 -53 3.5t-81 3.5q-37 0 -84.5 -3.5t-56.5 -3.5q-41 0 -41 42q0 15 17 42q8 14 10.5 29.5t2.5 60.5v293q0 49 -2 63t-11 27q-17 24 -17 42q0 42 41 42q9 0 54.5 -3.5t52.5 -3.5q30 0 54.5 3.5t26.5 3.5q22 0 28 -22q5 -18 7.5 -22t7.5 -4
q9 0 26 14q42 35 102 35z" />
    <glyph glyph-name="s" unicode="s" horiz-adv-x="615" 
d="M26 432v1q0 73 40 123.5t99.5 71.5t132.5 21q64 0 115 -11q11 -2 23 -5t19.5 -4.5t10.5 -1.5t15 6q12 5 22 5q16 0 31 -10t15 -31q0 -1 -0.5 -11t-0.5 -19v-18q2 -19 11 -60.5t9 -48.5q0 -11 -8 -20.5t-20 -9.5q-8 0 -62.5 19t-84.5 19q-47 0 -47 -33q0 -21 31 -29
q8 -2 34 -8t37.5 -9.5t31.5 -10.5t35 -15.5t29 -19.5q55 -45 55 -128q0 -59 -24.5 -102.5t-66.5 -67.5t-90.5 -35.5t-103.5 -11.5q-41 0 -85 6.5t-72.5 13t-30.5 6.5q-6 0 -20.5 -7.5t-28.5 -7.5t-23.5 6.5t-12.5 19t-4 21t-1 22.5q0 37 -5 56q-18 73 -18 84q0 15 10 24
t23 9q5 0 68.5 -26.5t105.5 -26.5q39 0 39 30q0 16 -15 24.5t-66 22.5q-152 42 -152 177z" />
    <glyph glyph-name="t" unicode="t" horiz-adv-x="493" 
d="M354 359v-72q0 -55 37 -55q7 0 33 6.5t33 6.5q15 0 25.5 -9t10.5 -20q0 -5 -2 -13t-5 -21.5l-5 -22.5q-12 -61 -15 -116q-2 -36 -34 -47q-51 -18 -131 -18q-241 0 -241 212q0 14 4 82t4 78q0 49 -19 49q-3 0 -13 -1.5t-11 -1.5q-5 0 -10.5 2t-11 10t-5.5 21q0 9 2 37.5
t2 44.5q0 13 -2 40t-2 40q0 15 8 23.5t14.5 10t12.5 1.5q2 0 20 -1t24 -1q29 0 55.5 10t53.5 32t42 37t41 45q6 7 9 10q25 27 37 27q39 0 39 -34v-89q0 -22 5 -32t22 -10q4 0 25 2t24 2q39 0 39 -38q0 -6 -1.5 -35.5t-1.5 -34.5q0 -7 1.5 -42.5t1.5 -41.5q0 -42 -36 -42
q-5 0 -25 3t-25 3q-29 0 -29 -37z" />
    <glyph glyph-name="u" unicode="u" horiz-adv-x="753" 
d="M330 564v-241q0 -26 1 -39.5t5 -31.5t14.5 -25.5t27.5 -7.5q18 0 28 10.5t10 28.5q0 3 -1 18.5t-1 17.5l1 166q0 50 -2 63t-11 27q-17 27 -17 42q0 42 41 42q14 0 61 -3.5t73 -3.5q23 0 55.5 3.5t42.5 3.5q16 0 25 -4.5t12.5 -15.5t4.5 -20.5t1 -29.5v-397q0 -51 2 -63
t11 -27q17 -27 17 -43q0 -14 -9 -27.5t-32 -13.5q-15 0 -57 3.5t-65 3.5q-14 0 -47 -3.5t-45 -3.5q-15 0 -23.5 6t-11.5 13.5t-6 22.5t-4.5 18t-5.5 3q-2 0 -20 -16q-63 -56 -158 -56q-108 0 -158 67.5t-50 178.5q0 16 4 102t4 100q0 68 -2.5 86.5t-10.5 31.5q-18 28 -18 42
q0 42 42 42q13 0 61 -3.5t74 -3.5q23 0 56 3.5t38 3.5q27 0 35 -16.5t8 -53.5z" />
    <glyph glyph-name="v" unicode="v" horiz-adv-x="688" 
d="M-16 596v1q0 13 8 25t25 12q9 0 67 -3.5t92 -3.5q32 0 78.5 3.5t56.5 3.5q18 0 27.5 -11.5t9.5 -25.5q0 -13 -5 -25q-13 -41 -13 -60q0 -55 26 -161q7 -28 10.5 -36t10.5 -8q14 0 22 36q34 130 34 172q0 15 -9 33q-14 29 -14 44q0 20 11.5 31t29.5 11q6 0 51 -3.5
t71 -3.5q23 0 56 3.5t38 3.5q17 0 27 -12t10 -28q0 -11 -3.5 -17.5t-19.5 -26.5q-10 -12 -15 -26.5t-18 -69.5q-54 -231 -121 -387q-19 -46 -35 -60t-41 -14q-6 0 -49 3.5t-72 3.5q-42 0 -77 -3.5t-39 -3.5q-19 0 -33 15t-34 65q-84 206 -114 378q-14 81 -30 103
q-19 27 -19 42z" />
    <glyph glyph-name="w" unicode="w" horiz-adv-x="1030" 
d="M333 593v-1q0 -8 -4 -22.5t-4 -27.5q0 -33 15 -112t22 -102q4 -17 13 -17q8 0 14 24q33 131 33 197q0 14 -6 32q-5 15 -5 27q0 22 10 32.5t21 10.5q8 0 53.5 -3.5t70.5 -3.5q26 0 59.5 3.5t34.5 3.5q16 0 25.5 -10.5t9.5 -26.5q0 -12 -8 -36q-5 -17 -5 -29
q0 -18 10.5 -84t18.5 -103q4 -22 7.5 -27.5t9.5 -5.5q7 0 14 20q12 42 25 109t13 91q0 16 -5.5 33.5t-5.5 25.5q0 22 11.5 32.5t24.5 10.5q4 0 43 -3.5t65 -3.5q27 0 61.5 3.5t37.5 3.5q15 0 25 -10.5t10 -27.5t-31 -63q-8 -13 -19 -62q-17 -92 -61.5 -237t-79.5 -207
q-11 -19 -20 -26.5t-25 -7.5q-8 0 -41 3.5t-60 3.5t-59 -3.5t-40 -3.5q-21 0 -32.5 12.5t-23.5 48.5q-14 42 -20 64q-9 31 -18 31q-10 0 -18 -32q-9 -34 -26 -77q-19 -47 -46 -47q-8 0 -42.5 3.5t-57.5 3.5q-28 0 -66 -3.5t-45 -3.5q-19 0 -32 14.5t-28 53.5q-2 5 -13 34.5
t-13.5 37t-12 34.5t-13.5 40.5t-13 40.5t-14.5 48t-13 50t-15 59.5t-14.5 64.5q-11 49 -29 78q-2 4 -5 8.5t-4.5 7t-3.5 5.5t-3 5t-2 4.5t-1.5 4.5t-1 4.5t-0.5 5.5q0 6 1.5 13t12 17.5t29.5 10.5q6 0 57 -3.5t110 -3.5q25 0 58 3.5t43 3.5q38 0 38 -41z" />
    <glyph glyph-name="x" unicode="x" horiz-adv-x="714" 
d="M-3 594v1q0 15 10 27t28 12q14 0 68.5 -3.5t82.5 -3.5q29 0 72.5 3.5t49.5 3.5q16 0 26 -12.5t10 -28.5q0 -3 -2.5 -19.5t-2.5 -19.5q0 -34 27 -75q15 -24 25 -24q15 0 32.5 41t17.5 63q0 3 -2.5 17t-2.5 16q0 21 12.5 31.5t27.5 10.5q5 0 43.5 -3.5t63.5 -3.5
q26 0 62 3.5t39 3.5q18 0 26.5 -12t8.5 -27q0 -18 -20 -42q-18 -22 -33 -67q-13 -38 -29 -64t-57 -77q-16 -20 -16 -25q0 -2 11 -16t24 -30t16 -20q31 -49 60 -124q14 -37 33 -59q16 -20 16 -35q0 -16 -9.5 -29.5t-28.5 -13.5q-9 0 -48.5 3.5t-82.5 3.5q-48 0 -91.5 -3.5
t-48.5 -3.5q-18 0 -28.5 10.5t-10.5 26.5q0 3 2.5 18t2.5 17q0 36 -39 93q-11 16 -19 16q-10 0 -21 -21q-27 -50 -27 -83q0 -4 2.5 -21t2.5 -20q0 -13 -8 -24.5t-25 -11.5q-2 0 -37 3.5t-74 3.5q-35 0 -71.5 -3.5t-39.5 -3.5q-18 0 -27 12t-9 28q0 20 27 50q8 9 27 60
q7 20 12 32q25 66 79 127q11 11 11 17q0 8 -17 28q-54 65 -76 132q-17 53 -26 63q-3 5 -9 10q-20 20 -20 42z" />
    <glyph glyph-name="y" unicode="y" horiz-adv-x="682" 
d="M-16 591v1q0 20 11 31t29 11q14 0 69.5 -3.5t90.5 -3.5q32 0 69 3.5t48 3.5q21 0 29.5 -13.5t8.5 -29.5q0 -9 -10 -40q-2 -6 -2 -21q0 -87 30 -196q7 -27 11.5 -34.5t11.5 -7.5q9 0 18 32q31 116 31 195q0 20 -6.5 41t-6.5 31q0 19 10.5 31t26.5 12q4 0 47 -3.5t69 -3.5
q23 0 56 3.5t36 3.5q17 0 27.5 -12.5t10.5 -26.5q0 -10 -3 -16t-20 -33q-18 -29 -35 -134q-6 -38 -21 -105t-49 -172t-71 -166q-79 -131 -265 -131q-62 0 -124.5 7.5t-84.5 15.5q-27 10 -27 43q0 6 2 35t2 34t-2 30.5t-2 29.5q0 16 9 23.5t18 7.5q2 0 58 -16t81 -16
q27 0 27 22q0 12 -4 19q-12 24 -17 32q-43 69 -81 171.5t-55 189.5q-12 62 -32 86q-19 22 -19 39z" />
    <glyph glyph-name="z" unicode="z" horiz-adv-x="562" 
d="M544 593v-1q0 -54 -52 -172q-22 -49 -61 -123q-14 -26 -14 -41q0 -12 10 -19.5t23 -7.5t32 11.5t35 11.5q15 0 26.5 -7.5t11.5 -19.5q0 -2 -16 -58q-9 -27 -27 -114q-3 -15 -5.5 -23t-9.5 -18t-19 -14.5t-31 -4.5q-2 0 -73.5 3.5t-141.5 3.5q-58 0 -116 -3.5t-65 -3.5
q-20 0 -32 12t-12 27q0 29 35 120t86 173q30 48 30 64q0 10 -9 16.5t-20 6.5t-27.5 -10.5t-29.5 -10.5q-40 0 -40 33q0 6 2.5 16t9 30t10.5 37q13 48 20 91q6 36 57 36q7 0 38.5 -2t86 -3.5t117.5 -1.5q31 0 73 3.5t56 3.5q18 0 30 -11t12 -30z" />
    <glyph glyph-name="braceleft" unicode="{" horiz-adv-x="469" 
d="M45 312v1q0 10 5.5 18t29.5 35q31 34 31 111q0 13 -2.5 80.5t-2.5 78.5q0 82 35 147q21 38 41 38q2 0 36.5 -3t71.5 -3q34 0 63 3t31 3q18 0 28.5 -13.5t10.5 -30.5q0 -7 -2.5 -13.5t-7 -12.5t-8.5 -10.5t-11 -11t-9 -9.5q-32 -35 -32 -120q0 -11 3 -66t3 -65
q0 -84 -52 -131q-19 -17 -19 -23q0 -4 5 -9q31 -31 41 -43.5t19 -41.5t9 -76q0 -11 -1.5 -67.5t-1.5 -65.5q0 -53 9 -74t41 -56q15 -16 15 -32t-10 -30t-26 -14q-10 0 -45 2.5t-68 2.5q-30 0 -54.5 -2.5t-27.5 -2.5q-23 0 -46 39q-39 68 -39 186q0 10 3 65t3 65
q0 65 -49 117q-20 21 -20 34z" />
    <glyph glyph-name="bar" unicode="|" horiz-adv-x="585" 
d="M164 750h257v-1000h-257v1000z" />
    <glyph glyph-name="braceright" unicode="}" horiz-adv-x="469" 
d="M424 315v-1q0 -10 -5.5 -18t-29.5 -35q-31 -34 -31 -111q0 -13 2.5 -80.5t2.5 -78.5q0 -82 -35 -147q-21 -38 -41 -38q-2 0 -36.5 3t-71.5 3q-34 0 -63 -3t-31 -3q-18 0 -28.5 13.5t-10.5 30.5q0 7 2.5 13.5t7 12.5t8.5 10.5t11 11t9 9.5q32 35 32 120q0 11 -3 66t-3 65
q0 84 52 131q19 17 19 23q0 4 -5 9q-31 31 -41 43.5t-19 41.5t-9 76q0 11 1.5 67.5t1.5 65.5q0 53 -9 74t-41 56q-15 16 -15 32t10 30t26 14q10 0 45 -2.5t68 -2.5q30 0 54.5 2.5t27.5 2.5q23 0 46 -39q39 -68 39 -186q0 -10 -3 -65t-3 -65q0 -65 49 -117q20 -21 20 -34z
" />
    <glyph glyph-name="asciitilde" unicode="~" horiz-adv-x="779" 
d="M225 614l-120 102q14 37 26.5 62t35 57.5t55 50t72.5 17.5q20 0 39.5 -5t88.5 -29q59 -20 72 -20q20 0 32 13t29 44l120 -102q-12 -31 -19.5 -47.5t-26 -47.5t-36 -48t-46 -31t-61.5 -14q-28 0 -120 32q-69 24 -81 24q-19 0 -32 -14.5t-28 -43.5z" />
    <glyph glyph-name="uni00A0" unicode="&#xa0;" horiz-adv-x="374" 
 />
    <glyph glyph-name="exclamdown" unicode="&#xa1;" horiz-adv-x="499" 
d="M73 63l48 428q5 32 26 32q4 0 38.5 -7t64.5 -7q32 0 65.5 7t41.5 7q15 0 19 -7.5t6 -24.5l45 -422q1 -9 1 -29q0 -22 -12 -35t-35 -13q-5 0 -47.5 4t-78.5 4q-40 0 -84 -4t-55 -4q-18 0 -29 9.5t-13.5 18.5t-2.5 16q0 4 1 14t1 13zM249 561h-1q-12 0 -21.5 0.5t-31 3.5
t-38 10.5t-33.5 19t-26.5 32t-9.5 47.5q0 115 164 115q20 0 38.5 -2.5t51 -11.5t52.5 -34.5t20 -65.5q0 -43 -28.5 -70t-62.5 -35.5t-74 -8.5z" />
    <glyph glyph-name="cent" unicode="&#xa2;" horiz-adv-x="638" 
d="M46 384v1q0 111 53.5 192t126.5 103q21 6 26 12t5 19v38q0 31 24 31q8 0 27.5 -1.5t34.5 -1.5q24 0 43 1.5t21 1.5q21 0 21 -31v-27q0 -17 5 -20.5t26 -3.5q40 -1 62.5 -5.5t33 -16.5t12.5 -22.5t3 -34.5q1 -48 19 -113q3 -12 3 -22t-8.5 -21.5t-28.5 -11.5q-7 0 -56 6
t-76 6q-76 0 -76 -57q0 -58 89 -58q32 0 72 8t57 8q18 0 27.5 -9.5t9.5 -22.5q0 -7 -4.5 -25.5t-10.5 -39t-7 -24.5q-8 -37 -12 -101q-1 -15 -2.5 -22.5t-10 -15t-24.5 -11.5q-23 -6 -73 -11q-15 -1 -20 -2t-7.5 -4.5t-2.5 -11.5v-35q0 -33 -24 -33q-10 0 -28 1.5t-28 1.5
q-13 0 -33.5 -1.5t-31.5 -1.5q-26 0 -26 33v38q0 15 -5 19.5t-31 13.5q-87 32 -131 108.5t-44 175.5z" />
    <glyph glyph-name="sterling" unicode="&#xa3;" 
d="M522 482h71q50 0 50 -30q0 -2 -2 -18.5t-2 -34.5q0 -11 2 -35t2 -28q0 -31 -38 -31h-128q-14 0 -18 -2t-9 -14q-10 -26 -22 -41l-6.5 -6.5t-10 -10.5t-4.5 -7q0 -8 32 -13q37 -6 84 -6q45 0 86 9l70 19q4 0 10 -1t15.5 -9.5t9.5 -24.5q0 -6 -3 -37t-3 -36q0 -18 5 -45
t5 -38q0 -31 -64.5 -48.5t-147.5 -17.5q-75 0 -174 16q-84 13 -124 13q-38 0 -67 -5q-40 -8 -54 -8q-12 0 -24.5 7t-12.5 24q0 7 3.5 34.5t3.5 48.5q0 22 -3.5 52t-3.5 38q0 16 10 22.5t49 16.5q15 4 27 18t16.5 25t4.5 15q0 12 -18 12h-51q-38 0 -38 29q0 6 2 27t2 32
q0 15 -2 39t-2 25q0 17 13 21t38 4h72q14 0 20 2t13 15t12 41q45 257 260 257q34 0 71 -6l19 -4q18 -4 22 -4t15 5q12 7 23 7q43 0 46 -51q4 -66 16 -106q15 -47 15 -57q0 -13 -11.5 -21t-24.5 -8q-10 0 -55 11q-18 5 -37 5q-33 0 -55 -22t-22 -55q0 -9 22 -9z" />
    <glyph glyph-name="currency" unicode="&#xa4;" horiz-adv-x="556" 
d="M33 242l26 26q17 17 17 27t-10 29q-19 43 -19 85q0 45 19 86q10 21 10 28q0 9 -17 28l-26 26q-15 16 -15 29q0 20 21 40.5t38 20.5t31 -15l26 -26q18 -17 28 -17q7 0 29 10q42 19 85 19q44 0 85 -19q21 -10 28 -10q11 0 28 17l26 26q17 17 33 17q22 0 43 -22t21 -39
q0 -18 -17 -35l-26 -26q-17 -18 -17 -28q0 -9 9 -29q20 -38 20 -85q0 -45 -20 -85q-10 -24 -10 -28q0 -10 18 -28l26 -26q17 -17 17 -32q0 -22 -20 -41t-39 -19q-17 0 -33 16l-27 26q-17 18 -27 18q-7 0 -29 -10q-40 -19 -85 -19q-44 0 -85 19q-21 10 -28 10q-11 0 -28 -18
l-27 -26q-17 -17 -32 -17q-22 0 -43 22t-21 40t17 35zM279 471h-1q-27 0 -47.5 -18.5t-20.5 -46.5q0 -27 20.5 -46t48.5 -19t48.5 19t20.5 46q0 28 -20.5 46.5t-48.5 18.5z" />
    <glyph glyph-name="yen" unicode="&#xa5;" 
d="M122 298h84q32 0 32 25q0 8 -4.5 14t-26.5 31q-66 70 -96 130.5t-63 162.5q-9 29 -23 45q-19 23 -19 40q0 40 36 40q1 0 47.5 -3.5t103.5 -3.5q42 0 83 3.5t45 3.5q16 0 26 -11t10 -29q0 -16 -7 -32q-9 -21 -9 -37q0 -10 2 -23.5t6 -27t8 -27.5t8.5 -26t8 -21.5
t6.5 -15.5l2 -7q14 -24 24 -24q17 0 40 62.5t23 105.5q0 18 -7 36q-9 24 -9 33q0 18 11.5 31t28.5 13q14 0 58.5 -3.5t66.5 -3.5q16 0 46.5 3.5t44.5 3.5q15 0 24.5 -11t9.5 -31q0 -17 -16 -33q-3 -3 -5.5 -6.5t-5 -7.5t-4.5 -7t-4 -9t-3.5 -8.5t-4 -10.5t-3.5 -10.5t-4 -13
t-4 -14.5q-45 -147 -126 -237q-35 -38 -41 -46.5t-6 -18.5q0 -24 37 -24h79q26 0 26 -28q0 -27 -28 -27h-81q-33 0 -33 -26q0 -30 33 -30h83q26 0 26 -29q0 -26 -28 -26h-87q-14 0 -20.5 -9t-6.5 -17q0 -12 10 -29q17 -27 17 -43q0 -8 -2.5 -16t-12 -16.5t-25.5 -8.5
q-6 0 -48 3.5t-76 3.5q-23 0 -67.5 -3.5t-62.5 -3.5q-22 0 -31 13.5t-9 26.5q0 21 17 44q12 16 12 28q0 27 -28 27h-92q-7 0 -11.5 1t-10 7.5t-5.5 18.5q0 28 31 28h88q27 0 27 28t-34 28h-85q-27 0 -27 27q0 28 31 28z" />
    <glyph glyph-name="brokenbar" unicode="&#xa6;" horiz-adv-x="585" 
d="M164 675h257v-350h-257v350zM164 175h257v-350h-257v350z" />
    <glyph glyph-name="section" unicode="&#xa7;" 
d="M118 593v1q0 97 73 151.5t175 54.5q50 0 102 -9q2 0 10.5 -2t16.5 -3.5t10 -1.5t19 7t26 7q21 0 32.5 -10.5t13.5 -18.5t4 -22q7 -66 15 -106q11 -39 11 -49q0 -14 -11 -24.5t-27 -10.5q-10 0 -59 22q-44 22 -89 22q-29 0 -41 -11.5t-12 -23.5q0 -28 63 -40
q126 -23 187 -97q40 -48 40 -124q0 -87 -54 -128q-22 -16 -22 -22q0 -3 9.5 -13t18.5 -34t9 -61q0 -92 -67 -156.5t-202 -64.5q-37 0 -69 5t-51 10t-22 5q-6 0 -22 -7q-14 -8 -23 -8q-43 0 -49 45q-12 89 -24 135q-10 35 -10 44q0 15 14 23.5t25 8.5t60 -23q57 -26 104 -26
q20 0 35.5 10t15.5 25q0 14 -11 23t-22.5 12t-33.5 7q-54 9 -109 37t-79 66q-27 42 -27 97t20 88t57 63q7 6 7 10q0 3 -5 10q-32 41 -32 107zM469 282v1q0 34 -61 57q-13 5 -56 17.5t-49 12.5q-9 0 -17 -13t-7 -27q5 -36 42 -47q60 -17 97 -27q6 -2 14 -4.5t12.5 -4
t6.5 -1.5q5 0 11.5 12t6.5 24z" />
    <glyph glyph-name="dieresis" unicode="&#xa8;" horiz-adv-x="500" 
d="M121 848h1q101 0 101 -73q0 -30 -20.5 -47.5t-38.5 -20.5t-38 -3q-107 0 -107 71q0 73 102 73zM379 848h1q101 0 101 -73q0 -30 -20.5 -47.5t-38.5 -20.5t-38 -3q-107 0 -107 71q0 73 102 73z" />
    <glyph glyph-name="copyright" unicode="&#xa9;" horiz-adv-x="889" 
d="M445 808h1q60 0 138 -24.5t143 -84.5q65 -59 100.5 -141t35.5 -169q0 -174 -122 -296t-295 -122q-118 0 -216 60t-151 156t-53 204q0 78 32 155.5t95 139.5q50 49 113.5 78.5t103.5 36.5t75 7zM449 720h-1q-137 0 -235.5 -97.5t-98.5 -233.5q0 -139 97.5 -235t232.5 -96
q140 0 235.5 97.5t95.5 235.5q0 135 -96.5 232t-229.5 97zM604 399h-75q-44 0 -44 27q0 18 -1 26.5t-9.5 17t-24.5 8.5q-50 0 -50 -72q0 -42 24 -61.5t82 -19.5q29 0 79.5 8.5t56.5 8.5q8 0 16.5 -6.5t8.5 -17.5q0 -5 -4 -20t-9.5 -32t-6.5 -20t-5.5 -30.5t-7.5 -32.5
q-11 -20 -64.5 -29t-98.5 -9q-128 0 -200.5 60.5t-72.5 184.5q0 67 23.5 117t62 77t81 39.5t87.5 12.5q82 0 146 -26q33 -13 43 -23.5t10 -25.5q0 -3 -1.5 -22.5t-1.5 -26.5q0 -13 3.5 -46t3.5 -38q0 -14 -8.5 -20.5t-17 -7.5t-25.5 -1z" />
    <glyph glyph-name="ordfeminine" unicode="&#xaa;" horiz-adv-x="527" 
d="M34 514v1q0 115 204 115q39 0 39 13q0 25 -50 25q-47 0 -93 -13q-32 -9 -41 -9q-10 0 -19 7.5t-9 16.5q0 2 8.5 38t9.5 43q2 18 4 26q5 20 31 20q9 0 20 -4t13 -4q3 0 17.5 2.5t22.5 3.5q33 4 83 4q150 0 181 -85q9 -25 9 -99v-111q0 -41 8 -51q12 -16 12 -28
q0 -5 -1.5 -11t-9.5 -12.5t-21 -6.5q-1 0 -16.5 0.5t-33 1.5t-22.5 1t-31.5 -1.5t-30.5 -1.5q-16 0 -25 17q0 1 -1 6t-2 8.5t-2 3.5l-20 -13q-42 -28 -87 -28q-77 0 -112 39t-35 86zM276 536v10q0 4 -0.5 6t-4 4t-10.5 2q-57 0 -57 -32q0 -14 12 -20.5t23 -6.5q37 0 37 37z
" />
    <glyph glyph-name="guillemotleft" unicode="&#xab;" horiz-adv-x="723" 
d="M377 91v-1q0 -10 -10 -21.5t-29 -11.5q-7 0 -32 2t-39 2q-9 0 -30.5 -2t-26.5 -2q-17 0 -35 27l-110 171q-23 37 -23 58q0 23 29 66l109 168q15 23 36 23q5 0 28.5 -2t27.5 -2q6 0 35 2t34 2q20 0 31 -12.5t11 -26.5q0 -13 -20 -44l-82 -127q-21 -32 -21 -49
q0 -15 21 -48l82 -133q14 -22 14 -39zM674 91v-1q0 -10 -10 -21.5t-29 -11.5q-7 0 -32 2t-39 2q-9 0 -30.5 -2t-26.5 -2q-17 0 -35 27l-110 171q-23 37 -23 58q0 23 29 66l109 168q15 23 36 23q5 0 28.5 -2t27.5 -2q6 0 35 2t34 2q20 0 31 -12.5t11 -26.5q0 -13 -20 -44
l-82 -127q-21 -32 -21 -49q0 -15 21 -48l82 -133q14 -22 14 -39z" />
    <glyph glyph-name="logicalnot" unicode="&#xac;" horiz-adv-x="585" 
d="M296 0v131h-257v223h507v-354h-250z" />
    <glyph glyph-name="uni00AD" unicode="&#xad;" horiz-adv-x="439" 
d="M79 434h282q42 0 42 -37q0 -6 -2.5 -39.5t-2.5 -38.5q0 -6 2.5 -39.5t2.5 -39.5q0 -32 -42 -32h-282q-43 0 -43 35q0 11 2.5 37.5t2.5 36.5q0 14 -2.5 44.5t-2.5 41.5q0 31 43 31z" />
    <glyph glyph-name="registered" unicode="&#xae;" horiz-adv-x="889" 
d="M445 808h1q60 0 138 -24.5t143 -84.5t100.5 -141.5t35.5 -168.5q0 -113 -55 -209t-151 -152.5t-211 -56.5q-118 0 -215.5 59.5t-151 155.5t-53.5 205q0 114 60 211t156 151.5t203 54.5zM449 720h-1q-137 0 -235.5 -97.5t-98.5 -233.5q0 -139 97.5 -235t232.5 -96
q138 0 234.5 97t96.5 237q0 133 -96 230.5t-230 97.5zM418 297v-33q0 -40 3 -50q6 -20 6 -26q0 -29 -30 -29l-14 1q-14 1 -30 2t-20 1q-5 0 -32 -2t-31 -2q-29 0 -29 28q0 3 3.5 18t3.5 18q1 7 1 41v262q0 34 -1 42q0 3 -4 16.5t-4 17.5q0 30 34 30q5 0 31 -2t30 -2
q8 0 51.5 2t50.5 2q45 0 83 -7.5t73 -25t54.5 -51t19.5 -81.5q0 -62 -35 -97q-4 -4 -11.5 -10.5t-11.5 -10t-4 -4.5q0 -3 15 -25q18 -25 30 -81q2 -8 18 -38q4 -8 4 -15q0 -27 -40 -27q-4 0 -27 2t-27 2q-6 0 -36.5 -2t-32.5 -2q-28 0 -28 26q0 3 1.5 13.5t1.5 12.5
q0 9 -9.5 32.5t-21.5 40.5q-16 23 -25 23q-10 0 -10 -10zM418 480v-52q0 -9 3 -13t7 -5t12 -1q58 0 58 43q0 45 -53 45q-17 0 -22 -3t-5 -14z" />
    <glyph glyph-name="macron" unicode="&#xaf;" horiz-adv-x="500" 
d="M379 720h-258q-19 0 -27.5 1t-18.5 5.5t-13.5 15.5t-3.5 30q0 43 13 51.5t70 8.5h238q37 0 50.5 -8.5t13.5 -45.5q0 -39 -12 -48.5t-52 -9.5z" />
    <glyph glyph-name="degree" unicode="&#xb0;" 
d="M374 796h1q53 0 91.5 -16.5t58.5 -44.5t28.5 -57t8.5 -60q0 -81 -48 -132.5t-140 -51.5q-93 0 -140.5 52t-47.5 132q0 31 9 60t28.5 56.5t58.5 44.5t92 17zM374 668h-1q-29 0 -40.5 -16.5t-11.5 -35.5q0 -11 3 -22t16 -22.5t34 -11.5t34 12t15.5 23t2.5 21t-3 20.5
t-15.5 21t-33.5 10.5z" />
    <glyph glyph-name="plusminus" unicode="&#xb1;" 
d="M462 643v-120q0 -37 30 -37h141q38 0 38 -30q0 -5 -2 -29.5t-2 -28.5q0 -6 2 -31.5t2 -29.5q0 -29 -38 -29h-141q-30 0 -30 -37v-103q0 -19 -1 -27.5t-7 -16t-19 -7.5q-5 0 -26 1.5t-35 1.5q-8 0 -30 -1.5t-31 -1.5q-13 0 -19 8t-7 16.5t-1 26.5v103q0 37 -30 37h-140
q-38 0 -38 29q0 8 2 27t2 33q0 5 -2 30.5t-2 29.5q0 29 38 29h140q30 0 30 37v120q0 18 1 26.5t7.5 16t19.5 7.5q6 0 26 -1.5t34 -1.5q9 0 30.5 1.5t31.5 1.5q12 0 18 -8t7 -16.5t1 -25.5zM633 -98h-517q-38 0 -38 29q0 8 2 26.5t2 33.5q0 5 -2 30.5t-2 30.5q0 28 38 28h517
q38 0 38 -30q0 -5 -2 -30t-2 -29q0 -6 2 -31t2 -29q0 -29 -38 -29z" />
    <glyph glyph-name="twosuperior" unicode="&#xb2;" horiz-adv-x="471" 
d="M445 624v-1q0 -32 -10 -56t-21.5 -38t-35.5 -25.5t-37.5 -15.5t-42.5 -12q-30 -8 -30 -15q0 -3 5 -4t31 -1q39 0 69 1q10 0 24.5 1.5t19.5 1.5q29 0 29 -25q0 -4 -3.5 -15.5t-8 -23.5t-4.5 -14q-2 -5 -6.5 -28t-5.5 -26q-6 -21 -34 -21q-5 0 -23.5 1.5t-63.5 3.5t-115 2
q-33 0 -68 -1.5t-48 -1.5q-36 0 -36 38q0 11 7 52t15 66q17 57 52.5 92t110.5 50q26 5 32 8t6 11q0 21 -30 21q-38 0 -83 -21q-33 -16 -43 -16q-12 0 -20 7.5t-8 18.5q0 3 2.5 11.5t5.5 20.5t5 18q5 23 8 65q4 35 32 35q2 0 16 -4q10 -5 15 -5t35 9q24 7 60 7
q53 0 93.5 -16.5t62 -43t31.5 -54.5t10 -57z" />
    <glyph glyph-name="threesuperior" unicode="&#xb3;" horiz-adv-x="471" 
d="M440 454v-1q0 -36 -19 -67.5t-51 -49.5q-33 -19 -69 -26.5t-96 -7.5q-102 0 -145 22q-12 6 -13 18q-1 6 -2.5 23t-2.5 29t-2 16q-1 6 -3.5 14t-4 13.5t-1.5 7.5q0 9 8 16t17 7q1 0 12.5 -2.5t24.5 -5.5t14 -3q44 -12 82 -12q55 0 55 27q0 26 -51 26q-6 0 -35 -2.5
t-34 -2.5q-25 0 -25 23q0 3 1 19.5t1 19.5q0 7 -1 19t-1 16t2 9t8.5 9.5t16.5 4.5q5 0 31 -2.5t30 -2.5q48 0 48 21q0 24 -44 24q-37 0 -80 -13q-34 -10 -41 -10q-11 0 -18 6t-7 15q0 7 8.5 37t8.5 31q5 44 10 56q8 17 30 17q7 0 19 -5q10 -6 16 -6q3 0 8.5 1t14 3t16.5 3
q31 7 69 7q77 0 130.5 -35.5t53.5 -108.5q0 -61 -42 -87q-4 -2 -9 -4l-7.5 -3t-2.5 -2q0 -3 3 -4l9 -3t11 -4q22 -11 35.5 -35t13.5 -55z" />
    <glyph glyph-name="acute" unicode="&#xb4;" horiz-adv-x="500" 
d="M393 824v-1q0 -17 -9.5 -31t-44.5 -53q-12 -13 -17.5 -18.5t-13 -9.5t-15.5 -4q-4 0 -24.5 1t-23.5 1q-43 0 -59 -2q-20 0 -20 12q0 4 13 30l39 78q7 15 13 22t9 8t8 1q2 0 25 -2.5t35 -2.5q5 0 27.5 1.5t25.5 1.5q32 0 32 -32z" />
    <glyph glyph-name="mu" unicode="&#xb5;" horiz-adv-x="753" 
d="M330 564v-241q0 -26 1 -39.5t5 -31.5t14.5 -25.5t27.5 -7.5q19 0 28.5 11.5t9.5 27.5q0 3 -1 18.5t-1 17.5l1 166q0 51 -2 63.5t-11 26.5q-17 25 -17 42q0 42 42 42q22 0 66.5 -3.5t66.5 -3.5q23 0 55.5 3.5t42.5 3.5q16 0 25 -4.5t12.5 -15.5t4.5 -20.5t1 -29.5v-397
q0 -51 2 -63t11 -27q17 -28 17 -42q0 -8 -2.5 -16.5t-12.5 -17t-27 -8.5q-21 0 -61 3.5t-61 3.5q-14 0 -46 -3.5t-43 -3.5q-34 0 -38 35q-8 31 -13 32q-2 0 -7 -3.5t-8.5 -7.5t-8 -9t-5.5 -6q-3 -3 -6 -5.5t-6.5 -4.5t-5.5 -3t-7.5 -3t-8 -2.5t-10 -2.5t-11.5 -3
q-13 -4 -13 -21q0 -22 8 -65t8 -45q0 -6 -2 -12.5t-11.5 -14.5t-26.5 -8q-87 5 -125 5q-39 0 -72.5 -2.5t-37.5 -2.5q-17 0 -28 10t-11 27q0 5 3.5 19.5t7 43.5t3.5 68v448q0 50 -1.5 63.5t-10.5 26.5q-18 28 -18 42q0 42 42 42q22 0 67 -3.5t68 -3.5t56 3.5t38 3.5
q27 0 35 -16.5t8 -53.5z" />
    <glyph glyph-name="paragraph" unicode="&#xb6;" horiz-adv-x="699" 
d="M587 437v-377q0 -86 6 -122q9 -55 9 -58q0 -32 -30 -32q-4 0 -31 2.5t-31 2.5q-6 0 -35.5 -2.5t-34.5 -2.5q-29 0 -29 29q0 22 7 62q6 32 6 61v24q0 36 -29 36q-3 0 -16.5 -2t-15.5 -2q-27 -3 -53 -3q-131 0 -211 77.5t-80 217.5q0 200 160 261q55 21 173 21q55 0 62 6
q11 8 11 30q0 37 -7 64q-4 20 -4 29t7.5 18t24.5 9q10 0 32 -1.5t27 -1.5q11 0 33 1.5t33 1.5q12 0 19.5 -8t7.5 -18q0 -4 -3 -21t-4 -24q-3 -24 -3 -42q0 -27 8 -35.5t34 -8.5h31q12 0 18 -1t13 -6.5t7 -16.5q0 -4 -2 -21.5t-2 -20.5q0 -4 2 -23t2 -22q0 -23 -29 -23h-38
q-29 0 -37 -10.5t-8 -47.5zM423 352v81q0 17 -0.5 25.5t-4 19t-12 14.5t-22.5 4q-25 0 -41.5 -14t-22.5 -36.5t-7.5 -35t-1.5 -24.5q0 -105 67 -105q21 0 31.5 13t12 25t1.5 33z" />
    <glyph glyph-name="periodcentered" unicode="&#xb7;" horiz-adv-x="393" 
d="M198 428h1q12 0 22 -0.5t31.5 -3.5t38 -10.5t33.5 -19t26.5 -32t9.5 -47.5q0 -35 -16.5 -59.5t-43.5 -35.5t-52 -15.5t-52 -4.5t-51.5 4.5t-51.5 15.5t-43 35t-16 59q0 29 13 51t31 33.5t42.5 18.5t42.5 9t35 2z" />
    <glyph glyph-name="cedilla" unicode="&#xb8;" horiz-adv-x="500" 
d="M230 0v1q0 11 12 11q3 0 15.5 -2t15.5 -2q2 0 13 1t12 1q16 0 36 -29t20 -62q0 -47 -38.5 -76t-89.5 -29q-42 0 -61 18t-19 40q0 18 12 32t31 14q7 0 23 -5t24 -5q17 0 26 12t9 27q0 11 -5.5 19.5t-11 12t-17.5 10.5q-7 5 -7 11z" />
    <glyph glyph-name="onesuperior" unicode="&#xb9;" horiz-adv-x="471" 
d="M346 754v-337q0 -39 7 -50q12 -20 12 -27q0 -5 -1.5 -10.5t-9 -12t-19.5 -6.5t-39.5 1.5t-43.5 1.5q-17 0 -45 -1.5t-41 -1.5t-20.5 6.5t-9 12t-1.5 10.5q0 10 12 27q8 12 8 50v165q0 21 -16 21q-2 0 -12 -1t-12 -1q-31 0 -31 29q0 4 1.5 21.5t1.5 20.5q0 4 -1.5 24
t-1.5 23q0 29 36 29q48 0 77.5 6t80.5 33q31 16 41 16q19 0 23 -10t4 -39z" />
    <glyph glyph-name="ordmasculine" unicode="&#xba;" horiz-adv-x="527" 
d="M264 799h1q101 0 163.5 -53t62.5 -152q0 -100 -62 -153t-165 -53q-104 0 -165.5 52.5t-61.5 153.5t62 153t165 52zM263 662h-1q-14 0 -23.5 -17.5t-9.5 -49.5q0 -64 35 -64q34 0 34 65q0 66 -35 66z" />
    <glyph glyph-name="guillemotright" unicode="&#xbb;" horiz-adv-x="723" 
d="M48 536v1q0 10 10 21.5t29 11.5q7 0 32 -2t39 -2q9 0 30.5 2t26.5 2q17 0 35 -27l110 -171q23 -37 23 -58q0 -22 -29 -66l-109 -168q-15 -23 -36 -23q-5 0 -28.5 2t-27.5 2q-6 0 -35 -2t-34 -2q-20 0 -31 12.5t-11 26.5q0 13 20 44l82 127q21 32 21 49q0 15 -21 48
l-82 133q-14 22 -14 39zM346 536v1q0 10 10 21.5t29 11.5q7 0 32 -2t39 -2q9 0 30.5 2t26.5 2q17 0 35 -27l110 -171q23 -37 23 -58q0 -22 -29 -66l-109 -168q-15 -23 -36 -23q-5 0 -28.5 2t-27.5 2q-6 0 -35 -2t-34 -2q-20 0 -31 12.5t-11 26.5q0 13 20 44l82 127
q21 32 21 49q0 15 -21 48l-82 133q-14 22 -14 39z" />
    <glyph glyph-name="onequarter" unicode="&#xbc;" horiz-adv-x="1151" 
d="M1011 436v-181q0 -9 0.5 -13t4 -7t10.5 -3q8 1 24 1q28 0 28 -27q0 -4 -1.5 -23t-1.5 -23t1.5 -22.5t1.5 -21.5q0 -28 -30 -28q-2 0 -8.5 0.5t-11.5 0.5h-8q-9 -1 -9 -17q0 -14 4 -26q4 -13 4 -20q0 -15 -9 -22.5t-21 -7.5q-1 0 -20.5 2t-49.5 2q-12 0 -35.5 -2t-34.5 -2
q-34 0 -34 32q0 2 1.5 7.5t3.5 11.5t2 7q1 7 1 24q0 9 -5.5 10.5t-31.5 1.5h-111q-11 0 -17 0.5t-15 3t-13 9t-4 16.5q0 6 1 20t1 24q0 14 -1 27t-2.5 20t-1.5 9q0 13 34 57q135 179 143 186q10 10 26 10q4 0 41 -2t45 -2q6 0 34.5 2t32.5 2q32 0 32 -36zM847 244v56
q0 18 -9 18q-2 0 -13 -14l-44 -59q-7 -11 -7 -13q0 -10 20 -10h29q14 0 19 4t5 18zM314 754v-337q0 -39 7 -50q12 -20 12 -27q0 -5 -1.5 -10.5t-9 -12t-19.5 -6.5t-39.5 1.5t-43.5 1.5q-17 0 -45 -1.5t-41 -1.5t-20.5 6.5t-9 12t-1.5 10.5q0 10 12 27q8 12 8 50v165
q0 21 -16 21q-2 0 -12 -1t-12 -1q-31 0 -31 29q0 4 1.5 21.5t1.5 20.5q0 4 -1.5 24t-1.5 23q0 29 36 29q48 0 77.5 6t80.5 33q31 16 41 16q19 0 23 -10t4 -39zM781 764v-1q0 -10 -4 -18l-322 -714q-15 -33 -34 -33q-5 0 -30 1t-29 1q-6 0 -35.5 -1t-34.5 -1q-25 0 -25 21
q0 14 13 44l307 686q11 25 20.5 32t24.5 7q12 0 36 -1.5t31 -1.5q6 0 29.5 1.5t27.5 1.5q25 0 25 -24z" />
    <glyph glyph-name="onehalf" unicode="&#xbd;" horiz-adv-x="1151" 
d="M333 754v-337q0 -39 7 -50q12 -20 12 -27q0 -5 -1.5 -10.5t-9 -12t-19.5 -6.5t-39.5 1.5t-43.5 1.5q-17 0 -45 -1.5t-41 -1.5t-20.5 6.5t-9 12t-1.5 10.5q0 10 12 27q8 12 8 50v165q0 21 -16 21q-2 0 -12 -1t-12 -1q-31 0 -31 29q0 4 1.5 21.5t1.5 20.5q0 4 -1.5 24
t-1.5 23q0 29 36 29q34 0 50.5 1.5t44 10t63.5 27.5q31 16 41 16q19 0 23 -10t4 -39zM801 764v-1q0 -10 -4 -18l-322 -714q-15 -33 -34 -33q-5 0 -30 1t-29 1q-6 0 -35.5 -1t-34.5 -1q-25 0 -25 21q0 14 13 44l307 686q11 25 20.5 32t24.5 7q12 0 36 -1.5t31 -1.5
q6 0 29.5 1.5t27.5 1.5q25 0 25 -24zM1079 309v-1q0 -32 -10 -56t-21.5 -38t-35.5 -25.5t-37.5 -15.5t-42.5 -12q-30 -8 -30 -15q0 -3 5 -4t31 -1q39 0 69 1q10 0 24.5 1.5t19.5 1.5q29 0 29 -25q0 -4 -3.5 -15.5t-8 -23.5t-4.5 -14q-2 -5 -6.5 -28t-5.5 -26q-6 -21 -34 -21
q-4 0 -10 0.5t-17 1.5t-23 2q-84 3 -152 3q-16 0 -38 -0.5t-30 -0.5q-36 -2 -48 -2q-36 0 -36 38q0 11 7 52t15 66q17 57 52.5 92t110.5 50q26 5 32 8t6 11q0 21 -30 21q-38 0 -83 -21q-33 -16 -43 -16q-12 0 -20 7.5t-8 18.5q0 3 2.5 11.5t5.5 20.5t5 18q5 23 8 65
q4 35 32 35q2 0 16 -4q10 -5 15 -5t35 9q24 7 60 7q53 0 93.5 -16.5t62 -43t31.5 -54.5t10 -57z" />
    <glyph glyph-name="threequarters" unicode="&#xbe;" horiz-adv-x="1151" 
d="M1052 436v-181q0 -9 0.5 -13t4 -7t10.5 -3q8 1 24 1q28 0 28 -27q0 -4 -1.5 -23t-1.5 -23t1.5 -22.5t1.5 -21.5q0 -28 -30 -28q-2 0 -8.5 0.5t-11.5 0.5h-8q-9 -1 -9 -17q0 -14 4 -26q4 -13 4 -20q0 -15 -9 -22.5t-21 -7.5q-1 0 -20.5 2t-49.5 2q-12 0 -35.5 -2t-34.5 -2
q-34 0 -34 32q0 2 1.5 7.5t3.5 11.5t2 7q1 7 1 24q0 9 -5.5 10.5t-31.5 1.5h-111q-11 0 -17 0.5t-15 3t-13 9t-4 16.5q0 6 1 20t1 24q0 14 -1.5 27t-2.5 20t-1 9q0 13 34 57q135 179 143 186q10 10 26 10q5 0 42 -2t44 -2q6 0 34.5 2t32.5 2q32 0 32 -36zM888 244v56
q0 18 -9 18q-3 0 -13 -14l-44 -59q-7 -11 -7 -13q0 -10 20 -10h29q14 0 19 4t5 18zM430 451v-1q0 -36 -19 -67.5t-51 -49.5q-33 -19 -69 -26.5t-96 -7.5q-102 0 -145 22q-12 6 -13 18q-1 6 -2.5 23t-2.5 29t-2 16q-1 6 -3.5 14t-4 13.5t-1.5 7.5q0 9 8 16t17 7
q1 0 12.5 -2.5t24.5 -5.5t14 -3q44 -12 82 -12q55 0 55 27q0 26 -51 26q-6 0 -35 -2.5t-34 -2.5q-25 0 -25 23q0 3 1 19.5t1 19.5q0 6 -1 19t-1 16q0 4 2 9t8.5 9.5t16.5 4.5q5 0 31 -2.5t30 -2.5q48 0 48 21q0 24 -44 24q-37 0 -80 -13q-34 -10 -41 -10q-11 0 -18 6t-7 15
q0 7 8.5 37t8.5 31q5 44 10 56q8 17 30 17q7 0 19 -5q10 -6 16 -6q3 0 8.5 1t14 3t16.5 3q32 7 69 7q77 0 130.5 -35.5t53.5 -108.5q0 -61 -42 -87q-4 -2 -9 -4l-7.5 -3t-2.5 -2q0 -3 3 -4l9 -3t11 -4q49 -25 49 -90zM826 766v-1q0 -10 -4 -18l-322 -714q-15 -33 -34 -33
q-4 0 -29 1t-30 1q-6 0 -35.5 -1t-34.5 -1q-25 0 -25 21q0 14 13 44l307 686q11 25 20.5 32t24.5 7q12 0 36 -1.5t31 -1.5q6 0 29.5 1.5t27.5 1.5q25 0 25 -24z" />
    <glyph glyph-name="questiondown" unicode="&#xbf;" horiz-adv-x="592" 
d="M318 572h-1q-12 0 -21.5 0.5t-31 3.5t-38 10.5t-33.5 19t-26.5 32t-9.5 47.5q0 115 163 115q40 0 73 -7.5t61.5 -34.5t28.5 -72q0 -36 -18 -60.5t-47 -35t-52.5 -14.5t-47.5 -4zM180 473v1q0 2 -1.5 17t-1.5 18q0 11 8.5 19.5t19.5 8.5q1 0 44.5 -8t69.5 -8q29 0 66 8
t47 8q20 0 26 -16.5t6 -62.5q0 -81 -21.5 -115.5t-78.5 -62.5q-31 -17 -31 -33q0 -15 14 -24.5t33 -9.5q38 0 83 26q29 16 43 16q20 0 34 -11.5t14 -24.5q0 -11 -15 -58q-13 -40 -19 -116q-3 -21 -8 -30q-11 -18 -38 -18q-11 0 -25 6t-18 6q-10 0 -40 -8q-36 -9 -85 -9
q-170 0 -241 87q-49 60 -49 144q0 67 27 104.5t89 76.5q27 17 37.5 30t10.5 39z" />
    <glyph glyph-name="Agrave" unicode="&#xc0;" horiz-adv-x="883" 
d="M464 149h-114q-52 0 -57 -30q-2 -12 -2 -16q0 -10 18 -40q7 -11 7 -28t-10 -29.5t-25 -12.5q-6 0 -42.5 3.5t-66.5 3.5q-43 0 -88.5 -3.5t-50.5 -3.5q-18 0 -28 10t-12 17.5t-2 14.5q0 12 4.5 20t23.5 32q12 14 31 93q0 3 0.5 4.5t1 4.5t1.5 5q37 156 109.5 361
t114.5 226q10 5 23 5q5 0 22.5 -2t53 -3.5t84.5 -1.5q42 0 88.5 3.5t51.5 3.5q11 0 19 -3t21.5 -21t28.5 -52q86 -196 179 -565q12 -46 31 -73q15 -21 15 -38q0 -41 -39 -41q-7 0 -60.5 3.5t-106.5 3.5t-94 -3.5t-44 -3.5q-19 0 -30 11t-12.5 19.5t-1.5 14.5q0 15 11 30
q15 21 15 37t-6 25.5t-18 13t-20.5 4.5t-23.5 1zM389 353h53q40 0 40 29q0 42 -39 147q-14 35 -27 35q-9 0 -16 -11t-18 -38q-39 -96 -39 -134q0 -13 8 -19.5t16 -7.5t22 -1zM481 959l53 -68q2 -3 9 -11t10 -13t3 -9q0 -11 -17 -11q-9 0 -28 1t-28 1t-28 -1t-28 -1
q-19 0 -28 7q-36 26 -69.5 58.5t-33.5 50.5q0 9 7 18.5t22 9.5q4 0 28.5 -2t31.5 -2q15 0 35 2t24 2q9 0 14 -4.5t23 -27.5z" />
    <glyph glyph-name="Aacute" unicode="&#xc1;" horiz-adv-x="883" 
d="M464 149h-114q-52 0 -57 -30q-2 -12 -2 -16q0 -10 18 -40q7 -11 7 -28t-10 -29.5t-25 -12.5q-6 0 -42.5 3.5t-66.5 3.5q-43 0 -88.5 -3.5t-50.5 -3.5q-18 0 -28 10t-12 17.5t-2 14.5q0 12 4.5 20t23.5 32q12 14 31 93q0 3 0.5 4.5t1 4.5t1.5 5q37 156 109.5 361
t114.5 226q10 5 23 5q5 0 22.5 -2t53 -3.5t84.5 -1.5q42 0 88.5 3.5t51.5 3.5q11 0 19 -3t21.5 -21t28.5 -52q86 -196 179 -565q12 -46 31 -73q15 -21 15 -38q0 -41 -39 -41q-7 0 -60.5 3.5t-106.5 3.5t-94 -3.5t-44 -3.5q-19 0 -30 11t-12.5 19.5t-1.5 14.5q0 15 11 30
q15 21 15 37t-6 25.5t-18 13t-20.5 4.5t-23.5 1zM389 353h53q40 0 40 29q0 42 -39 147q-14 35 -27 35q-9 0 -16 -11t-18 -38q-39 -96 -39 -134q0 -13 8 -19.5t16 -7.5t22 -1zM383 891l53 68q23 29 28 31q4 2 10 2q3 0 23 -2.5t36 -2.5q7 0 31 1.5t28 1.5q15 0 22 -9.5
t7 -17.5q0 -15 -17.5 -34t-62.5 -57q-20 -17 -27 -21t-18 -4q-6 0 -36 1t-35 1q-4 0 -25.5 -1t-24.5 -1q-14 2 -14 11q0 4 22 33z" />
    <glyph glyph-name="Acircumflex" unicode="&#xc2;" horiz-adv-x="883" 
d="M464 149h-114q-52 0 -57 -30q-2 -12 -2 -16q0 -10 18 -40q7 -11 7 -28t-10 -29.5t-25 -12.5q-6 0 -42.5 3.5t-66.5 3.5q-43 0 -88.5 -3.5t-50.5 -3.5q-18 0 -28 10t-12 17.5t-2 14.5q0 12 4.5 20t23.5 32q12 14 31 93q0 3 0.5 4.5t1 4.5t1.5 5q37 156 109.5 361
t114.5 226q10 5 23 5q5 0 22.5 -2t53 -3.5t84.5 -1.5q42 0 88.5 3.5t51.5 3.5q11 0 19 -3t21.5 -21t28.5 -52q86 -196 179 -565q12 -46 31 -73q15 -21 15 -38q0 -41 -39 -41q-7 0 -60.5 3.5t-106.5 3.5t-94 -3.5t-44 -3.5q-19 0 -30 11t-12.5 19.5t-1.5 14.5q0 15 11 30
q15 21 15 37t-6 25.5t-18 13t-20.5 4.5t-23.5 1zM389 353h53q40 0 40 29q0 42 -39 147q-14 35 -27 35q-9 0 -16 -11t-18 -38q-39 -96 -39 -134q0 -13 8 -19.5t16 -7.5t22 -1zM570 837l-93 52q-28 16 -35 16t-35 -16l-93 -52q-21 -12 -37 -12q-27 0 -43.5 21.5t-16.5 47.5
q0 20 11.5 30.5t46.5 27.5l132 64q24 11 35 11q10 0 35 -11l132 -64q36 -17 46.5 -27.5t10.5 -31.5q0 -26 -16 -47t-38 -21q-21 0 -42 12z" />
    <glyph glyph-name="Atilde" unicode="&#xc3;" horiz-adv-x="883" 
d="M464 149h-114q-52 0 -57 -30q-2 -12 -2 -16q0 -10 18 -40q7 -11 7 -28t-10 -29.5t-25 -12.5q-6 0 -42.5 3.5t-66.5 3.5q-43 0 -88.5 -3.5t-50.5 -3.5q-18 0 -28 10t-12 17.5t-2 14.5q0 12 4.5 20t23.5 32q12 14 31 93q0 3 0.5 4.5t1 4.5t1.5 5q37 156 109.5 361
t114.5 226q10 5 23 5q5 0 22.5 -2t53 -3.5t84.5 -1.5q42 0 88.5 3.5t51.5 3.5q11 0 19 -3t21.5 -21t28.5 -52q86 -196 179 -565q12 -46 31 -73q15 -21 15 -38q0 -41 -39 -41q-7 0 -60.5 3.5t-106.5 3.5t-94 -3.5t-44 -3.5q-19 0 -30 11t-12.5 19.5t-1.5 14.5q0 15 11 30
q15 21 15 37t-6 25.5t-18 13t-20.5 4.5t-23.5 1zM389 353h53q40 0 40 29q0 42 -39 147q-14 35 -27 35q-9 0 -16 -11t-18 -38q-39 -96 -39 -134q0 -13 8 -19.5t16 -7.5t22 -1zM337 999h1q55 0 113 -26q64 -29 87 -29q19 0 28.5 6t20.5 22q22 26 44 26t37.5 -19.5t15.5 -39.5
q0 -37 -42 -68t-103 -31q-44 0 -100 24q-69 30 -92 30q-29 0 -41 -17q-19 -24 -27.5 -30.5t-24.5 -6.5q-26 0 -40.5 19.5t-14.5 39.5q0 37 45 68.5t93 31.5z" />
    <glyph glyph-name="Adieresis" unicode="&#xc4;" horiz-adv-x="883" 
d="M464 149h-114q-52 0 -57 -30q-2 -12 -2 -16q0 -10 18 -40q7 -11 7 -28t-10 -29.5t-25 -12.5q-6 0 -42.5 3.5t-66.5 3.5q-43 0 -88.5 -3.5t-50.5 -3.5q-18 0 -28 10t-12 17.5t-2 14.5q0 12 4.5 20t23.5 32q12 14 31 93q0 3 0.5 4.5t1 4.5t1.5 5q37 156 109.5 361
t114.5 226q10 5 23 5q5 0 22.5 -2t53 -3.5t84.5 -1.5q42 0 88.5 3.5t51.5 3.5q11 0 19 -3t21.5 -21t28.5 -52q86 -196 179 -565q12 -46 31 -73q15 -21 15 -38q0 -41 -39 -41q-7 0 -60.5 3.5t-106.5 3.5t-94 -3.5t-44 -3.5q-19 0 -30 11t-12.5 19.5t-1.5 14.5q0 15 11 30
q15 21 15 37t-6 25.5t-18 13t-20.5 4.5t-23.5 1zM389 353h53q40 0 40 29q0 42 -39 147q-14 35 -27 35q-9 0 -16 -11t-18 -38q-39 -96 -39 -134q0 -13 8 -19.5t16 -7.5t22 -1zM299 995h1q107 0 107 -77q0 -24 -11.5 -40.5t-30.5 -23.5t-33 -9t-28 -2q-112 0 -112 75
q0 77 107 77zM585 995h1q106 0 106 -77q0 -24 -11.5 -40.5t-30.5 -23.5t-32.5 -9t-27.5 -2q-113 0 -113 75q0 77 108 77z" />
    <glyph glyph-name="Aring" unicode="&#xc5;" horiz-adv-x="883" 
d="M464 149h-114q-52 0 -57 -30q-2 -12 -2 -16q0 -10 18 -40q7 -11 7 -28t-10 -29.5t-25 -12.5q-6 0 -42.5 3.5t-66.5 3.5q-43 0 -88.5 -3.5t-50.5 -3.5q-18 0 -28 10t-12 17.5t-2 14.5q0 12 4.5 20t23.5 32q12 14 31 93q0 3 0.5 4.5t1 4.5t1.5 5q37 156 109.5 361
t114.5 226q10 5 23 5q5 0 22.5 -2t53 -3.5t84.5 -1.5q42 0 88.5 3.5t51.5 3.5q11 0 19 -3t21.5 -21t28.5 -52q86 -196 179 -565q12 -46 31 -73q15 -21 15 -38q0 -41 -39 -41q-7 0 -60.5 3.5t-106.5 3.5t-94 -3.5t-44 -3.5q-19 0 -30 11t-12.5 19.5t-1.5 14.5q0 15 11 30
q15 21 15 37t-6 25.5t-18 13t-20.5 4.5t-23.5 1zM389 353h53q40 0 40 29q0 42 -39 147q-14 35 -27 35q-9 0 -16 -11t-18 -38q-39 -96 -39 -134q0 -13 8 -19.5t16 -7.5t22 -1zM442 995h1q171 0 171 -75q0 -76 -176 -76q-15 0 -28 0.5t-41.5 4.5t-47.5 11.5t-35 23t-16 37.5
q0 74 172 74zM442 945h-1q-45 0 -45 -25q0 -27 51 -27q41 0 41 27q0 25 -46 25z" />
    <glyph glyph-name="AE" unicode="&#xc6;" horiz-adv-x="1208" 
d="M824 555v-33q0 -20 12 -24.5t46 -4.5h76q52 0 76 9q35 13 47 13q35 0 35 -40q0 -7 -2 -41.5t-2 -40.5q0 -5 2 -29.5t2 -28.5q0 -12 -8.5 -24.5t-27.5 -12.5q-13 0 -49 14q-20 8 -73 8h-85q-29 0 -39 -6.5t-10 -29.5v-35q0 -25 26 -30q19 -3 111 -3q19 0 38 1.5t34.5 3.5
t29 4.5t24 5.5l17.5 5t13 4l6 2q29 12 40 12q14 0 24 -9t10 -23q0 -10 -9 -35q-19 -53 -35 -148q-4 -20 -9 -29q-9 -17 -38 -17q-12 0 -132.5 3.5t-211.5 3.5q-95 0 -156.5 -3.5t-62.5 -3.5q-18 0 -28.5 9t-12.5 16.5t-2 13.5q0 16 24 54q6 10 6 29q0 41 -59 41h-100
q-41 0 -55 -12q-20 -18 -20 -53q0 -11 2 -19q11 -33 11 -45q0 -13 -9 -23.5t-26 -10.5q-8 0 -51.5 3.5t-67.5 3.5q-25 0 -69 -3.5t-53 -3.5q-21 0 -31.5 12.5t-10.5 28.5q0 21 23 41q25 23 43 78q134 398 272 585q21 28 38 38t43 10q2 0 26.5 -2t98 -3.5t196.5 -1.5
q124 0 208.5 1.5t118.5 3.5t36 2q28 0 36.5 -15t18.5 -73q4 -20 25 -89q3 -9 3 -18q0 -29 -35 -29q-7 0 -31 7t-71 13.5t-112 6.5h-81q-23 0 -23 -34zM530 424v128q0 30 -10 30q-15 0 -48 -51q-67 -105 -67 -135q0 -19 37 -19h53q24 0 29.5 9.5t5.5 37.5z" />
    <glyph glyph-name="Ccedilla" unicode="&#xc7;" horiz-adv-x="803" 
d="M688 410h-121q-27 0 -41.5 2.5t-21.5 12.5t-8 18.5t-1 30.5q0 70 -65 70q-27 0 -45.5 -13t-27 -34.5t-11.5 -40.5t-3 -40q0 -83 45.5 -113t135.5 -30q48 0 133 15t89 15q14 0 25 -9.5t11 -25.5q0 -9 -6.5 -34.5t-15 -53.5t-9.5 -33q-1 -3 -9 -50.5t-12 -55.5
q-7 -17 -37.5 -29.5t-57 -17.5t-71.5 -11q-22 -3 -36 -8.5t-23.5 -18.5t-14 -23t-14.5 -36q-21 -57 -51 -79t-75 -22q-24 0 -41.5 6t-26 14t-13 18t-5 14.5t-0.5 8.5q0 19 12 34t32 15q5 0 25.5 -5.5t24.5 -5.5q17 0 27 12.5t10 33.5q0 12 -4 20.5t-16.5 14.5t-20.5 8.5
t-30.5 8t-32.5 7.5q-65 16 -114.5 49.5t-78 73t-46.5 88t-24 90.5t-6 86q0 216 130 319q118 95 290 95q122 0 236 -45q46 -19 62 -35t16 -39q0 -2 -2 -36t-2 -54q0 -28 5 -76t5 -62q0 -21 -11 -31t-23.5 -11.5t-39.5 -1.5z" />
    <glyph glyph-name="Egrave" unicode="&#xc8;" horiz-adv-x="742" 
d="M358 284v-35q0 -27 26 -30q19 -3 111 -3q19 0 38 1.5t34.5 3.5t29 4.5t24 5.5l17.5 5t13 4l6 2q29 12 40 12q14 0 24 -9t10 -23t-10 -38q-9 -23 -20 -73t-14 -73q-2 -15 -8 -26q-11 -19 -39 -19q-14 0 -56.5 1.5t-135.5 3.5t-229 2q-48 0 -96.5 -3.5t-49.5 -3.5
q-23 0 -32 14t-9 28q0 13 18 42q8 14 10.5 29.5t2.5 60.5v445q0 27 -0.5 41t-2.5 23.5t-3.5 12.5t-6.5 12q-18 30 -18 43q0 42 44 42q6 0 31 -2t74.5 -3.5t117.5 -1.5q116 0 191 1.5t104 3.5t34 2q27 0 35.5 -13.5t17.5 -62.5q8 -41 16 -68q14 -47 14 -52q0 -13 -10.5 -20.5
t-24.5 -7.5l-64 14q-63 13 -152 13h-79q-23 -3 -23 -34v-33q0 -20 12 -24.5t46 -4.5h76q52 0 76 9q33 13 47 13q35 0 35 -39q0 -7 -2 -41.5t-2 -40.5q0 -4 2 -29t2 -30q0 -12 -8.5 -24.5t-27.5 -12.5q-10 0 -49 14q-20 8 -73 8h-85q-29 0 -39 -6.5t-10 -29.5zM410 959
l53 -68q2 -3 9 -11t10 -13t3 -9q0 -11 -17 -11q-10 0 -28 1t-28 1t-28 -1t-28 -1q-19 0 -28 7q-36 26 -69.5 58.5t-33.5 50.5q0 9 7.5 18.5t21.5 9.5q4 0 28.5 -2t31.5 -2q15 0 35 2t24 2q9 0 14 -4.5t23 -27.5z" />
    <glyph glyph-name="Eacute" unicode="&#xc9;" horiz-adv-x="742" 
d="M358 284v-35q0 -27 26 -30q19 -3 111 -3q19 0 38 1.5t34.5 3.5t29 4.5t24 5.5l17.5 5t13 4l6 2q29 12 40 12q14 0 24 -9t10 -23t-10 -38q-9 -23 -20 -73t-14 -73q-2 -15 -8 -26q-11 -19 -39 -19q-14 0 -56.5 1.5t-135.5 3.5t-229 2q-48 0 -96.5 -3.5t-49.5 -3.5
q-23 0 -32 14t-9 28q0 13 18 42q8 14 10.5 29.5t2.5 60.5v445q0 27 -0.5 41t-2.5 23.5t-3.5 12.5t-6.5 12q-18 30 -18 43q0 42 44 42q6 0 31 -2t74.5 -3.5t117.5 -1.5q116 0 191 1.5t104 3.5t34 2q27 0 35.5 -13.5t17.5 -62.5q8 -41 16 -68q14 -47 14 -52q0 -13 -10.5 -20.5
t-24.5 -7.5l-64 14q-63 13 -152 13h-79q-23 -3 -23 -34v-33q0 -20 12 -24.5t46 -4.5h76q52 0 76 9q33 13 47 13q35 0 35 -39q0 -7 -2 -41.5t-2 -40.5q0 -4 2 -29t2 -30q0 -12 -8.5 -24.5t-27.5 -12.5q-10 0 -49 14q-20 8 -73 8h-85q-29 0 -39 -6.5t-10 -29.5zM312 891l53 68
q23 29 28 31q4 2 10 2q3 0 23 -2.5t36 -2.5q6 0 31 1.5t28 1.5q15 0 22 -9.5t7 -17.5q0 -15 -17.5 -34t-62.5 -57q-20 -17 -27 -21t-18 -4q-6 0 -36 1t-35 1q-4 0 -25.5 -1t-24.5 -1q-14 2 -14 11q0 4 22 33z" />
    <glyph glyph-name="Ecircumflex" unicode="&#xca;" horiz-adv-x="742" 
d="M358 284v-35q0 -27 26 -30q19 -3 111 -3q19 0 38 1.5t34.5 3.5t29 4.5t24 5.5l17.5 5t13 4l6 2q29 12 40 12q14 0 24 -9t10 -23t-10 -38q-9 -23 -20 -73t-14 -73q-2 -15 -8 -26q-11 -19 -39 -19q-14 0 -56.5 1.5t-135.5 3.5t-229 2q-48 0 -96.5 -3.5t-49.5 -3.5
q-23 0 -32 14t-9 28q0 13 18 42q8 14 10.5 29.5t2.5 60.5v445q0 27 -0.5 41t-2.5 23.5t-3.5 12.5t-6.5 12q-18 30 -18 43q0 42 44 42q6 0 31 -2t74.5 -3.5t117.5 -1.5q116 0 191 1.5t104 3.5t34 2q27 0 35.5 -13.5t17.5 -62.5q8 -41 16 -68q14 -47 14 -52q0 -13 -10.5 -20.5
t-24.5 -7.5l-64 14q-63 13 -152 13h-79q-23 -3 -23 -34v-33q0 -20 12 -24.5t46 -4.5h76q52 0 76 9q33 13 47 13q35 0 35 -39q0 -7 -2 -41.5t-2 -40.5q0 -4 2 -29t2 -30q0 -12 -8.5 -24.5t-27.5 -12.5q-10 0 -49 14q-20 8 -73 8h-85q-29 0 -39 -6.5t-10 -29.5zM499 837
l-93 52q-28 16 -35 16t-35 -16l-93 -52q-21 -12 -37 -12q-27 0 -43.5 21.5t-16.5 47.5q0 20 11.5 30.5t46.5 27.5l132 64q24 11 35 11q10 0 35 -11l132 -64q36 -17 46.5 -27.5t10.5 -31.5q0 -26 -16 -47t-38 -21q-21 0 -42 12z" />
    <glyph glyph-name="Edieresis" unicode="&#xcb;" horiz-adv-x="742" 
d="M358 284v-35q0 -27 26 -30q19 -3 111 -3q19 0 38 1.5t34.5 3.5t29 4.5t24 5.5l17.5 5t13 4l6 2q29 12 40 12q14 0 24 -9t10 -23t-10 -38q-9 -23 -20 -73t-14 -73q-2 -15 -8 -26q-11 -19 -39 -19q-14 0 -56.5 1.5t-135.5 3.5t-229 2q-48 0 -96.5 -3.5t-49.5 -3.5
q-23 0 -32 14t-9 28q0 13 18 42q8 14 10.5 29.5t2.5 60.5v445q0 27 -0.5 41t-2.5 23.5t-3.5 12.5t-6.5 12q-18 30 -18 43q0 42 44 42q6 0 31 -2t74.5 -3.5t117.5 -1.5q116 0 191 1.5t104 3.5t34 2q27 0 35.5 -13.5t17.5 -62.5q8 -41 16 -68q14 -47 14 -52q0 -13 -10.5 -20.5
t-24.5 -7.5l-64 14q-63 13 -152 13h-79q-23 -3 -23 -34v-33q0 -20 12 -24.5t46 -4.5h76q52 0 76 9q33 13 47 13q35 0 35 -39q0 -7 -2 -41.5t-2 -40.5q0 -4 2 -29t2 -30q0 -12 -8.5 -24.5t-27.5 -12.5q-10 0 -49 14q-20 8 -73 8h-85q-29 0 -39 -6.5t-10 -29.5zM228 995h1
q107 0 107 -77q0 -24 -11.5 -40.5t-30.5 -23.5t-33 -9t-28 -2q-112 0 -112 75q0 77 107 77zM514 995h1q106 0 106 -77q0 -24 -11.5 -40.5t-30.5 -23.5t-32.5 -9t-27.5 -2q-113 0 -113 75q0 77 108 77z" />
    <glyph glyph-name="Igrave" unicode="&#xcc;" horiz-adv-x="441" 
d="M409 34v-1q0 -14 -9.5 -27t-31.5 -13q-5 0 -21 1.5t-47.5 3.5t-74.5 2q-60 0 -104.5 -3.5t-46.5 -3.5q-17 0 -27.5 9t-12.5 17t-2 16q0 13 18 42q8 14 10.5 29.5t2.5 60.5v445q0 27 -0.5 41t-2.5 23.5t-3.5 12.5t-6.5 12q-18 29 -18 43q0 42 45 42q12 0 58 -3.5t80 -3.5
q52 0 97.5 3.5t55.5 3.5q17 0 27 -9t12 -17t2 -16q0 -14 -18 -43q-6 -9 -8 -15t-3.5 -23.5t-1.5 -50.5v-445q0 -49 2.5 -64t10.5 -26q18 -26 18 -43zM259 959l53 -68q2 -3 9 -11t10 -13t3 -9q0 -11 -17 -11q-9 0 -28 1t-28 1t-28 -1t-28 -1q-19 0 -28 7q-36 26 -69.5 58.5
t-33.5 50.5q0 9 7 18.5t22 9.5q4 0 28.5 -2t31.5 -2q15 0 35 2t24 2q9 0 14 -4.5t23 -27.5z" />
    <glyph glyph-name="Iacute" unicode="&#xcd;" horiz-adv-x="441" 
d="M409 34v-1q0 -14 -9.5 -27t-31.5 -13q-5 0 -21 1.5t-47.5 3.5t-74.5 2q-60 0 -104.5 -3.5t-46.5 -3.5q-17 0 -27.5 9t-12.5 17t-2 16q0 13 18 42q8 14 10.5 29.5t2.5 60.5v445q0 27 -0.5 41t-2.5 23.5t-3.5 12.5t-6.5 12q-18 29 -18 43q0 42 45 42q12 0 58 -3.5t80 -3.5
q52 0 97.5 3.5t55.5 3.5q17 0 27 -9t12 -17t2 -16q0 -14 -18 -43q-6 -9 -8 -15t-3.5 -23.5t-1.5 -50.5v-445q0 -49 2.5 -64t10.5 -26q18 -26 18 -43zM161 891l53 68q23 29 28 31q4 2 10 2q3 0 23 -2.5t36 -2.5q7 0 31 1.5t28 1.5q15 0 22 -9.5t7 -17.5q0 -15 -17.5 -34
t-62.5 -57q-20 -17 -27 -21t-18 -4q-6 0 -36 1t-35 1q-4 0 -25.5 -1t-24.5 -1q-14 2 -14 11q0 4 22 33z" />
    <glyph glyph-name="Icircumflex" unicode="&#xce;" horiz-adv-x="441" 
d="M409 34v-1q0 -14 -9.5 -27t-31.5 -13q-5 0 -21 1.5t-47.5 3.5t-74.5 2q-60 0 -104.5 -3.5t-46.5 -3.5q-17 0 -27.5 9t-12.5 17t-2 16q0 13 18 42q8 14 10.5 29.5t2.5 60.5v445q0 27 -0.5 41t-2.5 23.5t-3.5 12.5t-6.5 12q-18 29 -18 43q0 42 45 42q12 0 58 -3.5t80 -3.5
q52 0 97.5 3.5t55.5 3.5q17 0 27 -9t12 -17t2 -16q0 -14 -18 -43q-6 -9 -8 -15t-3.5 -23.5t-1.5 -50.5v-445q0 -49 2.5 -64t10.5 -26q18 -26 18 -43zM348 837l-93 52q-28 16 -35 16t-35 -16l-93 -52q-21 -12 -37 -12q-27 0 -43.5 21.5t-16.5 47.5q0 20 11.5 30.5t46.5 27.5
l132 64q24 11 35 11q10 0 35 -11l132 -64q36 -17 46.5 -27.5t10.5 -31.5q0 -26 -16 -47t-38 -21q-21 0 -42 12z" />
    <glyph glyph-name="Idieresis" unicode="&#xcf;" horiz-adv-x="441" 
d="M91 995h1q107 0 107 -77q0 -24 -11.5 -40.5t-30.5 -23.5t-33 -9t-28 -2q-112 0 -112 75q0 77 107 77zM350 995h1q106 0 106 -77q0 -24 -11.5 -40.5t-30.5 -23.5t-32.5 -9t-27.5 -2q-113 0 -113 75q0 77 108 77zM409 34v-1q0 -14 -9.5 -27t-31.5 -13q-5 0 -21 1.5
t-47.5 3.5t-74.5 2q-60 0 -104.5 -3.5t-46.5 -3.5q-17 0 -27.5 9t-12.5 17t-2 16q0 13 18 42q8 14 10.5 29.5t2.5 60.5v445q0 27 -0.5 41t-2.5 23.5t-3.5 12.5t-6.5 12q-18 29 -18 43q0 42 45 42q12 0 58 -3.5t80 -3.5q52 0 97.5 3.5t55.5 3.5q17 0 27 -9t12 -17t2 -16
q0 -14 -18 -43q-6 -9 -8 -15t-3.5 -23.5t-1.5 -50.5v-445q0 -49 2.5 -64t10.5 -26q18 -26 18 -43z" />
    <glyph glyph-name="Eth" unicode="&#xd0;" horiz-adv-x="845" 
d="M76 475v137q0 51 -2 63t-11 26q-18 28 -18 43q0 42 44 42q22 0 65.5 -3.5t65.5 -3.5q30 0 89.5 3.5t81.5 3.5q201 0 312 -95q62 -53 91.5 -133t29.5 -162q0 -91 -26.5 -163t-68.5 -116t-99 -73t-112.5 -40t-114.5 -11q-19 0 -86 3.5t-101 3.5q-11 0 -67 -3.5t-63 -3.5
q-17 0 -27 9t-12 17t-2 16q0 13 18 42q8 14 10.5 29.5t2.5 60.5v156q0 17 -4 23t-18 6h-19q-36 0 -36 47q0 21 8 32.5t14.5 13t16.5 1.5h16q14 0 18 4t4 25zM374 318v-25q0 -12 0.5 -17.5t4.5 -11t13 -7t25 -1.5q33 0 56 15.5t32.5 40.5t13 44.5t3.5 39.5q0 141 -107 141
q-26 0 -33.5 -8.5t-7.5 -37.5v-27q0 -12 4.5 -15t20.5 -3h29q40 0 40 -47t-38 -47h-31q-18 0 -21.5 -6t-3.5 -28z" />
    <glyph glyph-name="Ntilde" unicode="&#xd1;" horiz-adv-x="895" 
d="M331 30v-1q0 -13 -10.5 -24.5t-32.5 -11.5q-9 0 -53.5 3.5t-67.5 3.5q-15 0 -49.5 -3.5t-45.5 -3.5q-18 0 -29 10.5t-11 27.5q0 16 18 45q13 21 13 91v445q0 48 -2 62t-11 28q-18 30 -18 47q0 37 39 37q19 0 76 -3.5t85 -3.5q31 0 69 3.5t41 3.5q9 0 16.5 -3.5t15.5 -14
t9.5 -13t9.5 -14.5l162 -270q16 -27 28 -27q11 0 11 13q0 3 -1.5 19.5t-1.5 18.5v117q0 70 -12 90q-18 28 -18 47q0 16 11 26.5t27 10.5q6 0 46.5 -3.5t68.5 -3.5q20 0 58 3.5t51 3.5q17 0 28.5 -10.5t11.5 -27.5t-18 -46q-12 -20 -12 -90v-445q0 -50 2 -63.5t10 -27.5
q18 -28 18 -46q0 -14 -10 -25.5t-33 -11.5q-22 0 -66 3.5t-67 3.5q-49 0 -90.5 -3.5t-44.5 -3.5q-28 0 -57 49l-156 264q-16 27 -29 27q-11 0 -11 -13q0 -2 0.5 -19.5t0.5 -42.5v-91q0 -48 2.5 -63t10.5 -28q18 -29 18 -46zM343 999h1q55 0 113 -26q64 -29 87 -29
q19 0 28.5 6t20.5 22q22 26 44 26t37.5 -19.5t15.5 -39.5q0 -37 -42 -68t-103 -31q-44 0 -100 24q-69 30 -92 30q-29 0 -41 -17q-19 -24 -27.5 -30.5t-24.5 -6.5q-26 0 -40.5 19.5t-14.5 39.5q0 37 45 68.5t93 31.5z" />
    <glyph glyph-name="Ograve" unicode="&#xd2;" horiz-adv-x="874" 
d="M431 801h1q201 0 312 -113q108 -108 108 -294q0 -138 -56 -233.5t-148 -139t-213 -43.5q-106 0 -187.5 34t-129.5 92t-72 129t-24 152q0 96 34 183t102 144q108 89 273 89zM437 552h-1q-82 0 -82 -158t82 -158q84 0 84 158t-83 158zM476 959l53 -68q2 -3 9 -11t10 -13
t3 -9q0 -11 -17 -11q-10 0 -28 1t-28 1t-28 -1t-28 -1q-19 0 -28 7q-36 26 -69.5 58.5t-33.5 50.5q0 9 7.5 18.5t21.5 9.5q4 0 28.5 -2t31.5 -2q15 0 35 2t24 2q9 0 14 -4.5t23 -27.5z" />
    <glyph glyph-name="Oacute" unicode="&#xd3;" horiz-adv-x="874" 
d="M431 801h1q201 0 312 -113q108 -108 108 -294q0 -138 -56 -233.5t-148 -139t-213 -43.5q-106 0 -187.5 34t-129.5 92t-72 129t-24 152q0 96 34 183t102 144q108 89 273 89zM437 552h-1q-82 0 -82 -158t82 -158q84 0 84 158t-83 158zM378 891l53 68q23 29 28 31q4 2 10 2
q3 0 23 -2.5t36 -2.5q6 0 31 1.5t28 1.5q15 0 22 -9.5t7 -17.5q0 -15 -17.5 -34t-62.5 -57q-20 -17 -27 -21t-18 -4q-6 0 -36 1t-35 1q-4 0 -25.5 -1t-24.5 -1q-14 2 -14 11q0 4 22 33z" />
    <glyph glyph-name="Ocircumflex" unicode="&#xd4;" horiz-adv-x="874" 
d="M431 801h1q201 0 312 -113q108 -108 108 -294q0 -138 -56 -233.5t-148 -139t-213 -43.5q-106 0 -187.5 34t-129.5 92t-72 129t-24 152q0 96 34 183t102 144q108 89 273 89zM437 552h-1q-82 0 -82 -158t82 -158q84 0 84 158t-83 158zM565 837l-93 52q-28 16 -35 16
t-35 -16l-93 -52q-21 -12 -37 -12q-27 0 -43.5 21.5t-16.5 47.5q0 20 11.5 30.5t46.5 27.5l132 64q24 11 35 11q10 0 35 -11l132 -64q36 -17 46.5 -27.5t10.5 -31.5q0 -26 -16 -47t-38 -21q-21 0 -42 12z" />
    <glyph glyph-name="Otilde" unicode="&#xd5;" horiz-adv-x="874" 
d="M431 801h1q201 0 312 -113q108 -108 108 -294q0 -138 -56 -233.5t-148 -139t-213 -43.5q-106 0 -187.5 34t-129.5 92t-72 129t-24 152q0 96 34 183t102 144q108 89 273 89zM437 552h-1q-82 0 -82 -158t82 -158q84 0 84 158t-83 158zM342 999h1q55 0 113 -26
q64 -29 87 -29q19 0 28.5 6t20.5 22q22 26 44 26t37.5 -19.5t15.5 -39.5q0 -37 -42 -68t-103 -31q-44 0 -100 24q-69 30 -92 30q-29 0 -41 -17q-19 -24 -27.5 -30.5t-24.5 -6.5q-26 0 -40.5 19.5t-14.5 39.5q0 37 45 68.5t93 31.5z" />
    <glyph glyph-name="Odieresis" unicode="&#xd6;" horiz-adv-x="874" 
d="M431 801h1q201 0 312 -113q108 -108 108 -294q0 -138 -56 -233.5t-148 -139t-213 -43.5q-106 0 -187.5 34t-129.5 92t-72 129t-24 152q0 96 34 183t102 144q108 89 273 89zM437 552h-1q-82 0 -82 -158t82 -158q84 0 84 158t-83 158zM294 995h1q107 0 107 -77
q0 -24 -11.5 -40.5t-30.5 -23.5t-33 -9t-28 -2q-112 0 -112 75q0 77 107 77zM580 995h1q106 0 106 -77q0 -24 -11.5 -40.5t-30.5 -23.5t-32.5 -9t-27.5 -2q-113 0 -113 75q0 77 108 77z" />
    <glyph glyph-name="multiply" unicode="&#xd7;" 
d="M113 544v1q0 13 27 34q8 7 27 25.5t25 26.5q21 27 32 27q14 0 39 -25l85 -85q15 -15 25 -15t22 10l99 100q15 15 27 15q14 0 36 -27q23 -30 51 -51q26 -21 26 -34q0 -15 -14 -29l-100 -99q-10 -12 -10 -20q0 -12 15 -27l85 -85q24 -30 25 -36q0 -13 -27 -35
q-8 -6 -26.5 -25t-25.5 -27q-21 -27 -32 -27q-10 0 -16.5 4.5t-22.5 20.5l-85 85q-15 15 -25 15q-11 0 -21 -10l-100 -100q-15 -15 -27 -15q-14 0 -36 27q-13 19 -64 63q-13 11 -13 22q0 15 15 29l99 99q10 10 10 20q0 12 -15 27l-85 85q-17 17 -21 22.5t-4 13.5z" />
    <glyph glyph-name="Oslash" unicode="&#xd8;" horiz-adv-x="874" 
d="M852 387v-1q0 -183 -108.5 -295.5t-307.5 -112.5q-86 0 -141 19q-36 12 -40 12q-14 0 -32 -23l-15 -19q-6 -8 -20 -8q-6 0 -38.5 2t-37.5 2q-6 0 -36 -2t-31 -2q-12 0 -19.5 8.5t-7.5 17.5q0 14 13 30l53 67q18 22 18 33q0 7 -22 43q-58 98 -58 229q0 168 91 279
q111 135 319 135q75 0 154 -21l36 -11q11 0 25 18l16 21q7 9 22 9q5 0 34 -2t33 -2q7 0 40.5 2t38.5 2q11 0 17 -8t6 -16q0 -17 -10 -30l-57 -69q-17 -20 -17 -27q0 -10 18 -36q64 -94 64 -244zM436 552h-1q-81 0 -81 -158t82 -158q84 0 84 158t-84 158z" />
    <glyph glyph-name="Ugrave" unicode="&#xd9;" horiz-adv-x="790" 
d="M22 744v1q0 41 45 41q12 0 57 -3.5t86 -3.5q49 0 97 3.5t60 3.5q16 0 26 -8.5t12.5 -17t2.5 -16.5q0 -15 -18 -43q-6 -9 -8 -15t-3.5 -23.5t-1.5 -50.5v-273q0 -3 -1 -23t-1 -23q0 -27 16 -42t43 -15q66 0 66 48q0 4 -1.5 23.5t-1.5 22.5v282q0 49 -2.5 63t-10.5 26
q-17 28 -17 43q0 42 44 42q16 0 57 -3.5t53 -3.5q21 0 60.5 3.5t51.5 3.5q23 0 32 -13.5t9 -28.5q0 -18 -17 -43q-13 -19 -13 -65v-64q0 -87 2 -114q8 -120 8 -179q0 -164 -101 -236q-91 -65 -240 -65q-182 0 -280 82q-85 71 -85 213q0 18 4 82q2 41 2 144q0 99 -3 164
q-1 25 -18 49q-11 16 -11 32zM434 959l53 -68q2 -3 9 -11t10 -13t3 -9q0 -11 -17 -11q-10 0 -28.5 1t-27.5 1q-10 0 -28 -1t-28 -1q-19 0 -28 7q-36 26 -69.5 58.5t-33.5 50.5q0 9 7.5 18.5t21.5 9.5q4 0 28.5 -2t31.5 -2q15 0 35 2t24 2q9 0 14 -4.5t23 -27.5z" />
    <glyph glyph-name="Uacute" unicode="&#xda;" horiz-adv-x="790" 
d="M22 744v1q0 41 45 41q12 0 57 -3.5t86 -3.5q49 0 97 3.5t60 3.5q16 0 26 -8.5t12.5 -17t2.5 -16.5q0 -15 -18 -43q-6 -9 -8 -15t-3.5 -23.5t-1.5 -50.5v-273q0 -3 -1 -23t-1 -23q0 -27 16 -42t43 -15q66 0 66 48q0 4 -1.5 23.5t-1.5 22.5v282q0 49 -2.5 63t-10.5 26
q-17 28 -17 43q0 42 44 42q16 0 57 -3.5t53 -3.5q21 0 60.5 3.5t51.5 3.5q23 0 32 -13.5t9 -28.5q0 -18 -17 -43q-13 -19 -13 -65v-64q0 -87 2 -114q8 -120 8 -179q0 -164 -101 -236q-91 -65 -240 -65q-182 0 -280 82q-85 71 -85 213q0 18 4 82q2 41 2 144q0 99 -3 164
q-1 25 -18 49q-11 16 -11 32zM336 891l53 68q23 29 28 31q4 2 10 2q3 0 23 -2.5t36 -2.5q6 0 31 1.5t28 1.5q15 0 22 -9.5t7 -17.5q0 -15 -17.5 -34t-62.5 -57q-20 -17 -27 -21t-18 -4q-6 0 -36 1t-35 1q-4 0 -25.5 -1t-24.5 -1q-14 2 -14 11q0 4 22 33z" />
    <glyph glyph-name="Ucircumflex" unicode="&#xdb;" horiz-adv-x="790" 
d="M22 744v1q0 41 45 41q12 0 57 -3.5t86 -3.5q49 0 97 3.5t60 3.5q16 0 26 -8.5t12.5 -17t2.5 -16.5q0 -15 -18 -43q-6 -9 -8 -15t-3.5 -23.5t-1.5 -50.5v-273q0 -3 -1 -23t-1 -23q0 -27 16 -42t43 -15q66 0 66 48q0 4 -1.5 23.5t-1.5 22.5v282q0 49 -2.5 63t-10.5 26
q-17 28 -17 43q0 42 44 42q16 0 57 -3.5t53 -3.5q21 0 60.5 3.5t51.5 3.5q23 0 32 -13.5t9 -28.5q0 -18 -17 -43q-13 -19 -13 -65v-64q0 -87 2 -114q8 -120 8 -179q0 -164 -101 -236q-91 -65 -240 -65q-182 0 -280 82q-85 71 -85 213q0 18 4 82q2 41 2 144q0 99 -3 164
q-1 25 -18 49q-11 16 -11 32zM548 837l-93 52q-28 16 -35 16t-35 -16l-93 -52q-21 -12 -37 -12q-27 0 -43.5 21.5t-16.5 47.5q0 20 11.5 30.5t46.5 27.5l132 64q24 11 35 11q10 0 35 -11l132 -64q36 -17 46.5 -27.5t10.5 -31.5q0 -26 -16 -47t-38 -21q-21 0 -42 12z" />
    <glyph glyph-name="Udieresis" unicode="&#xdc;" horiz-adv-x="790" 
d="M22 744v1q0 41 45 41q12 0 57 -3.5t86 -3.5q49 0 97 3.5t60 3.5q16 0 26 -8.5t12.5 -17t2.5 -16.5q0 -15 -18 -43q-6 -9 -8 -15t-3.5 -23.5t-1.5 -50.5v-273q0 -3 -1 -23t-1 -23q0 -27 16 -42t43 -15q66 0 66 48q0 4 -1.5 23.5t-1.5 22.5v282q0 49 -2.5 63t-10.5 26
q-17 28 -17 43q0 42 44 42q16 0 57 -3.5t53 -3.5q21 0 60.5 3.5t51.5 3.5q23 0 32 -13.5t9 -28.5q0 -18 -17 -43q-13 -19 -13 -65v-64q0 -87 2 -114q8 -120 8 -179q0 -164 -101 -236q-91 -65 -240 -65q-182 0 -280 82q-85 71 -85 213q0 18 4 82q2 41 2 144q0 99 -3 164
q-1 25 -18 49q-11 16 -11 32zM272 995h1q107 0 107 -77q0 -24 -11.5 -40.5t-30.5 -23.5t-33 -9t-28 -2q-112 0 -112 75q0 77 107 77zM558 995h1q106 0 106 -77q0 -24 -11.5 -40.5t-30.5 -23.5t-32.5 -9t-27.5 -2q-113 0 -113 75q0 77 108 77z" />
    <glyph glyph-name="Yacute" unicode="&#xdd;" horiz-adv-x="790" 
d="M574 34v-1q0 -7 -2.5 -15t-12.5 -16.5t-26 -8.5q-2 0 -49 3.5t-91 3.5q-50 0 -95.5 -3.5t-52.5 -3.5q-22 0 -31.5 13t-9.5 28q0 17 17 43q8 13 10.5 27t2.5 63v40q0 27 -9.5 42t-62.5 69q-101 105 -148 347q-4 21 -9 30q-21 33 -21 49q0 18 11 30t32 12q7 0 56.5 -3.5
t108.5 -3.5q51 0 95.5 3.5t54.5 3.5q18 0 30.5 -10.5t12.5 -30.5q0 -16 -13 -39q-12 -24 -12 -43q0 -47 23 -115.5t44 -68.5t45 69t24 117q0 10 -2 19t-4 13.5t-6.5 12.5t-5.5 10q-4 8 -4 20q0 20 13 33t28 13q3 0 51 -3.5t108 -3.5q31 0 64.5 3.5t35.5 3.5q12 0 22.5 -9
t10.5 -30q0 -17 -17 -41q-9 -12 -19 -54q-7 -31 -23 -80.5t-55.5 -132t-83.5 -127.5q-27 -28 -55 -59q-11 -13 -11 -37v-49q2 -53 3.5 -65t9.5 -25q18 -27 18 -43zM351 891l53 68q23 29 28 31q4 2 10 2q3 0 23 -2.5t36 -2.5q7 0 31 1.5t28 1.5q15 0 22 -9.5t7 -17.5
q0 -15 -17.5 -34t-62.5 -57q-20 -17 -27 -21t-18 -4q-6 0 -36 1t-35 1q-4 0 -25.5 -1t-24.5 -1q-14 2 -14 11q0 4 22 33z" />
    <glyph glyph-name="Thorn" unicode="&#xde;" horiz-adv-x="799" 
d="M380 748v-16q0 -15 11 -15q8 0 37 3q30 3 52 3q74 0 132 -21.5t90.5 -53t54 -72t28.5 -74.5t7 -65q0 -54 -17.5 -104.5t-53 -95.5t-99.5 -72t-148 -27q-6 0 -34 1.5t-32 1.5q-29 0 -29 -25q0 -19 12 -39q18 -29 18 -42q0 -42 -41 -42q-5 0 -49.5 3.5t-95.5 3.5
q-50 0 -99 -3.5t-50 -3.5q-42 0 -42 42q0 13 18 42q8 14 10.5 29.5t2.5 60.5v445q0 49 -2 62t-11 27q-18 29 -18 42q0 43 45 43q5 0 48 -3t87 -4q59 0 95.5 3.5t37.5 3.5q35 0 35 -38zM355 480v-106q0 -8 1 -13t10 -10.5t26 -5.5q106 0 106 89q0 83 -100 83q-29 0 -36 -7
t-7 -30z" />
    <glyph glyph-name="germandbls" unicode="&#xdf;" horiz-adv-x="755" 
d="M333 537v-1q0 -7 2.5 -42.5t2.5 -41.5v-379q0 -32 -1.5 -45t-10.5 -24t-29 -11q-18 0 -53.5 3.5t-53.5 3.5q-10 0 -64.5 -3.5t-63.5 -3.5q-40 0 -40 42q0 15 17 42q8 14 10.5 29.5t2.5 60.5v184q0 37 -3.5 110.5t-3.5 110.5q0 46 14.5 83t36.5 60t54.5 40t61 25.5
t64.5 13t55.5 5.5t43.5 1q61 0 116 -12.5t103 -39.5t76.5 -76t28.5 -114q0 -64 -41 -116l-7.5 -7.5t-11 -12t-4.5 -7.5q0 -8 17 -18q86 -51 86 -164q0 -107 -67 -174t-182 -67q-59 0 -93 13q-30 11 -30 38l1 19q1 19 2.5 39t1.5 23q0 6 -2.5 37.5t-2.5 32.5q0 13 9 21.5
t23 8.5q3 0 16 -2.5t15 -2.5q23 0 36 14.5t13 37.5q0 21 -11.5 36t-32.5 15q-16 0 -24 1t-16 8t-8 21q0 4 2 23t2 23t-2 27.5t-2 27.5q0 20 17 31q35 23 35 54q0 22 -14 36t-36 14q-24 0 -39.5 -14.5t-15.5 -36.5z" />
    <glyph glyph-name="agrave" unicode="&#xe0;" horiz-adv-x="728" 
d="M147 645h1q18 0 30 -7t19 -7q3 0 13 1.5t21.5 4t12.5 2.5q57 10 147 10q163 0 236 -78q33 -35 41 -73.5t8 -111.5v-219q0 -49 2.5 -63.5t10.5 -26.5q17 -27 17 -43q0 -14 -9 -27.5t-32 -13.5q-10 0 -51 3.5t-62 3.5q-15 0 -53 -3.5t-43 -3.5q-29 0 -35 34q-4 25 -11 25
q-6 0 -17 -9q-30 -23 -45 -33t-43 -18t-64 -8q-59 0 -103.5 18.5t-68.5 49.5t-35.5 64t-11.5 67q0 188 310 190q45 2 52 4q15 4 15 24q0 42 -84 42q-75 0 -147 -21q-51 -15 -61 -15q-16 0 -26.5 10.5t-10.5 21.5q0 4 2 12l4.5 18t3.5 15q12 49 21 116q1 13 3.5 21t13 16
t29.5 8zM395 225v10q0 7 -1.5 11.5t-8 8.5t-18.5 4q-90 0 -90 -55q0 -25 18 -37t39 -12q34 0 47.5 22.5t13.5 47.5zM411 827l39 -78q12 -24 12 -30q0 -12 -19 -12q-9 0 -26.5 1t-25.5 1q-9 0 -27 -1t-25 -1q-15 0 -23.5 6t-28.5 29q-44 51 -49 64q-3 8 -3 17q0 33 33 33
q4 0 26 -1.5t26 -1.5q21 0 38.5 2.5t22.5 2.5t8 -1t9 -8.5t13 -21.5z" />
    <glyph glyph-name="aacute" unicode="&#xe1;" horiz-adv-x="728" 
d="M147 645h1q18 0 30 -7t19 -7q3 0 13 1.5t21.5 4t12.5 2.5q57 10 147 10q163 0 236 -78q33 -35 41 -73.5t8 -111.5v-219q0 -49 2.5 -63.5t10.5 -26.5q17 -27 17 -43q0 -14 -9 -27.5t-32 -13.5q-10 0 -51 3.5t-62 3.5q-15 0 -53 -3.5t-43 -3.5q-29 0 -35 34q-4 25 -11 25
q-6 0 -17 -9q-30 -23 -45 -33t-43 -18t-64 -8q-59 0 -103.5 18.5t-68.5 49.5t-35.5 64t-11.5 67q0 188 310 190q45 2 52 4q15 4 15 24q0 42 -84 42q-75 0 -147 -21q-51 -15 -61 -15q-16 0 -26.5 10.5t-10.5 21.5q0 4 2 12l4.5 18t3.5 15q12 49 21 116q1 13 3.5 21t13 16
t29.5 8zM395 225v10q0 7 -1.5 11.5t-8 8.5t-18.5 4q-90 0 -90 -55q0 -25 18 -37t39 -12q34 0 47.5 22.5t13.5 47.5zM507 824v-1q0 -17 -9.5 -31t-44.5 -53q-12 -13 -17.5 -18.5t-13 -9.5t-15.5 -4q-4 0 -24.5 1t-23.5 1q-43 0 -59 -2q-20 0 -20 12q0 4 13 30l39 78
q7 15 13 22t9 8t8 1q2 0 25 -2.5t35 -2.5q5 0 27.5 1.5t25.5 1.5q32 0 32 -32z" />
    <glyph glyph-name="acircumflex" unicode="&#xe2;" horiz-adv-x="728" 
d="M147 645h1q18 0 30 -7t19 -7q3 0 13 1.5t21.5 4t12.5 2.5q57 10 147 10q163 0 236 -78q33 -35 41 -73.5t8 -111.5v-219q0 -49 2.5 -63.5t10.5 -26.5q17 -27 17 -43q0 -14 -9 -27.5t-32 -13.5q-10 0 -51 3.5t-62 3.5q-15 0 -53 -3.5t-43 -3.5q-29 0 -35 34q-4 25 -11 25
q-6 0 -17 -9q-30 -23 -45 -33t-43 -18t-64 -8q-59 0 -103.5 18.5t-68.5 49.5t-35.5 64t-11.5 67q0 188 310 190q45 2 52 4q15 4 15 24q0 42 -84 42q-75 0 -147 -21q-51 -15 -61 -15q-16 0 -26.5 10.5t-10.5 21.5q0 4 2 12l4.5 18t3.5 15q12 49 21 116q1 13 3.5 21t13 16
t29.5 8zM395 225v10q0 7 -1.5 11.5t-8 8.5t-18.5 4q-90 0 -90 -55q0 -25 18 -37t39 -12q34 0 47.5 22.5t13.5 47.5zM571 748v-1q0 -24 -16 -44t-40 -20q-22 0 -36 11l-81 67q-20 14 -32 14q-18 0 -35 -14l-82 -67q-14 -11 -32 -11q-27 0 -43.5 19t-16.5 47q0 14 8 23t47 38
l119 88q14 10 31 10q24 0 36 -10l118 -88q39 -29 47 -38t8 -24z" />
    <glyph glyph-name="atilde" unicode="&#xe3;" horiz-adv-x="728" 
d="M147 645h1q18 0 30 -7t19 -7q3 0 13 1.5t21.5 4t12.5 2.5q57 10 147 10q163 0 236 -78q33 -35 41 -73.5t8 -111.5v-219q0 -49 2.5 -63.5t10.5 -26.5q17 -27 17 -43q0 -14 -9 -27.5t-32 -13.5q-10 0 -51 3.5t-62 3.5q-15 0 -53 -3.5t-43 -3.5q-29 0 -35 34q-4 25 -11 25
q-6 0 -17 -9q-30 -23 -45 -33t-43 -18t-64 -8q-59 0 -103.5 18.5t-68.5 49.5t-35.5 64t-11.5 67q0 188 310 190q45 2 52 4q15 4 15 24q0 42 -84 42q-75 0 -147 -21q-51 -15 -61 -15q-16 0 -26.5 10.5t-10.5 21.5q0 4 2 12l4.5 18t3.5 15q12 49 21 116q1 13 3.5 21t13 16
t29.5 8zM395 225v10q0 7 -1.5 11.5t-8 8.5t-18.5 4q-90 0 -90 -55q0 -25 18 -37t39 -12q34 0 47.5 22.5t13.5 47.5zM147 759v1q0 33 43 64t88 31q33 0 95 -28q9 -4 23 -11t22 -10.5t16.5 -6.5t14.5 -3q18 0 41 29q21 26 40 26q20 0 35.5 -17.5t15.5 -38.5q0 -37 -40.5 -67.5
t-87.5 -30.5q-35 0 -99 30q-60 28 -75 28q-13 0 -20.5 -7t-25.5 -29q-14 -18 -35 -18q-24 0 -37.5 18t-13.5 40z" />
    <glyph glyph-name="adieresis" unicode="&#xe4;" horiz-adv-x="728" 
d="M147 645h1q18 0 30 -7t19 -7q3 0 13 1.5t21.5 4t12.5 2.5q57 10 147 10q163 0 236 -78q33 -35 41 -73.5t8 -111.5v-219q0 -49 2.5 -63.5t10.5 -26.5q17 -27 17 -43q0 -14 -9 -27.5t-32 -13.5q-10 0 -51 3.5t-62 3.5q-15 0 -53 -3.5t-43 -3.5q-29 0 -35 34q-4 25 -11 25
q-6 0 -17 -9q-30 -23 -45 -33t-43 -18t-64 -8q-59 0 -103.5 18.5t-68.5 49.5t-35.5 64t-11.5 67q0 188 310 190q45 2 52 4q15 4 15 24q0 42 -84 42q-75 0 -147 -21q-51 -15 -61 -15q-16 0 -26.5 10.5t-10.5 21.5q0 4 2 12l4.5 18t3.5 15q12 49 21 116q1 13 3.5 21t13 16
t29.5 8zM395 225v10q0 7 -1.5 11.5t-8 8.5t-18.5 4q-90 0 -90 -55q0 -25 18 -37t39 -12q34 0 47.5 22.5t13.5 47.5zM235 848h1q101 0 101 -73q0 -30 -20.5 -47.5t-38.5 -20.5t-38 -3q-107 0 -107 71q0 73 102 73zM493 848h1q101 0 101 -73q0 -30 -20.5 -47.5t-38.5 -20.5
t-38 -3q-107 0 -107 71q0 73 102 73z" />
    <glyph glyph-name="aring" unicode="&#xe5;" horiz-adv-x="728" 
d="M147 645h1q18 0 30 -7t19 -7q3 0 13 1.5t21.5 4t12.5 2.5q57 10 147 10q163 0 236 -78q33 -35 41 -73.5t8 -111.5v-219q0 -49 2.5 -63.5t10.5 -26.5q17 -27 17 -43q0 -14 -9 -27.5t-32 -13.5q-10 0 -51 3.5t-62 3.5q-15 0 -53 -3.5t-43 -3.5q-29 0 -35 34q-4 25 -11 25
q-6 0 -17 -9q-30 -23 -45 -33t-43 -18t-64 -8q-59 0 -103.5 18.5t-68.5 49.5t-35.5 64t-11.5 67q0 188 310 190q45 2 52 4q15 4 15 24q0 42 -84 42q-75 0 -147 -21q-51 -15 -61 -15q-16 0 -26.5 10.5t-10.5 21.5q0 4 2 12l4.5 18t3.5 15q12 49 21 116q1 13 3.5 21t13 16
t29.5 8zM395 225v10q0 7 -1.5 11.5t-8 8.5t-18.5 4q-90 0 -90 -55q0 -25 18 -37t39 -12q34 0 47.5 22.5t13.5 47.5zM376 848h1q162 0 162 -72q0 -23 -18.5 -39t-49 -22.5t-53 -8.5t-45.5 -2q-160 0 -160 73q0 71 163 71zM376 800h-1q-43 0 -43 -24q0 -25 49 -25q38 0 38 25
q0 24 -43 24z" />
    <glyph glyph-name="ae" unicode="&#xe6;" horiz-adv-x="1064" 
d="M989 259h-298h-13t-7.5 -1t-4.5 -3t-1 -6q0 -68 129 -68q58 0 159 22q23 5 30 5q14 0 25 -8.5t11 -22.5q0 -7 -6.5 -27.5t-8.5 -30.5q-2 -11 -5.5 -31.5t-5.5 -30.5q-6 -33 -10 -38q-16 -21 -62 -28q-83 -13 -180 -13q-143 0 -221 58q-8 6 -16.5 14t-13 11.5t-7.5 3.5
q-5 0 -18 -18q-28 -37 -76.5 -53t-98.5 -16q-132 0 -207 65q-28 24 -44.5 62.5t-16.5 78.5q0 190 322 190q20 0 29 1t17 8t8 22q0 17 -14 26t-30 10.5t-43 1.5q-81 0 -134 -17q-55 -18 -71 -18q-14 0 -25 10.5t-11 23.5q0 5 15 65q10 39 15 88q1 10 2.5 16t5.5 15.5t13.5 14
t23.5 4.5q19 0 31 -7q19 -7 21 -7q1 0 8.5 1.5t21.5 3.5l28 4q56 9 107 9q97 0 157 -50q17 -14 22 -14q7 0 24 13q63 51 167 51q72 0 129 -21t91 -53.5t56.5 -78t31 -90t8.5 -93.5q0 -14 -1 -21t-6 -16t-18 -13t-34 -4zM680 370h86q29 0 29 19q0 8 -1.5 16.5t-7.5 22
t-21.5 22t-38.5 8.5q-29 0 -49 -21t-20 -50q0 -17 23 -17zM327 155h1q61 0 68 59q1 10 1 20q0 18 -5 23.5t-24 5.5q-96 0 -96 -64q0 -21 16.5 -32.5t38.5 -11.5z" />
    <glyph glyph-name="ccedilla" unicode="&#xe7;" horiz-adv-x="608" 
d="M602 249v-1q0 -4 -3 -15.5t-7 -25t-5 -15.5q-11 -44 -21 -140q-3 -29 -16.5 -38.5t-67.5 -24.5q-34 -9 -46 -23t-28 -57q-19 -51 -46.5 -73t-72.5 -22q-23 0 -40 6t-25 13t-12.5 16.5t-5 13.5t-0.5 8q0 18 11.5 32.5t31.5 14.5q4 0 23.5 -5t23.5 -5q16 0 25.5 12t9.5 27
q0 19 -12.5 26t-53.5 16q-107 23 -178 104t-71 216q0 150 85.5 245t230.5 95q37 0 91 -10q51 -11 52 -11q7 0 19 7q10 7 24 7q19 0 29 -9.5t11.5 -19t2.5 -26.5q2 -47 16 -114l15 -69q0 -13 -10.5 -21.5t-23.5 -8.5q-8 0 -57 8.5t-81 8.5q-39 0 -68 -16t-29 -51
q0 -68 103 -68q38 0 86.5 14.5t55.5 14.5q13 0 23.5 -11t10.5 -25z" />
    <glyph glyph-name="egrave" unicode="&#xe8;" horiz-adv-x="709" 
d="M644 259h-301q-13 0 -18.5 -0.5t-9 -3.5t-3.5 -9q0 -25 25.5 -39.5t49 -17.5t49.5 -3q66 0 142 15q60 12 61 12q14 0 21.5 -8.5t7.5 -17.5q0 -7 -16 -59q-2 -7 -19 -91q-3 -16 -13 -24.5t-36 -14.5q-83 -20 -192 -20q-173 0 -274.5 82t-101.5 252q0 71 19.5 130t60 106.5
t109 74t159.5 26.5q158 0 243.5 -83t85.5 -241q0 -39 -10.5 -52.5t-38.5 -13.5zM336 370h61q24 0 32 5t8 17q0 30 -17.5 48t-47.5 18q-29 0 -47.5 -19t-18.5 -48q0 -11 6 -16t24 -5zM402 827l39 -78q12 -24 12 -30q0 -12 -19 -12q-9 0 -26.5 1t-25.5 1q-9 0 -27 -1t-25 -1
q-15 0 -23.5 6t-28.5 29q-44 51 -49 64q-3 8 -3 17q0 33 33 33q4 0 26 -1.5t26 -1.5q21 0 38.5 2.5t22.5 2.5t8 -1t9 -8.5t13 -21.5z" />
    <glyph glyph-name="eacute" unicode="&#xe9;" horiz-adv-x="709" 
d="M644 259h-301q-13 0 -18.5 -0.5t-9 -3.5t-3.5 -9q0 -25 25.5 -39.5t49 -17.5t49.5 -3q66 0 142 15q60 12 61 12q14 0 21.5 -8.5t7.5 -17.5q0 -7 -16 -59q-2 -7 -19 -91q-3 -16 -13 -24.5t-36 -14.5q-83 -20 -192 -20q-173 0 -274.5 82t-101.5 252q0 71 19.5 130t60 106.5
t109 74t159.5 26.5q158 0 243.5 -83t85.5 -241q0 -39 -10.5 -52.5t-38.5 -13.5zM336 370h61q24 0 32 5t8 17q0 30 -17.5 48t-47.5 18q-29 0 -47.5 -19t-18.5 -48q0 -11 6 -16t24 -5zM498 824v-1q0 -17 -9.5 -31t-44.5 -53q-12 -13 -17.5 -18.5t-13 -9.5t-15.5 -4
q-4 0 -24.5 1t-23.5 1q-43 0 -59 -2q-20 0 -20 12q0 4 13 30l39 78q7 15 13 22t9 8t8 1q2 0 25 -2.5t35 -2.5q5 0 27.5 1.5t25.5 1.5q32 0 32 -32z" />
    <glyph glyph-name="ecircumflex" unicode="&#xea;" horiz-adv-x="709" 
d="M644 259h-301q-13 0 -18.5 -0.5t-9 -3.5t-3.5 -9q0 -25 25.5 -39.5t49 -17.5t49.5 -3q66 0 142 15q60 12 61 12q14 0 21.5 -8.5t7.5 -17.5q0 -7 -16 -59q-2 -7 -19 -91q-3 -16 -13 -24.5t-36 -14.5q-83 -20 -192 -20q-173 0 -274.5 82t-101.5 252q0 71 19.5 130t60 106.5
t109 74t159.5 26.5q158 0 243.5 -83t85.5 -241q0 -39 -10.5 -52.5t-38.5 -13.5zM336 370h61q24 0 32 5t8 17q0 30 -17.5 48t-47.5 18q-29 0 -47.5 -19t-18.5 -48q0 -11 6 -16t24 -5zM562 748v-1q0 -24 -16 -44t-40 -20q-22 0 -36 11l-81 67q-20 14 -32 14q-18 0 -35 -14
l-82 -67q-14 -11 -32 -11q-27 0 -43.5 19t-16.5 47q0 14 8 23t47 38l119 88q14 10 31 10q24 0 36 -10l118 -88q39 -29 47 -38t8 -24z" />
    <glyph glyph-name="edieresis" unicode="&#xeb;" horiz-adv-x="709" 
d="M644 259h-301q-13 0 -18.5 -0.5t-9 -3.5t-3.5 -9q0 -25 25.5 -39.5t49 -17.5t49.5 -3q66 0 142 15q60 12 61 12q14 0 21.5 -8.5t7.5 -17.5q0 -7 -16 -59q-2 -7 -19 -91q-3 -16 -13 -24.5t-36 -14.5q-83 -20 -192 -20q-173 0 -274.5 82t-101.5 252q0 71 19.5 130t60 106.5
t109 74t159.5 26.5q158 0 243.5 -83t85.5 -241q0 -39 -10.5 -52.5t-38.5 -13.5zM336 370h61q24 0 32 5t8 17q0 30 -17.5 48t-47.5 18q-29 0 -47.5 -19t-18.5 -48q0 -11 6 -16t24 -5zM226 848h1q101 0 101 -73q0 -30 -20.5 -47.5t-38.5 -20.5t-38 -3q-107 0 -107 71
q0 73 102 73zM484 848h1q101 0 101 -73q0 -30 -20.5 -47.5t-38.5 -20.5t-38 -3q-107 0 -107 71q0 73 102 73z" />
    <glyph glyph-name="igrave" unicode="&#xec;" horiz-adv-x="400" 
d="M22 592v1q0 41 41 41q18 0 64 -6t81 -6q30 0 72.5 6t55.5 6q42 0 42 -41q0 -17 -17 -43q-8 -12 -10.5 -26.5t-2.5 -63.5v-293q0 -33 1.5 -51t3.5 -24t8 -15q17 -29 17 -43q0 -41 -40 -41q-6 0 -52.5 3.5t-81.5 3.5q-46 0 -90 -3.5t-51 -3.5q-17 0 -27 9t-12 17t-2 16
q0 16 17 42q9 13 11 28t2 62v293q0 48 -2 62.5t-11 27.5q-17 28 -17 42zM247 827l39 -78q12 -24 12 -30q0 -12 -19 -12q-9 0 -26.5 1t-25.5 1q-9 0 -27 -1t-25 -1q-15 0 -23.5 6t-28.5 29q-3 4 -9 11q-38 43 -42 59q-1 5 -1 11q0 33 33 33q4 0 26 -1.5t26 -1.5
q21 0 38.5 2.5t22.5 2.5t8 -1t9 -8.5t13 -21.5z" />
    <glyph glyph-name="iacute" unicode="&#xed;" horiz-adv-x="400" 
d="M22 592v1q0 41 41 41q18 0 64 -6t81 -6q30 0 72.5 6t55.5 6q42 0 42 -41q0 -17 -17 -43q-8 -12 -10.5 -26.5t-2.5 -63.5v-293q0 -33 1.5 -51t3.5 -24t8 -15q17 -29 17 -43q0 -41 -40 -41q-6 0 -52.5 3.5t-81.5 3.5q-46 0 -90 -3.5t-51 -3.5q-17 0 -27 9t-12 17t-2 16
q0 16 17 42q9 13 11 28t2 62v293q0 48 -2 62.5t-11 27.5q-17 28 -17 42zM343 824v-1q0 -17 -9.5 -31t-44.5 -53q-12 -13 -17.5 -18.5t-13 -9.5t-15.5 -4q-4 0 -24.5 1t-23.5 1q-43 0 -59 -2q-20 0 -20 12q0 4 13 30l39 78q7 15 13 22t9 8t8 1q2 0 25 -2.5t35 -2.5
q5 0 27.5 1.5t25.5 1.5q32 0 32 -32z" />
    <glyph glyph-name="icircumflex" unicode="&#xee;" horiz-adv-x="400" 
d="M22 592v1q0 41 41 41q18 0 64 -6t81 -6q30 0 72.5 6t55.5 6q42 0 42 -41q0 -17 -17 -43q-8 -12 -10.5 -26.5t-2.5 -63.5v-293q0 -33 1.5 -51t3.5 -24t8 -15q17 -29 17 -43q0 -41 -40 -41q-6 0 -52.5 3.5t-81.5 3.5q-46 0 -90 -3.5t-51 -3.5q-17 0 -27 9t-12 17t-2 16
q0 16 17 42q9 13 11 28t2 62v293q0 48 -2 62.5t-11 27.5q-17 28 -17 42zM407 748v-1q0 -24 -16 -44t-40 -20q-22 0 -36 11l-81 67q-20 14 -32 14q-18 0 -35 -14l-82 -67q-14 -11 -32 -11q-27 0 -43.5 19t-16.5 47q0 14 8 23t47 38l119 88q14 10 31 10q24 0 36 -10l118 -88
q39 -29 47 -38t8 -24z" />
    <glyph glyph-name="idieresis" unicode="&#xef;" horiz-adv-x="400" 
d="M85 848h1q92 0 92 -72t-93 -72q-94 0 -94 72t94 72zM316 848h1q92 0 92 -72t-93 -72q-94 0 -94 72t94 72zM22 592v1q0 41 41 41q18 0 64 -6t81 -6q30 0 72.5 6t55.5 6q42 0 42 -41q0 -17 -17 -43q-8 -12 -10.5 -26.5t-2.5 -63.5v-293q0 -33 1.5 -51t3.5 -24t8 -15
q17 -29 17 -43q0 -41 -40 -41q-6 0 -52.5 3.5t-81.5 3.5q-46 0 -90 -3.5t-51 -3.5q-17 0 -27 9t-12 17t-2 16q0 16 17 42q9 13 11 28t2 62v293q0 48 -2 62.5t-11 27.5q-17 28 -17 42z" />
    <glyph glyph-name="eth" unicode="&#xf0;" horiz-adv-x="747" 
d="M731 317v-1q0 -164 -97 -252.5t-265 -88.5q-166 0 -261 90q-92 87 -92 243q0 121 69 200t197 90q43 3 51 8q7 4 7 15q0 9 -7 16.5t-15 7.5q-9 0 -22 -8l-19 -11q-9 -5 -16 -5q-14 0 -24 14t-10 28q0 16 24 31l37 23q19 11 19 19q0 5 -5.5 18t-5.5 21q0 21 22 39t47 18
q23 0 41 -18q10 -10 21 -10q12 0 27 9l34 20q13 7 18 7q13 0 23.5 -15t10.5 -28q0 -18 -22 -30l-24 -14q-8 -5 -8 -13q0 -11 30 -43q123 -130 169 -207.5t46 -172.5zM374 393h-1q-34 0 -49 -28.5t-15 -66.5q0 -37 15.5 -66.5t49.5 -29.5t50 29.5t16 66.5q0 38 -15.5 66.5
t-50.5 28.5z" />
    <glyph glyph-name="ntilde" unicode="&#xf1;" horiz-adv-x="753" 
d="M424 92v232q0 20 -0.5 30t-3 24.5t-7.5 21t-14.5 11.5t-23.5 5q-44 0 -44 -40q0 -3 1.5 -14t1.5 -16v-179q0 -33 1.5 -51t3.5 -24t8 -15q17 -29 17 -43q0 -15 -9 -28t-31 -13q-6 0 -50 3.5t-78 3.5q-25 0 -73 -3.5t-60 -3.5q-41 0 -41 42q0 15 17 42q8 14 10.5 29.5
t2.5 60.5v293q0 47 -2 61.5t-11 28.5q-17 28 -17 42q0 42 41 42q17 0 52 -3.5t52 -3.5q20 0 53.5 3.5t37.5 3.5q32 0 37 -41q2 -24 11 -24q8 0 31 23q57 57 146 57q112 0 175 -75q48 -57 48 -177v-230q0 -48 2 -62t11 -28q17 -27 17 -43q0 -8 -2.5 -16t-12 -16.5t-25.5 -8.5
q-5 0 -51 3.5t-76 3.5q-17 0 -51 -3.5t-49 -3.5q-22 0 -32 12t-11.5 28.5t-1.5 58.5zM160 759v1q0 33 43 64t88 31q33 0 95 -28q9 -4 23 -11t22 -10.5t16.5 -6.5t14.5 -3q18 0 41 29q21 26 40 26q20 0 35.5 -17.5t15.5 -38.5q0 -37 -40.5 -67.5t-87.5 -30.5q-35 0 -99 30
q-60 28 -75 28q-13 0 -20.5 -7t-25.5 -29q-14 -18 -35 -18q-24 0 -37.5 18t-13.5 40z" />
    <glyph glyph-name="ograve" unicode="&#xf2;" horiz-adv-x="750" 
d="M375 652h1q165 0 261.5 -88.5t96.5 -248.5q0 -166 -96.5 -253t-262.5 -87q-165 0 -262 88t-97 251t97 250.5t262 87.5zM374 435h-1q-24 0 -39 -23.5t-18.5 -47.5t-3.5 -49q0 -113 64 -113q62 0 62 117q0 116 -64 116zM422 827l39 -78q12 -24 12 -30q0 -12 -19 -12
q-9 0 -26.5 1t-25.5 1q-9 0 -27 -1t-25 -1q-15 0 -23.5 6t-28.5 29q-44 51 -49 64q-3 8 -3 17q0 33 33 33q4 0 26 -1.5t26 -1.5q21 0 38.5 2.5t22.5 2.5t8 -1t9 -8.5t13 -21.5z" />
    <glyph glyph-name="oacute" unicode="&#xf3;" horiz-adv-x="750" 
d="M375 652h1q165 0 261.5 -88.5t96.5 -248.5q0 -166 -96.5 -253t-262.5 -87q-165 0 -262 88t-97 251t97 250.5t262 87.5zM374 435h-1q-24 0 -39 -23.5t-18.5 -47.5t-3.5 -49q0 -113 64 -113q62 0 62 117q0 116 -64 116zM518 824v-1q0 -17 -9.5 -31t-44.5 -53
q-12 -13 -17.5 -18.5t-13 -9.5t-15.5 -4q-4 0 -24.5 1t-23.5 1q-43 0 -59 -2q-20 0 -20 12q0 4 13 30l39 78q7 15 13 22t9 8t8 1q2 0 25 -2.5t35 -2.5q5 0 27.5 1.5t25.5 1.5q32 0 32 -32z" />
    <glyph glyph-name="ocircumflex" unicode="&#xf4;" horiz-adv-x="750" 
d="M375 652h1q165 0 261.5 -88.5t96.5 -248.5q0 -166 -96.5 -253t-262.5 -87q-165 0 -262 88t-97 251t97 250.5t262 87.5zM374 435h-1q-24 0 -39 -23.5t-18.5 -47.5t-3.5 -49q0 -113 64 -113q62 0 62 117q0 116 -64 116zM582 748v-1q0 -24 -16 -44t-40 -20q-22 0 -36 11
l-81 67q-20 14 -32 14q-18 0 -35 -14l-82 -67q-14 -11 -32 -11q-27 0 -43.5 19t-16.5 47q0 14 8 23t47 38l119 88q14 10 31 10q24 0 36 -10l118 -88q39 -29 47 -38t8 -24z" />
    <glyph glyph-name="otilde" unicode="&#xf5;" horiz-adv-x="750" 
d="M375 652h1q165 0 261.5 -88.5t96.5 -248.5q0 -166 -96.5 -253t-262.5 -87q-165 0 -262 88t-97 251t97 250.5t262 87.5zM374 435h-1q-24 0 -39 -23.5t-18.5 -47.5t-3.5 -49q0 -113 64 -113q62 0 62 117q0 116 -64 116zM158 759v1q0 33 43 64t88 31q33 0 95 -28
q9 -4 23 -11t22 -10.5t16.5 -6.5t14.5 -3q18 0 41 29q21 26 40 26q20 0 35.5 -17.5t15.5 -38.5q0 -37 -40.5 -67.5t-87.5 -30.5q-35 0 -99 30q-60 28 -75 28q-13 0 -21 -7t-25 -29q-14 -18 -35 -18q-24 0 -37.5 18t-13.5 40z" />
    <glyph glyph-name="odieresis" unicode="&#xf6;" horiz-adv-x="750" 
d="M375 652h1q165 0 261.5 -88.5t96.5 -248.5q0 -166 -96.5 -253t-262.5 -87q-165 0 -262 88t-97 251t97 250.5t262 87.5zM374 435h-1q-24 0 -39 -23.5t-18.5 -47.5t-3.5 -49q0 -113 64 -113q62 0 62 117q0 116 -64 116zM246 848h1q101 0 101 -73q0 -30 -20.5 -47.5
t-38.5 -20.5t-38 -3q-107 0 -107 71q0 73 102 73zM504 848h1q101 0 101 -73q0 -30 -20.5 -47.5t-38.5 -20.5t-38 -3q-107 0 -107 71q0 73 102 73z" />
    <glyph glyph-name="divide" unicode="&#xf7;" 
d="M374 774h1q69 0 97.5 -37.5t28.5 -83.5q0 -53 -33.5 -86.5t-93.5 -33.5q-58 0 -92 32.5t-34 87.5q0 21 5.5 40.5t18.5 38.5t39.5 30.5t62.5 11.5zM633 308h-517q-38 0 -38 29q0 8 2 27t2 33q0 5 -2 30.5t-2 29.5q0 29 38 29h517q38 0 38 -30q0 -5 -2 -29.5t-2 -28.5
q0 -5 2 -31t2 -30q0 -29 -38 -29zM371 261h1q38 0 64.5 -12.5t38.5 -33t17 -38.5t5 -37q0 -54 -34 -87t-92 -33q-60 0 -93.5 33t-33.5 87q0 47 29 84t98 37z" />
    <glyph glyph-name="oslash" unicode="&#xf8;" horiz-adv-x="750" 
d="M40 -15v1q0 9 12 23l33 42q10 13 10 20q0 8 -19 34q-60 82 -60 209q0 158 94 248t261 90q67 0 128 -15q2 0 17 -5t17 -5q11 0 18 12l11 14q8 10 19 10l11 -1q12 0 25 -1t17 -1q6 0 33.5 1.5t28.5 1.5q8 0 13 -5t6.5 -9.5t1.5 -7.5q0 -10 -11 -25l-35 -44q-13 -15 -13 -22
q0 -6 25 -43q51 -76 51 -192q0 -162 -97 -252q-92 -88 -269 -88q-65 0 -106 12q-5 1 -14 3.5t-15.5 4t-7.5 1.5q-9 0 -18 -11l-11 -13q-9 -10 -20 -10q-4 0 -30 1.5t-30 1.5q-8 0 -27 -1.5t-27 -1.5q-22 0 -22 23zM374 435h-1q-25 0 -43 -29t-18 -91q0 -113 64 -113
q62 0 62 117q0 116 -64 116z" />
    <glyph glyph-name="ugrave" unicode="&#xf9;" horiz-adv-x="753" 
d="M330 564v-241q0 -26 1 -39.5t5 -31.5t14.5 -25.5t27.5 -7.5q18 0 28 10.5t10 28.5q0 3 -1 18.5t-1 17.5l1 166q0 50 -2 63t-11 27q-17 27 -17 42q0 42 41 42q14 0 61 -3.5t73 -3.5q23 0 55.5 3.5t42.5 3.5q16 0 25 -4.5t12.5 -15.5t4.5 -20.5t1 -29.5v-397q0 -51 2 -63
t11 -27q17 -27 17 -43q0 -14 -9 -27.5t-32 -13.5q-15 0 -57 3.5t-65 3.5q-14 0 -47 -3.5t-45 -3.5q-15 0 -23.5 6t-11.5 13.5t-6 22.5t-4.5 18t-5.5 3q-2 0 -20 -16q-63 -56 -158 -56q-108 0 -158 67.5t-50 178.5q0 16 4 102t4 100q0 68 -2.5 86.5t-10.5 31.5q-18 28 -18 42
q0 42 42 42q13 0 61 -3.5t74 -3.5q23 0 56 3.5t38 3.5q27 0 35 -16.5t8 -53.5zM424 827l39 -78q12 -24 12 -30q0 -12 -19 -12q-9 0 -26.5 1t-25.5 1q-9 0 -27 -1t-25 -1q-15 0 -23.5 6t-28.5 29q-44 51 -49 64q-3 8 -3 17q0 33 33 33q4 0 26 -1.5t26 -1.5q21 0 38.5 2.5
t22.5 2.5t8 -1t9 -8.5t13 -21.5z" />
    <glyph glyph-name="uacute" unicode="&#xfa;" horiz-adv-x="753" 
d="M330 564v-241q0 -26 1 -39.5t5 -31.5t14.5 -25.5t27.5 -7.5q18 0 28 10.5t10 28.5q0 3 -1 18.5t-1 17.5l1 166q0 50 -2 63t-11 27q-17 27 -17 42q0 42 41 42q14 0 61 -3.5t73 -3.5q23 0 55.5 3.5t42.5 3.5q16 0 25 -4.5t12.5 -15.5t4.5 -20.5t1 -29.5v-397q0 -51 2 -63
t11 -27q17 -27 17 -43q0 -14 -9 -27.5t-32 -13.5q-15 0 -57 3.5t-65 3.5q-14 0 -47 -3.5t-45 -3.5q-15 0 -23.5 6t-11.5 13.5t-6 22.5t-4.5 18t-5.5 3q-2 0 -20 -16q-63 -56 -158 -56q-108 0 -158 67.5t-50 178.5q0 16 4 102t4 100q0 68 -2.5 86.5t-10.5 31.5q-18 28 -18 42
q0 42 42 42q13 0 61 -3.5t74 -3.5q23 0 56 3.5t38 3.5q27 0 35 -16.5t8 -53.5zM520 824v-1q0 -17 -9.5 -31t-44.5 -53q-12 -13 -17.5 -18.5t-13 -9.5t-15.5 -4q-4 0 -24.5 1t-23.5 1q-43 0 -59 -2q-20 0 -20 12q0 4 13 30l39 78q7 15 13 22t9 8t8 1q2 0 25 -2.5t35 -2.5
q5 0 27.5 1.5t25.5 1.5q32 0 32 -32z" />
    <glyph glyph-name="ucircumflex" unicode="&#xfb;" horiz-adv-x="753" 
d="M330 564v-241q0 -26 1 -39.5t5 -31.5t14.5 -25.5t27.5 -7.5q18 0 28 10.5t10 28.5q0 3 -1 18.5t-1 17.5l1 166q0 50 -2 63t-11 27q-17 27 -17 42q0 42 41 42q14 0 61 -3.5t73 -3.5q23 0 55.5 3.5t42.5 3.5q16 0 25 -4.5t12.5 -15.5t4.5 -20.5t1 -29.5v-397q0 -51 2 -63
t11 -27q17 -27 17 -43q0 -14 -9 -27.5t-32 -13.5q-15 0 -57 3.5t-65 3.5q-14 0 -47 -3.5t-45 -3.5q-15 0 -23.5 6t-11.5 13.5t-6 22.5t-4.5 18t-5.5 3q-2 0 -20 -16q-63 -56 -158 -56q-108 0 -158 67.5t-50 178.5q0 16 4 102t4 100q0 68 -2.5 86.5t-10.5 31.5q-18 28 -18 42
q0 42 42 42q13 0 61 -3.5t74 -3.5q23 0 56 3.5t38 3.5q27 0 35 -16.5t8 -53.5zM584 748v-1q0 -24 -16 -44t-40 -20q-22 0 -36 11l-81 67q-20 14 -32 14q-18 0 -35 -14l-82 -67q-14 -11 -32 -11q-27 0 -43.5 19t-16.5 47q0 14 8 23t47 38l119 88q14 10 31 10q23 0 36 -10
l118 -88q39 -29 47 -38t8 -24z" />
    <glyph glyph-name="udieresis" unicode="&#xfc;" horiz-adv-x="753" 
d="M330 564v-241q0 -26 1 -39.5t5 -31.5t14.5 -25.5t27.5 -7.5q18 0 28 10.5t10 28.5q0 3 -1 18.5t-1 17.5l1 166q0 50 -2 63t-11 27q-17 27 -17 42q0 42 41 42q14 0 61 -3.5t73 -3.5q23 0 55.5 3.5t42.5 3.5q16 0 25 -4.5t12.5 -15.5t4.5 -20.5t1 -29.5v-397q0 -51 2 -63
t11 -27q17 -27 17 -43q0 -14 -9 -27.5t-32 -13.5q-15 0 -57 3.5t-65 3.5q-14 0 -47 -3.5t-45 -3.5q-15 0 -23.5 6t-11.5 13.5t-6 22.5t-4.5 18t-5.5 3q-2 0 -20 -16q-63 -56 -158 -56q-108 0 -158 67.5t-50 178.5q0 16 4 102t4 100q0 68 -2.5 86.5t-10.5 31.5q-18 28 -18 42
q0 42 42 42q13 0 61 -3.5t74 -3.5q23 0 56 3.5t38 3.5q27 0 35 -16.5t8 -53.5zM248 848h1q101 0 101 -73q0 -30 -20.5 -47.5t-38.5 -20.5t-38 -3q-107 0 -107 71q0 73 102 73zM506 848h1q101 0 101 -73q0 -30 -20.5 -47.5t-38.5 -20.5t-38 -3q-107 0 -107 71q0 73 102 73z
" />
    <glyph glyph-name="yacute" unicode="&#xfd;" horiz-adv-x="682" 
d="M-16 591v1q0 20 11 31t29 11q14 0 69.5 -3.5t90.5 -3.5q32 0 69 3.5t48 3.5q21 0 29.5 -13.5t8.5 -29.5q0 -9 -10 -40q-2 -6 -2 -21q0 -87 30 -196q7 -27 11.5 -34.5t11.5 -7.5q9 0 18 32q31 116 31 195q0 20 -6.5 41t-6.5 31q0 19 10.5 31t26.5 12q4 0 47 -3.5t69 -3.5
q23 0 56 3.5t36 3.5q17 0 27.5 -12.5t10.5 -26.5q0 -10 -3 -16t-20 -33q-18 -29 -35 -134q-6 -38 -21 -105t-49 -172t-71 -166q-79 -131 -265 -131q-62 0 -124.5 7.5t-84.5 15.5q-27 10 -27 43q0 6 2 35t2 34t-2 30.5t-2 29.5q0 16 9 23.5t18 7.5q2 0 58 -16t81 -16
q27 0 27 22q0 12 -4 19q-12 24 -17 32q-43 69 -81 171.5t-55 189.5q-12 62 -32 86q-19 22 -19 39zM494 824v-1q0 -17 -9.5 -31t-44.5 -53q-12 -13 -17.5 -18.5t-13 -9.5t-15.5 -4q-4 0 -24.5 1t-23.5 1q-43 0 -59 -2q-20 0 -20 12q0 4 13 30l39 78q7 15 13 22t9 8t8 1
q2 0 25 -2.5t35 -2.5q5 0 27.5 1.5t25.5 1.5q32 0 32 -32z" />
    <glyph glyph-name="thorn" unicode="&#xfe;" horiz-adv-x="772" 
d="M336 749v-1q0 -3 -1.5 -33t-1.5 -64q0 -27 14 -27q1 0 35 9.5t81 9.5q77 0 135.5 -29.5t91.5 -78.5t49.5 -104t16.5 -114q0 -145 -84 -240t-224 -95q-40 0 -71 9q-26 8 -29 8q-8 0 -8 -14q0 -48 12 -69q18 -32 18 -43q0 -7 -2 -15t-12 -17t-27 -9q-1 0 -51 3.5t-79 3.5
q-34 0 -81 -3.5t-55 -3.5q-23 0 -32 13t-9 28q0 16 17 43q8 14 10.5 29.5t2.5 61.5v607q0 65 -13 87q-17 28 -17 44q0 41 44 41q22 0 65 -3.5t65 -3.5q32 0 68 3.5t40 3.5q32 0 32 -37zM338 341v-59q0 -83 53 -83q62 0 62 112q0 56 -17.5 85.5t-45.5 29.5q-24 0 -36 -15.5
t-14 -30.5t-2 -39z" />
    <glyph glyph-name="ydieresis" unicode="&#xff;" horiz-adv-x="682" 
d="M-16 591v1q0 20 11 31t29 11q14 0 69.5 -3.5t90.5 -3.5q32 0 69 3.5t48 3.5q21 0 29.5 -13.5t8.5 -29.5q0 -9 -10 -40q-2 -6 -2 -21q0 -87 30 -196q7 -27 11.5 -34.5t11.5 -7.5q9 0 18 32q31 116 31 195q0 20 -6.5 41t-6.5 31q0 19 10.5 31t26.5 12q4 0 47 -3.5t69 -3.5
q23 0 56 3.5t36 3.5q17 0 27.5 -12.5t10.5 -26.5q0 -10 -3 -16t-20 -33q-18 -29 -35 -134q-6 -38 -21 -105t-49 -172t-71 -166q-79 -131 -265 -131q-62 0 -124.5 7.5t-84.5 15.5q-27 10 -27 43q0 6 2 35t2 34t-2 30.5t-2 29.5q0 16 9 23.5t18 7.5q2 0 58 -16t81 -16
q27 0 27 22q0 12 -4 19q-12 24 -17 32q-43 69 -81 171.5t-55 189.5q-12 62 -32 86q-19 22 -19 39zM227 848h1q101 0 101 -73q0 -30 -20.5 -47.5t-38.5 -20.5t-38 -3q-107 0 -107 71q0 73 102 73zM485 848h1q101 0 101 -73q0 -30 -20.5 -47.5t-38.5 -20.5t-38 -3
q-107 0 -107 71q0 73 102 73z" />
    <glyph glyph-name="dotlessi" unicode="&#x131;" horiz-adv-x="400" 
d="M22 592v1q0 41 41 41q18 0 64 -6t81 -6q30 0 72.5 6t55.5 6q42 0 42 -41q0 -17 -17 -43q-8 -12 -10.5 -26.5t-2.5 -63.5v-293q0 -33 1.5 -51t3.5 -24t8 -15q17 -29 17 -43q0 -41 -40 -41q-6 0 -52.5 3.5t-81.5 3.5q-46 0 -90 -3.5t-51 -3.5q-17 0 -27 9t-12 17t-2 16
q0 16 17 42q9 13 11 28t2 62v293q0 48 -2 62.5t-11 27.5q-17 28 -17 42z" />
    <glyph glyph-name="Lslash" unicode="&#x141;" horiz-adv-x="575" 
d="M69 396v216q0 48 -2.5 62.5t-10.5 26.5q-17 26 -17 43q0 42 44 42q16 0 62 -3.5t81 -3.5q33 0 83.5 3.5t64.5 3.5q16 0 26 -8.5t12.5 -17t2.5 -16.5q0 -18 -17 -43q-9 -13 -11 -28.5t-2 -60.5v-32q0 -21 9 -21q4 0 22 11l74 45q12 8 18 8q14 0 25.5 -13t11.5 -35
q0 -24 -25 -38l-99 -60q-25 -14 -30.5 -22t-5.5 -30v-120q0 -44 7 -54t43 -10q42 0 67.5 14.5t39.5 14.5q19 0 29 -11t10 -24q0 -1 -25 -94q-12 -42 -18 -84q-5 -35 -10 -43q-11 -21 -40 -21q-5 0 -25 1.5t-77.5 3.5t-154.5 2q-57 0 -100.5 -3.5t-50.5 -3.5q-41 0 -41 42
q0 15 17 42q9 13 11 28t2 62v74q0 20 -9 20q-7 0 -25 -12q-12 -9 -21 -9q-16 0 -27.5 13.5t-11.5 31.5q0 25 26 40l30 18q26 15 32 23t6 30z" />
    <glyph glyph-name="lslash" unicode="&#x142;" horiz-adv-x="447" 
d="M374 409v-242q0 -33 1.5 -51t3.5 -24t8 -15q18 -26 18 -43q0 -15 -9.5 -28t-31.5 -13q-4 0 -49 3.5t-79 3.5q-24 0 -69.5 -3.5t-64.5 -3.5q-40 0 -40 42q0 15 17 42q9 13 11 28t2 62v80q0 20 -9 20q-6 0 -10 -3l-22 -13q-7 -5 -17 -5q-15 0 -25.5 11t-10.5 27q0 12 6 19
t20 15l30 19q26 15 32 23t6 29v232q0 60 -13 80q-17 29 -17 43q0 42 44 42q21 0 62.5 -3.5t62.5 -3.5q32 0 69 3.5t41 3.5q33 0 33 -57v-175q0 -21 10 -21q4 0 14 6l24 15q6 4 13 4q12 0 22.5 -10t10.5 -28q0 -22 -21 -36l-36 -22q-27 -18 -32 -25t-5 -28z" />
    <glyph glyph-name="OE" unicode="&#x152;" horiz-adv-x="1170" 
d="M786 555v-33q0 -20 11.5 -24.5t46.5 -4.5h76q52 0 76 9q36 13 48 13q34 0 34 -40q0 -7 -1.5 -41.5t-1.5 -40.5q0 -5 1.5 -29.5t1.5 -28.5q0 -12 -8.5 -24.5t-27.5 -12.5q-11 0 -48 14q-21 8 -74 8h-85q-29 0 -39 -6.5t-10 -29.5v-35q0 -25 27 -30q18 -3 110 -3
q96 0 162 26q29 12 40 12q18 0 26 -11t8 -21q0 -13 -10 -39q-9 -23 -19.5 -73t-13.5 -73q-1 -13 -9 -26q-9 -17 -39 -17q-15 0 -59 1.5t-65 1.5q-78 3 -167 3q-111 0 -207 -4q-126 -6 -132 -6q-89 0 -160.5 22.5t-118.5 60.5t-78.5 89.5t-45 107t-13.5 115.5q0 197 114 303
q108 101 308 101q50 0 69 -1q165 -9 233 -9q148 0 238 4q25 1 46.5 2t25.5 1q28 0 36 -14t18 -66q9 -45 26 -97q4 -12 4 -18q0 -13 -10.5 -21t-24.5 -8q-15 0 -59 13q-48 14 -163 14h-74q-23 -3 -23 -34zM426 554h-1q-86 0 -86 -156q0 -166 86 -166q85 0 85 163
q0 159 -84 159z" />
    <glyph glyph-name="oe" unicode="&#x153;" horiz-adv-x="1124" 
d="M1057 259h-306q-15 0 -20.5 -2.5t-5.5 -11.5q0 -20 15.5 -34t40.5 -20t44.5 -8t39.5 -2q66 0 121 14q51 13 58 13q35 0 35 -33q0 -13 -16 -61q-4 -13 -7.5 -27.5t-6 -30t-4.5 -22.5q-3 -15 -13.5 -23t-36.5 -14q-79 -19 -191 -19q-122 0 -191 52q-23 17 -27 17
q-3 0 -8.5 -3.5t-13.5 -10t-14 -10.5q-71 -45 -178 -45q-85 0 -150.5 24t-103 60t-62 84t-32.5 90.5t-8 84.5q0 83 29 147.5t79.5 103t113.5 58t135 19.5q122 0 186 -52q14 -12 22 -12q4 0 11 4.5t18 12t19 12.5q60 35 158 35q35 0 72.5 -5.5t92 -30t88.5 -66.5
q68 -82 68 -224q0 -36 -9 -50t-42 -14zM375 431h-1q-66 0 -66 -119q0 -107 67 -107q66 0 66 115q0 111 -66 111zM742 371h84q11 0 16 0.5t9.5 5.5t4.5 14q0 30 -17.5 48.5t-47.5 18.5t-51 -19.5t-21 -49.5q0 -18 23 -18z" />
    <glyph glyph-name="Scaron" unicode="&#x160;" horiz-adv-x="703" 
d="M31 533v1q0 90 46.5 151.5t117 88t159.5 26.5q36 0 83.5 -7t81 -14.5t37.5 -7.5q6 0 19 6t24 6q20 0 35.5 -11.5t15.5 -28.5q0 -1 -1.5 -19t-1.5 -30q0 -32 13.5 -86t13.5 -55q0 -9 -7.5 -20.5t-23.5 -11.5q-8 0 -78.5 24.5t-115.5 24.5q-53 0 -53 -45q0 -22 16 -36.5
t61 -24.5l44 -11t43.5 -13.5t43.5 -19.5t36.5 -27t32 -37t19.5 -49t8 -63q0 -54 -18.5 -99t-50 -75.5t-74.5 -51.5t-90.5 -30.5t-98.5 -9.5q-24 0 -56.5 3.5t-62 8.5t-55.5 10.5t-42 9.5l-17 3q-7 0 -23.5 -9t-31.5 -9q-33 0 -41 18t-8 59q0 66 -22 137q-6 27 -6 33
q0 14 10.5 25t23.5 11q12 0 20 -4q9 -4 28 -14t26 -13t22 -10.5t21 -10t18.5 -8t18.5 -7t16 -4.5t17 -4t15.5 -2t17.5 -1q23 0 37.5 12t14.5 34q0 24 -19.5 38.5t-65.5 26.5q-59 16 -99 40t-67 70.5t-27 111.5zM387 969l93 53q22 12 38 12q27 0 43 -22t16 -48
q0 -20 -10.5 -29.5t-47.5 -27.5l-132 -65q-20 -10 -34 -10q-16 0 -36 10l-132 65q-37 18 -47 27t-10 30q0 27 16.5 48t37.5 21t42 -11l93 -53q30 -15 35 -15t35 15z" />
    <glyph glyph-name="scaron" unicode="&#x161;" horiz-adv-x="615" 
d="M26 432v1q0 73 40 123.5t99.5 71.5t132.5 21q64 0 115 -11q11 -2 23 -5t19.5 -4.5t10.5 -1.5t15 6q12 5 22 5q16 0 31 -10t15 -31q0 -1 -0.5 -11t-0.5 -19v-18q2 -19 11 -60.5t9 -48.5q0 -11 -8 -20.5t-20 -9.5q-8 0 -62.5 19t-84.5 19q-47 0 -47 -33q0 -21 31 -29
q8 -2 34 -8t37.5 -9.5t31.5 -10.5t35 -15.5t29 -19.5q55 -45 55 -128q0 -59 -24.5 -102.5t-66.5 -67.5t-90.5 -35.5t-103.5 -11.5q-41 0 -85 6.5t-72.5 13t-30.5 6.5q-6 0 -20.5 -7.5t-28.5 -7.5t-23.5 6.5t-12.5 19t-4 21t-1 22.5q0 37 -5 56q-18 73 -18 84q0 15 10 24
t23 9q5 0 68.5 -26.5t105.5 -26.5q39 0 39 30q0 16 -15 24.5t-66 22.5q-152 42 -152 177zM101 844v1q0 24 16 44t40 20q22 0 36 -11l81 -67q20 -14 32 -14q18 0 35 14l82 67q14 11 32 11q27 0 43.5 -19t16.5 -47q0 -14 -8 -23t-47 -38l-119 -88q-14 -10 -31 -10
q-24 0 -36 10l-118 88q-39 29 -47 38t-8 24z" />
    <glyph glyph-name="Ydieresis" unicode="&#x178;" horiz-adv-x="790" 
d="M574 34v-1q0 -7 -2.5 -15t-12.5 -16.5t-26 -8.5q-2 0 -49 3.5t-91 3.5q-50 0 -95.5 -3.5t-52.5 -3.5q-22 0 -31.5 13t-9.5 28q0 17 17 43q8 13 10.5 27t2.5 63v40q0 27 -9.5 42t-62.5 69q-101 105 -148 347q-4 21 -9 30q-21 33 -21 49q0 18 11 30t32 12q7 0 56.5 -3.5
t108.5 -3.5q51 0 95.5 3.5t54.5 3.5q18 0 30.5 -10.5t12.5 -30.5q0 -16 -13 -39q-12 -24 -12 -43q0 -47 23 -115.5t44 -68.5t45 69t24 117q0 10 -2 19t-4 13.5t-6.5 12.5t-5.5 10q-4 8 -4 20q0 20 13 33t28 13q3 0 51 -3.5t108 -3.5q31 0 64.5 3.5t35.5 3.5q12 0 22.5 -9
t10.5 -30q0 -17 -17 -41q-9 -12 -19 -54q-7 -31 -23 -80.5t-55.5 -132t-83.5 -127.5q-27 -28 -55 -59q-11 -13 -11 -37v-49q2 -53 3.5 -65t9.5 -25q18 -27 18 -43zM267 995h1q107 0 107 -77q0 -24 -11.5 -40.5t-30.5 -23.5t-33 -9t-28 -2q-112 0 -112 75q0 77 107 77z
M553 995h1q106 0 106 -77q0 -24 -11.5 -40.5t-30.5 -23.5t-32.5 -9t-27.5 -2q-113 0 -113 75q0 77 108 77z" />
    <glyph glyph-name="Zcaron" unicode="&#x17d;" horiz-adv-x="657" 
d="M623 753v-1q0 -12 -6 -40t-30 -96.5t-62 -147.5q-62 -130 -64 -134q-9 -19 -9 -36q0 -33 46 -33q37 0 65 18.5t45 18.5q16 0 25.5 -8t10.5 -13t1 -9q0 -13 -31 -97q-7 -19 -19 -61q-13 -44 -17 -63q-6 -33 -17 -45.5t-39 -12.5q-4 0 -91.5 3.5t-142.5 3.5
q-72 0 -123.5 -2t-76.5 -3.5t-32 -1.5q-40 0 -40 37q0 52 84 237q43 94 83 162q31 52 31 73q0 30 -45 30q-30 0 -48 -18q-19 -19 -41 -19q-8 0 -16 2t-16 11t-8 24q0 7 10.5 38.5t23 68t14.5 45.5q1 3 8 35.5t9 38.5q10 28 50 28q6 0 79 -3.5t155 -3.5q59 0 123.5 3.5
t71.5 3.5q39 0 39 -33zM384 969l93 53q22 12 38 12q27 0 43 -22t16 -48q0 -20 -10.5 -29.5t-47.5 -27.5l-132 -65q-20 -10 -34 -10q-16 0 -36 10l-132 65q-37 18 -47 27t-10 30q0 27 16.5 48t37.5 21t42 -11l93 -53q30 -15 35 -15t35 15z" />
    <glyph glyph-name="zcaron" unicode="&#x17e;" horiz-adv-x="562" 
d="M544 593v-1q0 -54 -52 -172q-22 -49 -61 -123q-14 -26 -14 -41q0 -12 10 -19.5t23 -7.5t32 11.5t35 11.5q15 0 26.5 -7.5t11.5 -19.5q0 -2 -16 -58q-9 -27 -27 -114q-3 -15 -5.5 -23t-9.5 -18t-19 -14.5t-31 -4.5q-2 0 -73.5 3.5t-141.5 3.5q-58 0 -116 -3.5t-65 -3.5
q-20 0 -32 12t-12 27q0 29 35 120t86 173q30 48 30 64q0 10 -9 16.5t-20 6.5t-27.5 -10.5t-29.5 -10.5q-40 0 -40 33q0 6 2.5 16t9 30t10.5 37q13 48 20 91q6 36 57 36q7 0 38.5 -2t86 -3.5t117.5 -1.5q31 0 73 3.5t56 3.5q18 0 30 -11t12 -30zM89 844v1q0 24 16 44t40 20
q22 0 36 -11l81 -67q20 -14 32 -14q18 0 35 14l82 67q14 11 32 11q27 0 43.5 -19t16.5 -47q0 -14 -8 -23t-47 -38l-119 -88q-14 -10 -31 -10q-24 0 -36 10l-118 88q-39 29 -47 38t-8 24z" />
    <glyph glyph-name="florin" unicode="&#x192;" 
d="M480 193q-15 -79 -36 -134q-44 -114 -112 -159q-83 -55 -187 -55q-15 0 -41.5 2t-62 11t-42.5 23q-4 9 -7 42q-6 69 -24 120q-10 27 -10 34q0 16 16 27.5t33 11.5q11 0 33.5 -10t41.5 -10q47 0 70 33q18 26 26 55q5 20 5 31q0 25 -26 25q-3 0 -17 -1t-16 -1q-15 0 -24 8
t-9 19q0 7 16 51q12 34 20 89q2 17 4 24.5t6.5 18t12.5 14.5t21 4q3 0 20 -1t19 -1q26 0 37 17t23 83q20 104 84.5 170.5t179.5 66.5q16 0 56 -5q7 -1 15 -2.5t12 -2.5t5 -1q3 0 17 6q17 5 26 5q22 0 33 -11.5t13.5 -26t6.5 -52.5q2 -20 23 -111q5 -23 5 -28
q0 -15 -14.5 -24t-33.5 -9q-17 0 -43.5 8t-43.5 8q-22 0 -42 -14.5t-20 -39.5q0 -35 42 -35q5 0 17 0.5t17 0.5q47 0 47 -27q0 -6 -19 -63q-8 -25 -19 -95q-4 -25 -17 -33.5t-42 -8.5q-3 0 -23 1.5t-24 1.5q-24 0 -33.5 -12t-14.5 -38z" />
    <glyph glyph-name="circumflex" unicode="&#x2c6;" horiz-adv-x="500" 
d="M457 748v-1q0 -24 -16 -44t-40 -20q-22 0 -36 11l-81 67q-20 14 -32 14q-18 0 -35 -14l-82 -67q-14 -11 -32 -11q-27 0 -43.5 19t-16.5 47q0 14 8 23t47 38l119 88q14 10 31 10q24 0 36 -10l118 -88q39 -29 47 -38t8 -24z" />
    <glyph glyph-name="caron" unicode="&#x2c7;" horiz-adv-x="500" 
d="M43 844v1q0 24 16 44t40 20q22 0 36 -11l81 -67q20 -14 32 -14q18 0 35 14l82 67q14 11 32 11q27 0 43.5 -19t16.5 -47q0 -14 -8 -23t-47 -38l-119 -88q-14 -10 -31 -10q-24 0 -36 10l-118 88q-39 29 -47 38t-8 24z" />
    <glyph glyph-name="uni02C9" unicode="&#x2c9;" horiz-adv-x="500" 
d="M379 720h-258q-19 0 -27.5 1t-18.5 5.5t-13.5 15.5t-3.5 30q0 43 13 51.5t70 8.5h238q37 0 50.5 -8.5t13.5 -45.5q0 -39 -12 -48.5t-52 -9.5z" />
    <glyph glyph-name="breve" unicode="&#x2d8;" horiz-adv-x="500" 
d="M88 874h77q16 0 22 -6.5t7 -23.5q1 -33 15.5 -51.5t40.5 -18.5q28 0 42 20.5t15 49.5q0 19 7 24.5t21 5.5h77q13 0 18.5 -1.5t10.5 -10.5t5 -28q0 -72 -55 -110.5t-141 -38.5q-79 0 -137.5 36t-58.5 115q0 18 6.5 27t12 10t15.5 1z" />
    <glyph glyph-name="dotaccent" unicode="&#x2d9;" horiz-adv-x="500" 
d="M250 849h1q151 0 151 -73t-152 -73t-152 73t152 73z" />
    <glyph glyph-name="ring" unicode="&#x2da;" horiz-adv-x="500" 
d="M250 848h1q162 0 162 -72q0 -23 -18.5 -39t-49 -22.5t-53 -8.5t-45.5 -2q-160 0 -160 73q0 71 163 71zM250 800h-1q-43 0 -43 -24q0 -25 49 -25q38 0 38 25q0 24 -43 24z" />
    <glyph glyph-name="ogonek" unicode="&#x2db;" horiz-adv-x="500" 
d="M507 0v-1q0 -6 -7 -10q-12 -7 -17.5 -10.5t-11 -12t-5.5 -19.5q0 -15 9.5 -27t25.5 -12q7 0 23 5t24 5q20 0 31.5 -14t11.5 -32q0 -22 -18.5 -40t-61.5 -18q-51 0 -89.5 29t-38.5 76q0 33 20 62t36 29l11 -1q12 -1 14 -1t15 2t16 2q12 0 12 -12z" />
    <glyph glyph-name="tilde" unicode="&#x2dc;" horiz-adv-x="500" 
d="M33 759v1q0 33 43 64t88 31q33 0 95 -28q9 -4 23 -11t22 -10.5t16.5 -6.5t14.5 -3q18 0 41 29q21 26 40 26q20 0 35.5 -17.5t15.5 -38.5q0 -37 -40.5 -67.5t-87.5 -30.5q-35 0 -99 30q-60 28 -75 28q-13 0 -21 -7t-25 -29q-14 -18 -35 -18q-24 0 -37.5 18t-13.5 40z" />
    <glyph glyph-name="hungarumlaut" unicode="&#x2dd;" horiz-adv-x="500" 
d="M19 748l16 68q4 19 7.5 25.5t12.5 6.5q1 0 18.5 -2.5t31.5 -2.5q6 0 25.5 1.5t23.5 1.5q14 0 25 -12t11 -28q0 -14 -33 -77q-9 -17 -13 -21t-14 -4t-33.5 1t-32.5 1q-4 0 -17.5 -1t-16.5 -1q-17 0 -17 16q0 3 6 28zM242 748l16 68q4 19 7.5 25.5t12.5 6.5q1 0 18.5 -2.5
t31.5 -2.5q6 0 26 1.5t23 1.5q14 0 25 -12t11 -28q0 -14 -33 -77q-9 -17 -13 -21t-14 -4t-33.5 1t-32.5 1q-4 0 -17.5 -1t-16.5 -1q-17 0 -17 16q0 3 6 28z" />
    <glyph glyph-name="uni03A9" unicode="&#x3a9;" horiz-adv-x="940" 
d="M195 190v4q-59 43 -102 110.5t-43 156.5q0 141 114.5 242.5t306.5 101.5q99 0 179.5 -29.5t131.5 -78.5t78 -109t27 -124q0 -156 -149 -270v-4h165v-190h-408v145q66 43 99.5 103t33.5 166q0 92 -42.5 146t-113.5 54q-69 0 -115.5 -55t-46.5 -152q0 -95 36 -163t99 -99
v-145h-410v190h160z" />
    <glyph glyph-name="uni03BC" unicode="&#x3bc;" horiz-adv-x="753" 
d="M330 564v-241q0 -26 1 -39.5t5 -31.5t14.5 -25.5t27.5 -7.5q19 0 28.5 11.5t9.5 27.5q0 3 -1 18.5t-1 17.5l1 166q0 51 -2 63.5t-11 26.5q-17 25 -17 42q0 42 42 42q22 0 66.5 -3.5t66.5 -3.5q23 0 55.5 3.5t42.5 3.5q16 0 25 -4.5t12.5 -15.5t4.5 -20.5t1 -29.5v-397
q0 -51 2 -63t11 -27q17 -28 17 -42q0 -8 -2.5 -16.5t-12.5 -17t-27 -8.5q-21 0 -61 3.5t-61 3.5q-14 0 -46 -3.5t-43 -3.5q-34 0 -38 35q-8 31 -13 32q-2 0 -7 -3.5t-8.5 -7.5t-8 -9t-5.5 -6q-3 -3 -6 -5.5t-6.5 -4.5t-5.5 -3t-7.5 -3t-8 -2.5t-10 -2.5t-11.5 -3
q-13 -4 -13 -21q0 -22 8 -65t8 -45q0 -6 -2 -12.5t-11.5 -14.5t-26.5 -8q-87 5 -125 5q-39 0 -72.5 -2.5t-37.5 -2.5q-17 0 -28 10t-11 27q0 5 3.5 19.5t7 43.5t3.5 68v448q0 50 -1.5 63.5t-10.5 26.5q-18 28 -18 42q0 42 42 42q22 0 67 -3.5t68 -3.5t56 3.5t38 3.5
q27 0 35 -16.5t8 -53.5z" />
    <glyph glyph-name="pi" unicode="&#x3c0;" horiz-adv-x="835" 
d="M805 406h-71v-213q0 -126 14 -193h-251q-22 31 -22 179v227h-98q-1 -95 -17.5 -216t-42.5 -190h-251q26 103 44 219.5t14 186.5q-72 0 -105 -7l-22 154q44 49 247 49h581z" />
    <glyph glyph-name="endash" unicode="&#x2013;" horiz-adv-x="720" 
d="M79 433h563q42 0 42 -37q0 -7 -2.5 -39t-2.5 -38q0 -7 2.5 -39t2.5 -39q0 -31 -42 -31h-563q-43 0 -43 33q0 11 2.5 35t2.5 39q0 21 -2.5 48.5t-2.5 37.5q0 30 43 30z" />
    <glyph glyph-name="emdash" unicode="&#x2014;" horiz-adv-x="1088" 
d="M79 432h931q42 0 42 -36q0 -6 -2.5 -38.5t-2.5 -37.5q0 -6 2.5 -40t2.5 -39q0 -31 -42 -31h-931q-43 0 -43 33q0 12 2.5 38t2.5 37q0 13 -2.5 43.5t-2.5 41.5q0 29 43 29z" />
    <glyph glyph-name="quoteleft" unicode="&#x2018;" horiz-adv-x="393" 
d="M35 584v1q0 81 61 174q16 26 24 33.5t21 7.5q5 0 30 -1.5t30 -1.5q12 0 29 1.5t22 1.5q19 0 27 -11.5t8 -23.5q0 -20 -24 -40q-30 -26 -30 -45q0 -16 8.5 -20.5t46.5 -13.5q31 -7 50.5 -32t19.5 -62q0 -50 -39.5 -88t-121.5 -38q-83 0 -122.5 44t-39.5 114z" />
    <glyph glyph-name="quoteright" unicode="&#x2019;" horiz-adv-x="393" 
d="M196 800h1q83 0 122 -44.5t39 -113.5q0 -79 -61 -175q-16 -26 -24 -33.5t-21 -7.5q-4 0 -29.5 1.5t-30.5 1.5t-26.5 -1.5t-24.5 -1.5q-19 0 -27 11.5t-8 23.5q0 21 24 41q30 24 30 44q0 16 -9 21t-46 13q-31 7 -50.5 32t-19.5 62q0 50 39.5 88t121.5 38z" />
    <glyph glyph-name="quotesinglbase" unicode="&#x201a;" horiz-adv-x="393" 
d="M196 219h1q83 0 122 -44.5t39 -113.5q0 -80 -61 -176q-16 -25 -24 -32.5t-21 -7.5q-4 0 -30 1.5t-30 1.5t-26 -1.5t-25 -1.5q-19 0 -27 11.5t-8 23.5q0 22 24 40q30 26 30 45q0 16 -9 21t-46 13q-31 7 -50.5 32t-19.5 62q0 51 40 88.5t121 37.5z" />
    <glyph glyph-name="quotedblleft" unicode="&#x201c;" horiz-adv-x="669" 
d="M35 582v1q0 82 61 177q16 26 24 33t21 7q10 0 32 -2q20 -2 31 -2q8 0 24.5 1.5t24.5 1.5q17 0 25.5 -10.5t8.5 -23.5q0 -20 -24 -40q-30 -26 -30 -45q0 -16 8.5 -21t33.5 -10q16 -4 21 -6q2 -1 5.5 -2t5.5 -2t3 -1q8 0 11 16q7 40 49 105q19 27 26.5 34t20.5 7
q10 0 32 -2q20 -2 31 -2q8 0 24.5 1.5t24.5 1.5q17 0 25.5 -10.5t8.5 -23.5q0 -20 -24 -40q-30 -26 -30 -45q0 -16 8.5 -20.5t46.5 -13.5q31 -7 50.5 -32t19.5 -62q0 -53 -42 -89.5t-116 -36.5q-70 0 -109 30q-7 6 -14 12.5t-10 9.5t-5 3t-5.5 -3.5t-12 -11t-18.5 -13.5
q-41 -27 -103 -27q-47 0 -80.5 14t-51 38t-25 49.5t-7.5 54.5z" />
    <glyph glyph-name="quotedblright" unicode="&#x201d;" horiz-adv-x="669" 
d="M634 644v-1q0 -82 -61 -177q-16 -25 -24 -32.5t-20 -7.5q-5 0 -30.5 2t-29.5 2q-5 0 -27 -2t-26 -2q-17 0 -25.5 11.5t-8.5 24.5q0 20 24 40q30 24 30 44q0 16 -9 21.5t-33 9.5q-7 1 -20 6t-15 5q-8 0 -11 -15q-8 -42 -50 -106q-17 -26 -25 -33.5t-20 -7.5q-5 0 -29 2
t-28 2q-5 0 -28.5 -2t-27.5 -2q-17 0 -25.5 11.5t-8.5 24.5q0 20 24 40q30 24 30 44q0 16 -8.5 20.5t-46.5 13.5q-31 7 -50.5 32t-19.5 62q0 50 40 88t120 38q97 0 127 -54q6 -10 10 -10q5 0 10 12q25 52 127 52q86 0 129 -48q36 -41 36 -108z" />
    <glyph glyph-name="quotedblbase" unicode="&#x201e;" horiz-adv-x="669" 
d="M634 62v-1q0 -81 -61 -176q-16 -26 -24 -33t-21 -7q-5 0 -32 1.5t-31 1.5t-25 -1.5t-24 -1.5q-17 0 -25.5 11.5t-8.5 23.5q0 21 24 40q30 26 30 45q0 15 -8.5 20.5t-33.5 9.5q-10 2 -22 7t-13 5q-8 0 -11 -16q-9 -43 -50 -105q-18 -27 -25.5 -34t-20.5 -7q-5 0 -32.5 1.5
t-31.5 1.5t-24 -1.5t-24 -1.5q-17 0 -25.5 11.5t-8.5 23.5q0 21 24 40q30 26 30 45q0 16 -9 21t-46 13q-31 7 -50.5 31.5t-19.5 61.5q0 56 43.5 91.5t114.5 35.5q68 0 109 -30q1 -1 8 -7.5t13 -12t8 -5.5t9.5 6t16 13t10.5 8q40 28 103 28q47 0 80.5 -14.5t51 -38.5
t25 -49.5t7.5 -54.5z" />
    <glyph glyph-name="dagger" unicode="&#x2020;" 
d="M521 343v-146q0 -80 7 -125q3 -18 3 -37q0 -18 -10.5 -30.5t-30.5 -12.5q-4 0 -42.5 4t-73.5 4q-28 0 -67 -4t-52 -4q-17 0 -26.5 10.5t-11.5 18.5t-2 15q0 6 6 60q4 36 4 101v171q0 17 -8 26t-14.5 10t-18.5 1h-93q-14 0 -21.5 1t-15 8t-7.5 21q0 12 2 35.5t2 35.5
q0 24 -2 53.5t-2 37.5q0 16 8 23.5t16.5 8.5t28.5 1h84q24 0 33 10t9 38q0 5 -2 30t-2 29q0 26 15.5 37.5t31.5 11.5q6 0 40 -4t65 -4t65 4t40 4q17 0 32 -11.5t15 -37.5q0 -5 -2 -30t-2 -29q0 -27 9 -37.5t33 -10.5h84q21 0 29.5 -1t16 -9t7.5 -24q0 -4 -2 -29t-2 -57
q0 -8 2 -40.5t2 -35.5q0 -13 -8 -20t-15.5 -8t-20.5 -1h-95q-29 0 -35 -11.5t-6 -50.5z" />
    <glyph glyph-name="daggerdbl" unicode="&#x2021;" 
d="M554 359h83q21 0 30 -1t16.5 -9t7.5 -24q0 -6 -2.5 -34t-2.5 -33t2 -33t2 -29q0 -13 -7.5 -20t-15 -8t-20.5 -1h-93q-38 0 -38 -40q0 -7 3.5 -45.5t3.5 -44.5q0 -23 -12.5 -34t-29.5 -11q-10 0 -45 4t-62 4q-19 0 -55.5 -4t-51.5 -4q-16 0 -28.5 11t-12.5 34q0 7 3 46
t3 45q0 39 -37 39h-93q-15 0 -22 1t-14.5 8.5t-7.5 21.5q0 1 2 27.5t2 32.5t-2 34.5t-2 33.5q0 16 7.5 23.5t16 8.5t29.5 1h84q18 0 29.5 7.5t11.5 20.5v22q0 29 -41 29h-96q-14 0 -21 1t-14.5 8.5t-7.5 21.5q0 1 2 27.5t2 32.5t-2 34.5t-2 33.5q0 23 12 28.5t41 5.5h83
q24 0 33.5 10.5t9.5 37.5q0 5 -2 30t-2 29q0 26 15.5 37t31.5 11q8 0 41 -4t55 -4q20 0 54 4t43 4q16 0 31 -11t15 -37q0 -5 -2 -30.5t-2 -29.5q0 -26 9 -36.5t34 -10.5h84q21 0 29.5 -1.5t16 -9t7.5 -24.5q0 -5 -2.5 -34t-2.5 -34t2 -32l2 -28q0 -14 -7.5 -21t-15 -8
t-20.5 -1h-95q-42 0 -42 -29v-22q0 -28 42 -28z" />
    <glyph glyph-name="bullet" unicode="&#x2022;" horiz-adv-x="437" 
d="M220 523h1q17 0 31 -1t44 -7.5t50.5 -18.5t37 -37.5t16.5 -61.5q0 -33 -13.5 -57.5t-33 -37.5t-46.5 -20.5t-47.5 -9.5t-42.5 -2q-14 0 -27 1t-36 4.5t-41.5 12t-36.5 21.5t-28.5 35.5t-10.5 51.5q0 40 19.5 67t51.5 39t58.5 16.5t53.5 4.5z" />
    <glyph glyph-name="ellipsis" unicode="&#x2026;" horiz-adv-x="1179" 
d="M198 221h1q12 0 22 -0.5t31.5 -3.5t38 -10.5t33.5 -19t26.5 -32.5t9.5 -48q0 -35 -16.5 -59.5t-43.5 -35.5t-52 -15.5t-52 -4.5t-51.5 4.5t-51.5 15.5t-43 35t-16 59q0 36 18 61t47.5 35.5t52.5 14.5t46 4zM591 221h1q12 0 22 -0.5t31.5 -3.5t38 -10.5t33.5 -19
t26.5 -32.5t9.5 -48q0 -35 -16 -59.5t-43.5 -35.5t-52 -15.5t-52.5 -4.5q-12 0 -23.5 1t-32.5 4t-37.5 10.5t-33 19.5t-26 32.5t-9.5 46.5q0 36 18 60.5t46.5 35.5t52 15t47.5 4zM984 221h1q12 0 22 -0.5t31.5 -3.5t38 -10.5t33.5 -19t26.5 -32.5t9.5 -48q0 -35 -16 -59.5
t-43.5 -35.5t-52 -15.5t-52.5 -4.5q-12 0 -23.5 1t-32.5 4t-37.5 10.5t-33 19.5t-26 32.5t-9.5 46.5q0 35 17.5 59.5t45.5 35.5t52.5 15.5t48.5 4.5z" />
    <glyph glyph-name="perthousand" unicode="&#x2030;" horiz-adv-x="1581" 
d="M236 795h1q119 0 170 -65t51 -191q0 -120 -53.5 -188.5t-168.5 -68.5q-114 0 -168 68.5t-54 188.5q0 256 222 256zM236 650h-1q-41 0 -41 -114q0 -113 42 -113t42 114q0 47 -6.5 73t-15 33t-20.5 7zM875 493h1q119 0 170 -65t51 -191q0 -120 -53.5 -188.5t-168.5 -68.5
q-114 0 -168 68.5t-54 188.5q0 256 222 256zM875 348h-1q-41 0 -41 -114q0 -113 42 -113t42 114q0 47 -6.5 73t-15 33t-20.5 7zM1345 493h1q119 0 170 -65t51 -191q0 -120 -53.5 -188.5t-168.5 -68.5q-114 0 -168 68.5t-54 188.5q0 256 222 256zM1345 348h-1q-41 0 -41 -114
q0 -113 42 -113t42 114q0 47 -6.5 73t-15 33t-20.5 7zM816 761v-1q0 -10 -4 -18l-322 -714q-15 -33 -34 -33q-4 0 -28 1t-31 1q-8 0 -35.5 -1t-34.5 -1q-25 0 -25 21q0 14 13 44l307 686q11 25 20.5 32t24.5 7q12 0 36 -1.5t30 -1.5q9 0 31 1.5t27 1.5q25 0 25 -24z" />
    <glyph glyph-name="guilsinglleft" unicode="&#x2039;" horiz-adv-x="426" 
d="M377 91v-1q0 -10 -10 -21.5t-29 -11.5q-7 0 -32 2t-39 2q-9 0 -30.5 -2t-26.5 -2q-17 0 -35 27l-110 171q-23 37 -23 58q0 23 29 66l109 168q15 23 36 23q5 0 28.5 -2t27.5 -2q6 0 35 2t34 2q20 0 31 -12.5t11 -26.5q0 -13 -20 -44l-82 -127q-21 -32 -21 -49
q0 -15 21 -48l82 -133q14 -22 14 -39z" />
    <glyph glyph-name="guilsinglright" unicode="&#x203a;" horiz-adv-x="426" 
d="M48 536v1q0 10 10 21.5t29 11.5q7 0 32 -2t39 -2q9 0 30.5 2t26.5 2q17 0 35 -27l110 -171q23 -37 23 -58q0 -22 -29 -66l-109 -168q-15 -23 -36 -23q-5 0 -28.5 2t-27.5 2q-6 0 -35 -2t-34 -2q-20 0 -31 12.5t-11 26.5q0 13 20 44l82 127q21 32 21 49q0 15 -21 48
l-82 133q-14 22 -14 39z" />
    <glyph glyph-name="fraction" unicode="&#x2044;" horiz-adv-x="208" 
d="M361 764v-1q0 -10 -4 -18l-322 -714q-15 -33 -34 -33q-5 0 -30 1t-29 1q-6 0 -35.5 -1t-34.5 -1q-25 0 -25 21q0 14 13 44l307 686q11 25 20.5 32t24.5 7q12 0 36 -1.5t31 -1.5q6 0 29.5 1.5t27.5 1.5q25 0 25 -24z" />
    <glyph glyph-name="Euro" unicode="&#x20ac;" 
d="M528 211q46 0 98.5 18t63.5 18q12 0 20.5 -9.5t8.5 -25.5q0 -2 -19 -76q-10 -76 -16 -95q-9 -24 -58 -39t-91.5 -19.5t-72.5 -4.5q-155 0 -254.5 79t-117.5 228q-2 18 -7.5 23.5t-16.5 5.5h-24q-32 0 -32 28q0 17 7.5 22.5t24.5 5.5h13q27 0 27 24q0 16 -6.5 21.5
t-20.5 5.5h-13q-32 0 -32 28q0 17 7.5 22.5t24.5 5.5h24q22 0 26 26q8 60 36 115t66 90q99 93 254 93q86 0 173 -20q27 -6 38.5 -15t11.5 -28q0 -1 -1 -19t-1 -30q0 -32 13 -84.5t13 -53.5q0 -9 -7 -20.5t-23 -11.5q-10 0 -32.5 14.5t-58 29.5t-77.5 15q-39 0 -65 -14
q-18 -10 -31 -28t-13 -37q0 -13 5 -17.5t26 -4.5h125q29 0 29 -28t-29 -28h-133q-19 0 -27 -5t-8 -20q0 -26 33 -26h135q15 0 22 -5.5t7 -22.5q0 -28 -29 -28h-122q-14 0 -20.5 -4t-6.5 -17q0 -36 40 -63q30 -19 93 -19z" />
    <glyph glyph-name="afii61289" unicode="&#x2113;" horiz-adv-x="744" 
d="M619 271l101 -106q-107 -185 -324 -185q-104 0 -164.5 36.5t-88.5 114.5q-1 1 -1 3.5t-1 4.5q-42 -26 -51 -31l-63 122q18 12 55.5 36.5t54.5 36.5v218q0 166 70.5 252.5t202.5 86.5q111 0 168 -64t57 -161q0 -96 -61.5 -181.5t-191.5 -189.5l2 -34q5 -20 24.5 -35.5
t52.5 -15.5q81 0 158 92zM382 566v-96q39 41 60.5 89.5t21.5 82.5q0 57 -37 57q-45 0 -45 -133z" />
    <glyph glyph-name="trademark" unicode="&#x2122;" horiz-adv-x="898" 
d="M257 625v-150q0 -32 6 -41q10 -16 10 -23q0 -24 -26 -24q-5 0 -30.5 1.5t-49.5 1.5q-22 0 -49.5 -1.5t-36.5 -1.5q-14 0 -20.5 7.5t-6.5 16.5q0 6 11 23q6 9 6 41v150q0 8 -0.5 11t-4 5.5t-10.5 2.5q-14 0 -22 -7q-13 -9 -22 -9q-11 0 -19 6t-8 14q0 4 1.5 10t4 16.5
t4.5 20.5q4 19 10 59q2 17 9 23t25 6q3 0 39.5 -2t92.5 -2q40 0 66.5 1t39 2t17.5 1q20 0 25.5 -10t9.5 -44q4 -30 9 -53q0 -2 1.5 -8.5t2.5 -11.5t1 -7q0 -9 -7 -15.5t-18 -6.5q-9 0 -23 8q-14 7 -23 7q-5 0 -8.5 -1t-4.5 -3.5t-1.5 -5t-0.5 -7.5zM507 544v-1
q0 -2 0.5 -10.5t0.5 -13.5v-44q1 -33 6 -41q10 -14 10 -24q0 -23 -28 -23q-5 0 -29 1.5t-28 1.5q-5 0 -32 -1.5t-31 -1.5q-12 0 -19 7t-7 17q0 9 10 23q6 9 6 41v218q0 32 -6 42q-10 14 -10 23q0 5 1.5 9.5t8.5 10t19 5.5q11 0 42.5 -2t47.5 -2q18 0 64 4q9 0 16 -4.5
t10 -9.5t10 -16q20 -33 43 -73q9 -13 11 -13q3 0 10 12q30 54 44 80q13 24 31 24q7 0 32.5 -2t37.5 -2q14 0 41 2t40 2t19.5 -7.5t6.5 -16.5t-10 -24q-6 -8 -6 -42v-218q0 -33 6 -41q10 -14 10 -23q0 -24 -26 -24q-5 0 -39.5 1.5t-41.5 1.5q-26 0 -47 -1.5t-26 -1.5
q-26 0 -26 24q0 9 10 23q6 9 6 41v60q0 3 0.5 9t0.5 8h-2q-2 0 -8 -10l-52 -94q-14 -24 -34 -24q-17 0 -31 24l-53 96q-5 8 -6 8h-2q-1 0 -1 -8z" />
    <glyph glyph-name="Omega" unicode="&#x2126;" horiz-adv-x="940" 
d="M195 190v4q-59 43 -102 110.5t-43 156.5q0 141 114.5 242.5t306.5 101.5q99 0 179.5 -29.5t131.5 -78.5t78 -109t27 -124q0 -156 -149 -270v-4h165v-190h-408v145q66 43 99.5 103t33.5 166q0 92 -42.5 146t-113.5 54q-69 0 -115.5 -55t-46.5 -152q0 -95 36 -163t99 -99
v-145h-410v190h160z" />
    <glyph glyph-name="estimated" unicode="&#x212e;" horiz-adv-x="992" 
d="M953 378h-740q-7 0 -7 -5v-224q0 -13 10 -25q117 -122 280 -122q87 0 163.5 36t131.5 100h66q-63 -73 -158.5 -116t-203.5 -43q-124 0 -229.5 55t-166.5 149.5t-61 205.5q0 171 134 291t323 120q190 0 324 -120t134 -291v-11zM785 407v225q0 16 -11 27q-119 117 -278 117
q-161 0 -279 -120q-11 -13 -11 -28v-221q0 -7 7 -7h567q5 0 5 7z" />
    <glyph glyph-name="partialdiff" unicode="&#x2202;" horiz-adv-x="788" 
d="M125 649l-68 169q120 74 277 74q179 0 293.5 -122t114.5 -322q0 -221 -114.5 -343.5t-294.5 -122.5q-74 0 -134.5 28t-95.5 71t-53.5 90.5t-18.5 92.5q0 132 78.5 218.5t209.5 86.5q63 0 107.5 -25t65.5 -54h1v13q0 72 -49.5 133.5t-144.5 61.5q-88 0 -174 -49zM361 175
h1q41 0 71.5 45.5t37.5 94.5q-4 22 -28.5 45.5t-62.5 23.5q-45 0 -71 -37t-26 -90q0 -36 22.5 -59t55.5 -23z" />
    <glyph glyph-name="Delta" unicode="&#x2206;" horiz-adv-x="870" 
d="M22 0v120l262 686h309l253 -684v-122h-824zM296 191h261l-84 238q-38 130 -46 164h-5q-5 -20 -21 -76t-22 -78z" />
    <glyph glyph-name="product" unicode="&#x220f;" horiz-adv-x="951" 
d="M929 582h-121v-691h-248v691h-170v-691h-248v691h-121v210h908v-210z" />
    <glyph glyph-name="summation" unicode="&#x2211;" horiz-adv-x="738" 
d="M724 -109h-699v138l263 309l-251 293v161h658v-203h-315v-5l192 -214l-220 -263v-5h372v-211z" />
    <glyph glyph-name="minus" unicode="&#x2212;" 
d="M633 308h-517q-38 0 -38 29q0 8 2 27t2 33q0 5 -2 30.5t-2 29.5q0 29 38 29h517q38 0 38 -30q0 -4 -2 -29t-2 -29q0 -6 2 -31.5t2 -29.5q0 -29 -38 -29z" />
    <glyph glyph-name="uni2215" unicode="&#x2215;" horiz-adv-x="208" 
d="M361 764v-1q0 -10 -4 -18l-322 -714q-15 -33 -34 -33q-5 0 -30 1t-29 1q-6 0 -35.5 -1t-34.5 -1q-25 0 -25 21q0 14 13 44l307 686q11 25 20.5 32t24.5 7q12 0 36 -1.5t31 -1.5q6 0 29.5 1.5t27.5 1.5q25 0 25 -24z" />
    <glyph glyph-name="uni2219" unicode="&#x2219;" horiz-adv-x="393" 
d="M198 428h1q12 0 22 -0.5t31.5 -3.5t38 -10.5t33.5 -19t26.5 -32t9.5 -47.5q0 -35 -16.5 -59.5t-43.5 -35.5t-52 -15.5t-52 -4.5t-51.5 4.5t-51.5 15.5t-43 35t-16 59q0 29 13 51t31 33.5t42.5 18.5t42.5 9t35 2z" />
    <glyph glyph-name="radical" unicode="&#x221a;" horiz-adv-x="801" 
d="M838 955l-304 -1115h-190l-186 464l-91 -38l-38 119l273 114l106 -303q6 -21 17 -59t16 -54l2 -1q3 14 11 56t14 68l196 749h174z" />
    <glyph glyph-name="infinity" unicode="&#x221e;" horiz-adv-x="922" 
d="M871 328v-1q0 -103 -61.5 -164.5t-143.5 -61.5q-26 0 -46.5 3.5t-49 14.5t-57 37.5t-54.5 67.5q-46 -62 -94.5 -92.5t-114.5 -30.5q-81 0 -141 60t-60 158q0 99 60.5 160.5t152.5 61.5q66 0 114 -27t92 -88q1 2 11.5 14t14.5 16.5t15.5 16.5t19.5 17.5t21 15.5t25.5 15
t27.5 10.5t32 7.5t35 2q83 -1 142 -59.5t59 -153.5zM263 221h2q63 0 129 92q-43 67 -62 84q-29 25 -69 25t-66 -26.5t-26 -76.5q0 -39 27.5 -68.5t64.5 -29.5zM658 422h-1q-27 0 -53.5 -18t-39.5 -34t-36 -47q43 -63 71 -82.5t67 -19.5q36 0 58.5 31.5t22.5 64.5
q0 44 -24 74.5t-65 30.5z" />
    <glyph glyph-name="integral" unicode="&#x222b;" horiz-adv-x="525" 
d="M509 985l-19 -154q-23 6 -46 6q-45 0 -65 -35q-21 -34 -21 -171q0 -105 11 -241q10 -150 10 -266q0 -149 -36 -222q-31 -60 -86.5 -88.5t-119.5 -28.5q-77 0 -118 18l25 160q25 -9 52 -9q38 0 56 22q25 33 25 148q0 118 -11 274t-11 258q0 103 21 167t66 111
q59 62 181 62q51 0 86 -11z" />
    <glyph glyph-name="approxequal" unicode="&#x2248;" horiz-adv-x="674" 
d="M558 557l83 -84q-40 -62 -90.5 -95t-95.5 -33q-64 0 -134 43q-50 31 -76 35q-9 1 -19 1q-24 0 -46.5 -12.5t-36 -26.5t-35.5 -40l-82 85q31 51 88 88.5t115 37.5q69 0 121 -35q30 -19 41.5 -26t26.5 -12t30 -5q49 0 110 79zM558 313l83 -84q-40 -62 -90 -95.5t-98 -33.5
q-59 0 -132 43q-24 15 -33 20t-26.5 11t-34.5 6q-25 0 -48 -13t-35 -25.5t-36 -40.5l-82 84q30 51 87.5 89t115.5 38q63 0 120 -34q7 -4 23.5 -15t24.5 -16t22 -9.5t27 -4.5q31 0 55 19t57 61z" />
    <glyph glyph-name="notequal" unicode="&#x2260;" horiz-adv-x="674" 
d="M519 600l-35 -82h136v-131h-190l-56 -131h246v-131h-301l-55 -128l-105 44l37 84h-142v131h195l56 131h-251v131h305l54 126z" />
    <glyph glyph-name="lessequal" unicode="&#x2264;" horiz-adv-x="674" 
d="M619 149l-563 251v141l562 250v-145l-427 -174v-3l428 -175v-145zM621 -22h-565v135h565v-135z" />
    <glyph glyph-name="greaterequal" unicode="&#x2265;" horiz-adv-x="674" 
d="M58 791l562 -251v-141l-561 -250v145l427 176v2l-428 174v145zM615 -22h-558v135h558v-135z" />
    <glyph glyph-name="lozenge" unicode="&#x25ca;" horiz-adv-x="800" 
d="M749 395l-256 -451h-193l-249 451l254 451h193zM534 390l-112 219q-18 39 -21 58h-4q-9 -29 -22 -58l-111 -210l114 -223q16 -44 19 -54h5q2 4 6 16t7.5 22t6.5 15z" />
    </font>
</defs>
</svg>
